<?xml version="1.0" encoding="UTF-8" standalone="no"?>
<svg width="60px" height="60px" viewBox="0 0 60 60" version="1.1" xmlns="http://www.w3.org/2000/svg" xmlns:xlink="http://www.w3.org/1999/xlink">
    <!-- Generator: Sketch 48.2 (47327) - http://www.bohemiancoding.com/sketch -->
    <title>Icon/Competitions/Art Large</title>
    <desc>Created with Sketch.</desc>
    <defs></defs>
    <g id="Symbols" stroke="none" stroke-width="1" fill="none" fill-rule="evenodd">
        <g id="Icon/Competitions/Art-Large">
            <g id="Icon/Competitions/Art">
                <rect id="Background" x="0" y="0" width="60" height="60"></rect>
                <path d="M2.30769231,40.9307692 C1.45802346,40.9307692 0.769230769,40.2419765 0.769230769,39.3923077 C0.876923077,29.8692308 8.62307692,19.5615385 20,13.7307692 C24.1261561,11.5857074 28.5828378,10.1478165 33.1846154,9.47692308 C33.7342548,9.39997357 34.2831946,9.6220984 34.6246545,10.0596253 C34.9661144,10.4971522 35.0482185,11.0836104 34.8400391,11.5980868 C34.6318596,12.1125632 34.165024,12.4768966 33.6153846,12.5538462 C29.3542501,13.1778997 25.2278527,14.5117635 21.4076923,16.5 C11.0076923,21.8 3.93846154,31.0153846 3.84615385,39.4153846 C3.83354279,40.2560278 3.14843004,40.9308638 2.30769231,40.9307692 Z" id="Shape" fill="#000000" fill-rule="nonzero"></path>
                <path d="M56.7692308,32.9615385 C56.2867883,32.9608418 55.832611,32.7338769 55.5424202,32.3484673 C55.2522295,31.9630577 55.1596354,31.4638418 55.2923077,31 C56.4123479,27.4841484 56.1369154,23.6721631 54.5230769,20.3538462 C53.2983355,18.0146856 51.4087346,16.0902904 49.0923077,14.8230769 C48.6141214,14.5482572 48.3188737,14.039204 48.3177814,13.4876728 C48.3166891,12.9361415 48.6099182,12.4259228 49.0870122,12.1492112 C49.5641061,11.8724996 50.152583,11.8713342 50.6307692,12.1461538 C53.4690531,13.7067705 55.7816557,16.0729056 57.2769231,18.9461538 C59.2402848,22.9612071 59.5818751,27.5781851 58.2307692,31.8384615 C58.0465791,32.4955288 57.4515695,32.9527468 56.7692308,32.9615385 Z" id="Shape" fill="#000000" fill-rule="nonzero"></path>
                <path d="M21.7,56.8769231 C19.5479694,56.8850061 17.4016274,56.6554094 15.3,56.1923077 C14.4955195,55.9841847 14.0016884,55.1748415 14.1845901,54.3642546 C14.3674917,53.5536678 15.1610204,53.0348058 15.9769231,53.1923077 C22.7230769,54.7307692 30.8846154,53.3769231 38.3692308,49.5384615 C40.1507911,48.6266449 41.8630765,47.5853903 43.4923077,46.4230769 C44.1826621,45.9519876 45.1228419,46.1182171 45.6098098,46.7974642 C46.0967777,47.4767113 45.95239,48.4204922 45.2846154,48.9230769 C43.532031,50.1855931 41.6885502,51.3168784 39.7692308,52.3076923 C34.1873738,55.2255331 27.9978953,56.7906886 21.7,56.8769231 Z" id="Shape" fill="#000000" fill-rule="nonzero"></path>
                <path d="M28.0846154,49.5615385 C25.5134021,49.5770536 23.3133668,47.7189189 22.8984676,45.1813537 C22.4835684,42.6437885 23.9772384,40.1817223 26.4194991,39.3775201 C28.8617597,38.5733178 31.5260347,39.6662308 32.7,41.9538462 C33.5237186,43.5684381 33.4528497,45.4943884 32.5126958,47.0440754 C31.5725419,48.5937624 29.8971237,49.5462753 28.0846154,49.5615385 Z M28.0846154,42.1923077 C27.3338591,42.1853457 26.634046,42.5712111 26.2392441,43.209815 C25.8444422,43.8484189 25.8120571,44.646906 26.1538462,45.3153846 C26.6933859,46.3774707 27.9917601,46.8010782 29.0538462,46.2615385 C30.1159322,45.7219987 30.5395397,44.4236245 30,43.3615385 C29.6298869,42.6374915 28.8823552,42.1848029 28.0692308,42.1923077 L28.0846154,42.1923077 Z" id="Shape" fill="#000000" fill-rule="nonzero"></path>
                <path d="M14.0384615,49 C13.3280499,48.9993183 12.7104839,48.5123013 12.5442092,47.821622 C12.3779346,47.1309427 12.7061946,46.4162268 13.3384615,46.0923077 C14.2582281,45.6207415 14.6215662,44.4928434 14.15,43.5730769 C13.6784338,42.6533104 12.5505358,42.2899723 11.6307692,42.7615385 C11.1374679,43.0129985 10.5474863,42.982184 10.0830649,42.6807025 C9.6186435,42.379221 9.35033886,41.8528748 9.37921877,41.2999333 C9.40809868,40.7469918 9.72977559,40.25146 10.2230769,40 C12.655254,38.753111 15.6377264,39.7139768 16.8846154,42.1461538 C18.1315044,44.5783309 17.1706386,47.5608033 14.7384615,48.8076923 C14.523809,48.9267154 14.2837944,48.9926534 14.0384615,49 Z" id="Shape" fill="#000000" fill-rule="nonzero"></path>
                <path d="M5.38461538,45.2538462 C4.49588122,45.2723375 3.62213265,45.0230779 2.87692308,44.5384615 C0.830769231,43.1769231 0.192307692,40.2230769 1.06923077,36.2307692 C1.18740323,35.6934967 1.58323055,35.2600808 2.1076084,35.0937849 C2.63198625,34.927489 3.20524917,35.0535775 3.61145456,35.4245541 C4.01765994,35.7955307 4.19509554,36.3550352 4.07692308,36.8923077 C3.40769231,39.9692308 3.93076923,41.5076923 4.58461538,41.9769231 C5.23846154,42.4461538 7.10769231,42.2076923 10.0692308,40.1384615 C10.5199351,39.823793 11.1042767,39.7734752 11.6021397,40.0064622 C12.1000028,40.2394493 12.4357502,40.7203451 12.482909,41.2680007 C12.5300678,41.8156563 12.2814735,42.3468699 11.8307692,42.6615385 C9.01538462,44.6153846 6.92307692,45.2538462 5.38461538,45.2538462 Z" id="Shape" fill="#000000" fill-rule="nonzero"></path>
                <path d="M15.7615385,56.2538462 L15.6538462,56.2538462 C13.5615385,56.1076923 11.4384615,54.2 10.8230769,51.9153846 C10.2076923,49.6307692 11.0846154,47.6076923 13.1846154,46.1923077 C13.8863933,45.7577958 14.8060144,45.9545111 15.2686213,46.6380955 C15.7312283,47.3216798 15.5719591,48.2485203 14.9076923,48.7384615 C13.9076923,49.4153846 13.5461538,50.1923077 13.7923077,51.1153846 C14.0707,52.1234588 14.8601306,52.9099655 15.8692308,53.1846154 C16.7188996,53.2143538 17.3835845,53.9272543 17.3538461,54.7769231 C17.3241077,55.6265919 16.6112073,56.2912768 15.7615385,56.2615385 L15.7615385,56.2538462 Z" id="Shape" fill="#000000" fill-rule="nonzero"></path>
                <path d="M30.7660546,22.5459328 C30.4491615,22.5446842 30.1344329,22.4936445 29.8333846,22.3946813 C28.3475075,21.9040421 27.4883742,20.3535931 27.8600807,18.8335259 C28.2317872,17.3134587 29.7094462,16.334491 31.254048,16.5849798 C32.7986498,16.8354686 33.8912336,18.2312539 33.7635535,19.7908949 C33.6358735,21.350536 32.3308281,22.5500192 30.7660546,22.5459328 Z" id="Shape" fill="#FDE966" fill-rule="nonzero"></path>
                <path d="M21.3110983,26.6775863 C20.1795712,26.6761467 19.1433343,26.047902 18.6247182,25.0489007 C17.8633061,23.5878927 18.4253009,21.7902878 19.8859295,21.0147716 C21.3567055,20.2584163 23.1663287,20.8166786 23.9470298,22.2676067 C24.4323162,23.1974547 24.3932211,24.311601 23.8439356,25.2056268 C23.2946501,26.0996525 22.315025,26.6435913 21.2606498,26.6400013 L21.3110983,26.6775863 Z" id="Shape" fill="#F79975" fill-rule="nonzero"></path>
                <path d="M13.6814392,34.599779 C13.3645461,34.5985303 13.0498175,34.5474906 12.7487692,34.4485275 C11.2628921,33.9578883 10.4037588,32.4074392 10.7754653,30.8873721 C11.1471718,29.3673049 12.6248308,28.3883372 14.1694326,28.638826 C15.7140344,28.8893148 16.8066182,30.2851 16.6789381,31.8447411 C16.5512581,33.4043822 15.2462127,34.6038653 13.6814392,34.599779 Z" id="Shape" fill="#4ABB8B" fill-rule="nonzero"></path>
                <path d="M52.7615385,60 C52.1524797,60.0004161 51.6005149,59.6414882 51.3538462,59.0846154 L42.3076923,38.8 C40,33.5769231 39.5846154,27.6153846 41.2538462,22.8461538 C41.4242272,22.3693406 41.8183168,22.0068932 42.3076923,21.8769231 L46.4384615,20.6923077 C46.9176079,20.5548515 47.4336557,20.6580611 47.8230769,20.9692308 C51.7538462,24.1307692 54.5769231,29.4307692 55.3615385,35.0692308 L58.4384615,57.0615385 C58.5447832,57.8209481 58.0756379,58.5427102 57.3384615,58.7538462 L53.2076923,59.9384615 C53.0627984,59.9807494 52.91247,60.0014844 52.7615385,60 Z M43.9384615,24.6153846 C42.8430833,28.9382198 43.2667485,33.506199 45.1384615,37.5538462 L53.6,56.6230769 L55.1384615,56.1769231 L52.3076923,35.5 C51.7637163,31.0615936 49.7073182,26.9460809 46.4846154,23.8461538 L43.9384615,24.6153846 Z" id="Shape" fill="#000000" fill-rule="nonzero"></path>
                <path d="M41.3,18.3384615 C41.1272184,18.3389656 40.9555863,18.3103603 40.7923077,18.2538462 C37.4846154,17.0923077 35.2153846,12.6153846 35.9384615,8.66923077 L37.2615385,1.43076923 C37.3628872,0.852387716 37.7846295,0.382137113 38.3486096,0.218664636 C38.9125896,0.0551921596 39.5204389,0.227010404 39.9153846,0.661538462 L44.8692308,6.10769231 C47.5692308,9.07692308 48.0076923,14.0769231 45.8153846,16.8153846 C45.617982,17.0620946 45.3494046,17.2420415 45.0461538,17.3307692 L41.7384615,18.2769231 C41.5960394,18.3184697 41.4483565,18.3391971 41.3,18.3384615 Z" id="Shape" fill="#6067EC" fill-rule="nonzero"></path>
            </g>
        </g>
    </g>
</svg>