<?xml version="1.0" encoding="UTF-8" standalone="no"?>
<svg width="30px" height="30px" viewBox="0 0 30 30" version="1.1" xmlns="http://www.w3.org/2000/svg" xmlns:xlink="http://www.w3.org/1999/xlink">
    <!-- Generator: Sketch 48.2 (47327) - http://www.bohemiancoding.com/sketch -->
    <title>Icon/Competitions/Art</title>
    <desc>Created with Sketch.</desc>
    <defs></defs>
    <g id="Symbols" stroke="none" stroke-width="1" fill="none" fill-rule="evenodd">
        <g id="Icon/Competitions/Art">
            <rect id="Background" x="0" y="0" width="30" height="30"></rect>
            <path d="M1.15384615,20.4653846 C0.729011731,20.4653846 0.384615385,20.1209883 0.384615385,19.6961538 C0.438461538,14.9346154 4.31153846,9.78076923 10,6.86538462 C12.0630781,5.79285368 14.2914189,5.07390824 16.5923077,4.73846154 C16.8671274,4.69998678 17.1415973,4.8110492 17.3123272,5.02981265 C17.4830572,5.2485761 17.5241093,5.54180521 17.4200195,5.79904342 C17.3159298,6.05628162 17.082512,6.23844832 16.8076923,6.27692308 C14.6771251,6.58894983 12.6139263,7.25588174 10.7038462,8.25 C5.50384615,10.9 1.96923077,15.5076923 1.92307692,19.7076923 C1.91677139,20.1280139 1.57421502,20.4654319 1.15384615,20.4653846 Z" id="Shape" fill="#000000" fill-rule="nonzero"></path>
            <path d="M28.3846154,16.4807692 C28.1433942,16.4804209 27.9163055,16.3669384 27.7712101,16.1742336 C27.6261148,15.9815289 27.5798177,15.7319209 27.6461538,15.5 C28.2061739,13.7420742 28.0684577,11.8360816 27.2615385,10.1769231 C26.6491677,9.00734281 25.7043673,8.0451452 24.5461538,7.41153846 C24.3070607,7.27412862 24.1594368,7.01960202 24.1588907,6.74383638 C24.1583445,6.46807074 24.3049591,6.21296141 24.5435061,6.07460561 C24.7820531,5.93624981 25.0762915,5.93566708 25.3153846,6.07307692 C26.7345266,6.85338526 27.8908279,8.03645279 28.6384615,9.47307692 C29.6201424,11.4806036 29.7909375,13.7890926 29.1153846,15.9192308 C29.0232896,16.2477644 28.7257847,16.4763734 28.3846154,16.4807692 Z" id="Shape" fill="#000000" fill-rule="nonzero"></path>
            <path d="M10.85,28.4384615 C9.77398471,28.4425031 8.7008137,28.3277047 7.65,28.0961538 C7.24775976,27.9920923 7.00084422,27.5874207 7.09229504,27.1821273 C7.18374587,26.7768339 7.5805102,26.5174029 7.98846154,26.5961538 C11.3615385,27.3653846 15.4423077,26.6884615 19.1846154,24.7692308 C20.0753955,24.3133225 20.9315382,23.7926951 21.7461538,23.2115385 C22.091331,22.9759938 22.5614209,23.0591086 22.8049049,23.3987321 C23.0483888,23.7383556 22.976195,24.2102461 22.6423077,24.4615385 C21.7660155,25.0927966 20.8442751,25.6584392 19.8846154,26.1538462 C17.0936869,27.6127666 13.9989477,28.3953443 10.85,28.4384615 Z" id="Shape" fill="#000000" fill-rule="nonzero"></path>
            <path d="M14.0423077,24.7807692 C12.7567011,24.7885268 11.6566834,23.8594594 11.4492338,22.5906768 C11.2417842,21.3218943 11.9886192,20.0908612 13.2097495,19.68876 C14.4308799,19.2866589 15.7630174,19.8331154 16.35,20.9769231 C16.7618593,21.784219 16.7264249,22.7471942 16.2563479,23.5220377 C15.786271,24.2968812 14.9485618,24.7731376 14.0423077,24.7807692 Z M14.0423077,21.0961538 C13.6669296,21.0926729 13.317023,21.2856056 13.1196221,21.6049075 C12.9222211,21.9242094 12.9060285,22.323453 13.0769231,22.6576923 C13.3466929,23.1887353 13.99588,23.4005391 14.5269231,23.1307692 C15.0579661,22.8609994 15.2697699,22.2118123 15,21.6807692 C14.8149435,21.3187457 14.4411776,21.0924015 14.0346154,21.0961538 L14.0423077,21.0961538 Z" id="Shape" fill="#000000" fill-rule="nonzero"></path>
            <path d="M7.01923077,24.5 C6.66402497,24.4996591 6.35524193,24.2561506 6.27210461,23.910811 C6.18896729,23.5654714 6.3530973,23.2081134 6.66923077,23.0461538 C7.12911403,22.8103707 7.3107831,22.2464217 7.075,21.7865385 C6.8392169,21.3266552 6.27526788,21.1449861 5.81538462,21.3807692 C5.56873395,21.5064992 5.27374317,21.491092 5.04153246,21.3403512 C4.80932175,21.1896105 4.67516943,20.9264374 4.68960938,20.6499666 C4.70404934,20.3734959 4.86488779,20.12573 5.11153846,20 C6.327627,19.3765555 7.81886318,19.8569884 8.44230769,21.0730769 C9.06575221,22.2891655 8.5853193,23.7804016 7.36923077,24.4038462 C7.2619045,24.4633577 7.14189722,24.4963267 7.01923077,24.5 Z" id="Shape" fill="#000000" fill-rule="nonzero"></path>
            <path d="M2.69230769,22.6269231 C2.24794061,22.6361687 1.81106632,22.511539 1.43846154,22.2692308 C0.415384615,21.5884615 0.0961538462,20.1115385 0.534615385,18.1153846 C0.593701617,17.8467484 0.791615276,17.6300404 1.0538042,17.5468924 C1.31599313,17.4637445 1.60262458,17.5267888 1.80572728,17.7122771 C2.00882997,17.8977654 2.09754777,18.1775176 2.03846154,18.4461538 C1.70384615,19.9846154 1.96538462,20.7538462 2.29230769,20.9884615 C2.61923077,21.2230769 3.55384615,21.1038462 5.03461538,20.0692308 C5.25996753,19.9118965 5.55213833,19.8867376 5.80106987,20.0032311 C6.05000141,20.1197247 6.21787508,20.3601725 6.24145449,20.6340004 C6.26503389,20.9078282 6.14073676,21.173435 5.91538462,21.3307692 C4.50769231,22.3076923 3.46153846,22.6269231 2.69230769,22.6269231 Z" id="Shape" fill="#000000" fill-rule="nonzero"></path>
            <path d="M7.88076923,28.1269231 L7.82692308,28.1269231 C6.78076923,28.0538462 5.71923077,27.1 5.41153846,25.9576923 C5.10384615,24.8153846 5.54230769,23.8038462 6.59230769,23.0961538 C6.94319663,22.8788979 7.40300718,22.9772555 7.63431065,23.3190477 C7.86561413,23.6608399 7.78597954,24.1242601 7.45384615,24.3692308 C6.95384615,24.7076923 6.77307692,25.0961538 6.89615385,25.5576923 C7.03535001,26.0617294 7.43006528,26.4549827 7.93461538,26.5923077 C8.35944979,26.6071769 8.69179224,26.9636271 8.67692304,27.3884615 C8.66205383,27.8132959 8.30560364,28.1456384 7.88076923,28.1307692 L7.88076923,28.1269231 Z" id="Shape" fill="#000000" fill-rule="nonzero"></path>
            <path d="M15.3830273,11.2729664 C15.2245808,11.2723421 15.0672164,11.2468222 14.9166923,11.1973407 C14.1737537,10.9520211 13.7441871,10.1767965 13.9300403,9.41676295 C14.1158936,8.65672936 14.8547231,8.1672455 15.627024,8.29248991 C16.3993249,8.41773432 16.9456168,9.11562693 16.8817768,9.89544746 C16.8179368,10.675268 16.1654141,11.2750096 15.3830273,11.2729664 Z" id="Shape" fill="#000000" fill-rule="nonzero"></path>
            <path d="M10.6555491,13.3387932 C10.0897856,13.3380734 9.57166716,13.023951 9.31235911,12.5244503 C8.93165305,11.7939463 9.21265044,10.8951439 9.94296475,10.5073858 C10.6783527,10.1292081 11.5831643,10.4083393 11.9735149,11.1338034 C12.2161581,11.5987274 12.1966105,12.1558005 11.9219678,12.6028134 C11.647325,13.0498263 11.1575125,13.3217957 10.6303249,13.3200006 L10.6555491,13.3387932 Z" id="Shape" fill="#000000" fill-rule="nonzero"></path>
            <path d="M6.8407196,17.2998895 C6.68227307,17.2992652 6.52490875,17.2737453 6.3743846,17.2242637 C5.63144604,16.9789441 5.20187939,16.2037196 5.38773264,15.443686 C5.5735859,14.6836524 6.31241542,14.1941686 7.08471632,14.319413 C7.85701722,14.4446574 8.40330909,15.14255 8.33946907,15.9223705 C8.27562906,16.7021911 7.62310637,17.3019327 6.8407196,17.2998895 Z" id="Shape" fill="#000000" fill-rule="nonzero"></path>
            <path d="M26.3807692,30 C26.0762398,30.0002081 25.8002574,29.8207441 25.6769231,29.5423077 L21.1538462,19.4 C20,16.7884615 19.7923077,13.8076923 20.6269231,11.4230769 C20.7121136,11.1846703 20.9091584,11.0034466 21.1538462,10.9384615 L23.2192308,10.3461538 C23.458804,10.2774258 23.7168278,10.3290306 23.9115385,10.4846154 C25.8769231,12.0653846 27.2884615,14.7153846 27.6807692,17.5346154 L29.2192308,28.5307692 C29.2723916,28.9104741 29.0378189,29.2713551 28.6692308,29.3769231 L26.6038462,29.9692308 C26.5313992,29.9903747 26.456235,30.0007422 26.3807692,30 Z M21.9692308,12.3076923 C21.4215417,14.4691099 21.6333742,16.7530995 22.5692308,18.7769231 L26.8,28.3115385 L27.5692308,28.0884615 L26.1538462,17.75 C25.8818582,15.5307968 24.8536591,13.4730405 23.2423077,11.9230769 L21.9692308,12.3076923 Z" id="Shape" fill="#000000" fill-rule="nonzero"></path>
            <path d="M20.65,9.16923077 C20.5636092,9.1694828 20.4777931,9.15518013 20.3961538,9.12692308 C18.7423077,8.54615385 17.6076923,6.30769231 17.9692308,4.33461538 L18.6307692,0.715384615 C18.6814436,0.426193858 18.8923148,0.191068556 19.1743048,0.109332318 C19.4562948,0.0275960798 19.7602195,0.113505202 19.9576923,0.330769231 L22.4346154,3.05384615 C23.7846154,4.53846154 24.0038462,7.03846154 22.9076923,8.40769231 C22.808991,8.5310473 22.6747023,8.62102076 22.5230769,8.66538462 L20.8692308,9.13846154 C20.7980197,9.15923483 20.7241783,9.16959854 20.65,9.16923077 Z" id="Shape" fill="#000000" fill-rule="nonzero"></path>
        </g>
    </g>
</svg>