<?xml version="1.0" encoding="UTF-8" standalone="no"?>
<svg width="30px" height="30px" viewBox="0 0 30 30" version="1.1" xmlns="http://www.w3.org/2000/svg" xmlns:xlink="http://www.w3.org/1999/xlink">
    <!-- Generator: Sketch 48.2 (47327) - http://www.bohemiancoding.com/sketch -->
    <title>Icon/Competitions/Hackathon</title>
    <desc>Created with Sketch.</desc>
    <defs></defs>
    <g id="Symbols" stroke="none" stroke-width="1" fill="none" fill-rule="evenodd">
        <g id="Icon/Competitions/Hackathon">
            <g id="Competitions---Hackathon">
                <polygon id="Shape" fill="#000000" fill-rule="nonzero" points="9.5832 21.484375 9.5832 24.0884375 11.25 24.0884375 18.75 24.0884375 20.4168 24.0884375 20.4168 21.484375"></polygon>
                <path d="M13.7499,17.578125 C13.7499,17.338125 13.5636,17.1440625 13.3332,17.1440625 C13.1493,17.1440625 12.9981,17.2696875 12.9429,17.4421875 L12.9378,17.440625 L12.1995,19.748125 L9.9999,19.748125 C9.7695,19.748125 9.5832,19.9421875 9.5832,20.1821875 C9.5832,20.4221875 9.7695,20.61625 9.9999,20.61625 L12.8001,20.61625 L13.7283,17.715625 L13.7232,17.71375 C13.7379,17.670625 13.7499,17.62625 13.7499,17.578125 Z" id="Shape" fill="#000000" fill-rule="nonzero"></path>
                <g id="Group" transform="translate(0.000000, 10.312500)" fill="#000000" fill-rule="nonzero">
                    <path d="M10.8333,6.8315625 L7.2438,6.8315625 L6.1929,3.8365625 L6.1872,3.83875 C6.0279,3.3109375 5.5599,2.925 5.0001,2.925 C4.7991,2.925 4.6116,2.979375 4.4433,3.0671875 L4.4412,3.0628125 C1.5771,4.554375 0,7.896875 0,12.4740625 C0,13.193125 0.5595,13.7759375 1.2501,13.7759375 L5.0001,13.7759375 L5.0001,18.11625 C5.0001,18.835625 5.5596,19.4184375 6.2502,19.4184375 C6.9408,19.4184375 7.5,18.8353125 7.5,18.11625 L7.5,12.4740625 C7.5,11.7546875 6.9405,11.171875 6.2499,11.171875 L2.553,11.171875 C2.7048,9.3003125 3.2352,7.28125 4.6419,6.029375 L5.9214,8.0878125 L5.9244,8.08625 C6.0615,8.370625 6.3408,8.5678125 6.6669,8.5678125 L10.8336,8.5678125 C11.2938,8.5678125 11.6667,8.1790625 11.6667,7.6996875 C11.6667,7.2203125 11.2935,6.8315625 10.8333,6.8315625 Z" id="Shape"></path>
                    <ellipse id="Oval" cx="8.3334" cy="2.0571875" rx="1.875" ry="1.953125"></ellipse>
                </g>
                <path d="M20.0001,19.748125 L17.8002,19.748125 L17.0619,17.440625 L17.0571,17.4421875 C17.0016,17.2696875 16.8507,17.1440625 16.6665,17.1440625 C16.4361,17.1440625 16.2498,17.338125 16.2498,17.578125 C16.2498,17.62625 16.2618,17.670625 16.2762,17.71375 L16.2711,17.715625 L17.1993,20.61625 L19.9998,20.61625 C20.2302,20.61625 20.4165,20.4221875 20.4165,20.1821875 C20.4165,19.9421875 20.2305,19.748125 20.0001,19.748125 Z" id="Shape" fill="#000000" fill-rule="nonzero"></path>
                <ellipse id="Oval" fill="#000000" fill-rule="nonzero" cx="21.6669" cy="12.3696875" rx="1.875" ry="1.953125"></ellipse>
                <path d="M25.5591,13.3753125 L25.557,13.3796875 C25.3884,13.291875 25.2006,13.2375 24.9999,13.2375 C24.4407,13.2375 23.9721,13.623125 23.8131,14.15125 L23.8071,14.1490625 L22.7562,17.1440625 L19.1667,17.1440625 C18.7065,17.1440625 18.3336,17.5325 18.3336,18.011875 C18.3336,18.49125 18.7065,18.88 19.1667,18.88 L23.3334,18.88 C23.6595,18.88 23.9391,18.6828125 24.0762,18.3984375 L24.0792,18.4 L25.359,16.3415625 C26.7654,17.5934375 27.2958,19.6125 27.4476,21.4840625 L23.7501,21.4840625 C23.0595,21.4840625 22.5,22.066875 22.5,22.78625 L22.5,28.4284375 C22.5,29.1478125 23.0595,29.730625 23.7501,29.730625 C24.4407,29.730625 24.9999,29.1478125 24.9999,28.4284375 L24.9999,24.0884375 L28.7499,24.0884375 C29.4405,24.0884375 30,23.505625 30,22.7865625 C30,18.209375 28.4229,14.866875 25.5591,13.3753125 Z" id="Shape" fill="#000000" fill-rule="nonzero"></path>
                <path d="M15,9.1146875 C12.5874,9.1146875 10.6251,7.0703125 10.6251,4.5575 C10.6251,2.0446875 12.5874,0 15,0 C17.4126,0 19.3749,2.044375 19.3749,4.5571875 C19.3749,7.07 17.4126,9.1146875 15,9.1146875 Z" id="Shape" fill="#000000" fill-rule="nonzero"></path>
                <path d="M15,0.868125 C13.0473,0.868125 11.4582,2.5228125 11.4582,4.5571875 C11.4582,6.5915625 13.0473,8.2465625 15,8.2465625 C16.9527,8.2465625 18.5418,6.5915625 18.5418,4.5571875 C18.5418,2.5228125 16.9527,0.868125 15,0.868125 Z" id="Path" fill="#FFFFFF"></path>
                <path d="M17.0832,2.82125 C17.0832,2.58125 16.8969,2.3871875 16.6665,2.3871875 C16.5507,2.3871875 16.4469,2.43625 16.3716,2.515 L15.4164,3.5096875 L15.4164,1.953125 C15.4164,1.713125 15.2301,1.5190625 14.9997,1.5190625 C14.7693,1.5190625 14.583,1.7134375 14.583,1.953125 L14.583,4.5571875 C14.583,4.7971875 14.7693,4.99125 14.9997,4.99125 C15.1152,4.99125 15.2193,4.9421875 15.2946,4.8634375 L16.9605,3.12875 C17.0364,3.05 17.0832,2.94125 17.0832,2.82125 Z" id="Shape" fill="#000000" fill-rule="nonzero"></path>
            </g>
        </g>
    </g>
</svg>