<?xml version="1.0" encoding="UTF-8" standalone="no"?>
<svg width="30px" height="30px" viewBox="0 0 30 30" version="1.1" xmlns="http://www.w3.org/2000/svg" xmlns:xlink="http://www.w3.org/1999/xlink">
    <!-- Generator: Sketch 48.2 (47327) - http://www.bohemiancoding.com/sketch -->
    <title>Icon/Competitions/Science</title>
    <desc>Created with Sketch.</desc>
    <defs></defs>
    <g id="Symbols" stroke="none" stroke-width="1" fill="none" fill-rule="evenodd">
        <g id="Icon/Competitions/Science" fill="#000000">
            <path d="M26.625,15 C29.4,17.8295455 30.5625,20.625 29.3625,22.5 C28.9875,23.1136364 28.35,23.5909091 27.5625,23.9318182 C27.5625,23.5568182 27.45,23.2159091 27.3,22.9090909 C27.7875,22.6704545 28.1625,22.3636364 28.425,21.9886364 C29.3625,20.5227273 28.275,18.2045455 25.9125,15.75 C24.825,16.7727273 23.55,17.7613636 22.1625,18.6818182 C21.975,20.2840909 21.675,21.7840909 21.2625,23.1136364 C21.675,23.1818182 22.0875,23.25 22.4625,23.3181818 C22.3875,23.5227273 22.35,23.7272727 22.35,23.9659091 C22.35,24.1022727 22.35,24.2386364 22.3875,24.3409091 C21.9,24.2727273 21.4125,24.2045455 20.925,24.1022727 C19.5375,27.7159091 17.475,30 15.075,30 C12.675,30 10.6125,27.7159091 9.3,24.1022727 C8.775,24.2045455 8.25,24.2727273 7.7625,24.3409091 C7.0875,24.4090909 6.45,24.4431818 5.85,24.4431818 C3.375,24.4431818 1.6125,23.7613636 0.7875,22.5 C0.3375,21.7840909 0.225,20.9318182 0.4125,20.0113636 C0.7125,20.2159091 1.0875,20.3522727 1.5,20.3522727 C1.425,20.9659091 1.5,21.5454545 1.8,21.9886364 C2.55,23.1818182 4.6875,23.6590909 7.65,23.3181818 C8.1,23.25 8.55,23.1818182 9,23.1136364 C8.5875,21.7840909 8.2875,20.2840909 8.1,18.6818182 C6.675,17.7613636 5.4375,16.7727273 4.3125,15.75 C4.0125,16.0568182 3.7125,16.3977273 3.45,16.7045455 C3.4125,16.7727273 3.375,16.8068182 3.3,16.875 C3.075,16.6704545 2.8125,16.5340909 2.55,16.4318182 C2.5125,16.3295455 2.5125,16.2954545 2.475,16.1931818 C2.8125,15.7840909 3.15,15.4090909 3.525,15 C3.15,14.625 2.8125,14.2840909 2.5125,13.9090909 C0.375,11.3522727 -0.225,9.10227273 0.7875,7.5 C1.8,5.89772727 4.275,5.25 7.7625,5.65909091 C8.25,5.72727273 8.775,5.79545455 9.3,5.89772727 C10.575,2.28409091 12.675,0 15.075,0 C15.675,0 16.275,0.136363636 16.8375,0.443181818 C16.5,0.647727273 16.2375,0.920454545 16.0125,1.19318182 C15.7125,1.09090909 15.375,1.02272727 15.075,1.02272727 C13.2375,1.02272727 11.5125,3.03409091 10.3875,6.13636364 C11.8875,6.47727273 13.4625,6.98863636 15.075,7.63636364 C16.65,6.98863636 18.2625,6.47727273 19.7625,6.13636364 C19.65,5.86363636 19.5375,5.55681818 19.425,5.28409091 C19.8,5.18181818 20.1375,5.01136364 20.4375,4.80681818 C20.5875,5.14772727 20.7375,5.52272727 20.8875,5.89772727 C21.4125,5.79545455 21.9375,5.72727273 22.425,5.65909091 C25.9125,5.25 28.3875,5.89772727 29.4,7.5 C30.4125,9.10227273 29.8125,11.3522727 27.675,13.9090909 C27.3375,14.25 27,14.625 26.625,15 Z M21.1875,6.88636364 C21.6,8.21590909 21.9,9.71590909 22.0875,11.3181818 C23.5125,12.2727273 24.7875,13.2613636 25.875,14.25 C26.175,13.9431818 26.475,13.6022727 26.7375,13.2954545 C28.5375,11.1477273 29.1375,9.20454545 28.3875,8.01136364 C27.7875,7.05681818 26.325,6.57954545 24.3,6.57954545 C23.775,6.57954545 23.175,6.61363636 22.5375,6.68181818 C22.0875,6.71590909 21.6375,6.78409091 21.1875,6.88636364 Z M16.425,8.21590909 C17.175,8.55681818 17.925,8.93181818 18.675,9.30681818 C19.425,9.71590909 20.1375,10.0909091 20.8125,10.5340909 C20.625,9.30681818 20.3625,8.18181818 20.0625,7.125 C18.9,7.39772727 17.6625,7.73863636 16.425,8.21590909 Z M21,11.8636364 C20.1,11.2840909 19.125,10.7045455 18.1125,10.1590909 C17.1,9.61363636 16.0875,9.13636364 15.075,8.72727273 C14.0625,9.13636364 13.05,9.64772727 12.0375,10.1590909 C11.025,10.7045455 10.05,11.25 9.15,11.8295455 C9.0375,12.8522727 9,13.875 9,14.9659091 C9,16.0227273 9.075,17.0795455 9.15,18.1022727 C10.05,18.6818182 11.025,19.2613636 12.0375,19.7727273 C13.05,20.3181818 14.0625,20.7954545 15.075,21.2045455 C16.0875,20.7954545 17.1,20.2840909 18.1125,19.7727273 C19.125,19.2272727 20.1,18.6818182 21,18.1022727 C21.1125,17.0795455 21.15,16.0568182 21.15,14.9659091 C21.1875,13.9431818 21.1125,12.8863636 21,11.8636364 Z M10.05,7.09090909 C9.7125,8.14772727 9.4875,9.27272727 9.3,10.5 C9.975,10.0909091 10.725,9.68181818 11.4375,9.27272727 C12.1875,8.89772727 12.9375,8.52272727 13.6875,8.18181818 C12.45,7.73863636 11.25,7.36363636 10.05,7.09090909 Z M3.4125,13.2954545 C3.675,13.6022727 3.975,13.9431818 4.275,14.25 C5.3625,13.2272727 6.6375,12.2386364 8.0625,11.3181818 C8.25,9.71590909 8.55,8.21590909 8.9625,6.88636364 C8.5125,6.78409091 8.0625,6.71590909 7.6125,6.68181818 C6.975,6.61363636 6.4125,6.57954545 5.85,6.57954545 C3.825,6.57954545 2.3625,7.09090909 1.7625,8.01136364 C0.975,9.20454545 1.575,11.1136364 3.4125,13.2954545 Z M7.9125,17.3181818 C7.875,16.5681818 7.8375,15.7840909 7.8375,15 C7.8375,14.2159091 7.875,13.4318182 7.9125,12.6818182 C6.8625,13.4318182 5.8875,14.2159091 5.025,15 C5.8875,15.7840909 6.8625,16.5681818 7.9125,17.3181818 Z M10.05,22.9090909 C11.2125,22.6363636 12.45,22.2613636 13.6875,21.8181818 C12.9375,21.4772727 12.1875,21.1022727 11.4375,20.7272727 C10.6875,20.3522727 9.975,19.9431818 9.3,19.5 C9.4875,20.6931818 9.75,21.8522727 10.05,22.9090909 Z M19.7625,23.8636364 C18.2625,23.5227273 16.6875,23.0113636 15.075,22.3636364 C13.4625,23.0113636 11.8875,23.5227273 10.3875,23.8636364 C11.5125,26.9659091 13.2,28.9772727 15.075,28.9772727 C16.9125,28.9772727 18.6,26.9659091 19.7625,23.8636364 Z M20.85,19.4659091 C20.175,19.875 19.425,20.2840909 18.7125,20.6931818 C17.9625,21.0681818 17.2125,21.4431818 16.4625,21.7840909 C17.7,22.2272727 18.9375,22.6022727 20.1,22.875 C20.4,21.8522727 20.6625,20.6931818 20.85,19.4659091 Z M25.0875,15 C24.2625,14.2159091 23.2875,13.4318182 22.2,12.6818182 C22.2375,13.4318182 22.275,14.2159091 22.275,15 C22.275,15.7840909 22.2375,16.5681818 22.2,17.3181818 C23.2875,16.5681818 24.225,15.7840909 25.0875,15 Z" id="Shape" fill-rule="nonzero"></path>
            <path d="M16.35,3.13636364 C15.975,1.63636364 17.4,0.340909091 19.05,0.681818182 C19.875,0.852272727 20.55,1.46590909 20.7375,2.21590909 C21.1125,3.71590909 19.6875,5.01136364 18.0375,4.67045455 C17.2125,4.5 16.5375,3.88636364 16.35,3.13636364 Z" id="Path"></path>
            <path d="M25.2,22.2613636 C23.925,22.0909091 22.875,23.0795455 23.0625,24.2045455 C23.175,24.9204545 23.8125,25.5 24.6,25.6022727 C25.875,25.7727273 26.925,24.7840909 26.7375,23.6590909 C26.6625,22.9772727 25.9875,22.3636364 25.2,22.2613636 Z" id="Path"></path>
            <path d="M15.075,12.4431818 C13.5375,12.4431818 12.2625,13.6022727 12.2625,15 C12.2625,16.3977273 13.5375,17.5568182 15.075,17.5568182 C16.6125,17.5568182 17.8875,16.3977273 17.8875,15 C17.8875,13.6022727 16.6125,12.4431818 15.075,12.4431818 Z" id="Path"></path>
            <path d="M1.425,19.6704545 C2.4375,19.8068182 3.3,19.0227273 3.15,18.1022727 C3.0375,17.5227273 2.55,17.0454545 1.9125,16.9772727 C0.9,16.8409091 0.0375,17.625 0.1875,18.5454545 C0.3,19.125 0.7875,19.5681818 1.425,19.6704545 Z" id="Path"></path>
        </g>
    </g>
</svg>