<?xml version="1.0" encoding="UTF-8" standalone="no"?>
<svg width="60px" height="60px" viewBox="0 0 60 60" version="1.1" xmlns="http://www.w3.org/2000/svg" xmlns:xlink="http://www.w3.org/1999/xlink">
    <!-- Generator: Sketch 48.2 (47327) - http://www.bohemiancoding.com/sketch -->
    <title>Icon/Competitions/Spelling Bee Large</title>
    <desc>Created with Sketch.</desc>
    <defs></defs>
    <g id="Symbols" stroke="none" stroke-width="1" fill="none" fill-rule="evenodd">
        <g id="Icon/Competitions/Spelling-Bee-Large">
            <g id="Icon/Competitions/Spelling-Bee">
                <path d="M58.723481,19.8894647 C56.9279062,18.1690954 54.2692168,17.3857727 51.8926218,16.8711323 C48.7491877,16.1900693 45.4906268,15.9908968 42.2818869,16.16935 C42.132424,13.4009859 41.4214653,10.8311259 40.2883748,8.65025378 C38.6981432,6.31298449 36.8453416,4.53647268 34.8121074,3.4597381 L35.3163764,2.57749748 C35.4732451,2.30480492 35.832764,2.20789212 36.1061061,2.36228423 L40.0116664,4.5658807 L42.6521779,4.5658807 C42.5451302,4.11206147 42.4326963,3.66425752 42.3128567,3.22447393 L37.2499687,0.367885728 C35.879892,-0.405411547 34.0849905,0.0858360736 33.3067061,1.44462031 L32.6428753,2.60356368 C31.9399956,2.41642173 30.0144824,2.24131033 30.0010173,2.24131033 C29.9875521,2.24131033 28.0613656,2.41642173 27.3591592,2.60356368 L26.6926354,1.44395195 C25.9156975,0.0851677095 24.1194495,-0.406748276 22.7507193,0.367217364 L17.687158,3.22380557 C17.5673184,3.66425752 17.4555578,4.11139311 17.3485101,4.56521234 L19.9896949,4.56521234 L23.8939086,2.36161587 C24.1685972,2.20722376 24.5267696,2.30413656 24.6843116,2.57682911 L25.1885806,3.45906974 C23.1546731,4.53580432 21.3025448,6.31298449 19.7123132,8.64958542 C18.5792227,10.8304575 17.868264,13.4003175 17.7188011,16.1686817 C14.5087147,15.9902284 11.2515003,16.1900693 8.10739298,16.870464 C5.73214447,17.3857727 3.0721085,18.1684271 1.27653373,19.8887963 C-0.159522127,21.2629529 -0.477299139,23.2713871 0.804581011,24.8694456 C2.44665333,26.9166449 8.77459006,28.5401013 9.2276916,28.620305 C7.7290229,29.805983 6.30373914,31.1219919 5.13092652,32.6318264 C4.2422281,33.7753974 3.414796,35.1081154 3.22157142,36.5658176 C3.07816781,37.6378736 3.37642039,38.7279755 4.15672453,39.5019411 C5.19219285,40.52788 6.75616742,40.7912155 8.16192675,40.7912155 C10.3385646,40.7905471 12.5084699,40.2217693 14.5484368,39.5086247 C15.1106059,42.9787712 16.0329671,46.4188413 17.4885474,49.6289941 C18.8296741,52.5838318 20.6555454,55.4564608 23.2152662,57.516359 C25.3037075,59.1972947 27.8136073,59.9772756 29.9592754,59.9966582 L29.9592754,60 C29.9734137,60 29.9862056,59.9979949 30.0010173,59.9979949 C30.0144824,59.9979949 30.0279475,60 30.0420859,60 L30.0420859,59.9966582 C32.1870807,59.9772756 34.6969805,59.1972947 36.7854218,57.516359 C39.3458158,55.4564608 41.1716871,52.5838318 42.5134871,49.6289941 C43.9683941,46.4188413 44.8907554,42.9794396 45.4522512,39.5086247 C47.4928913,40.2217693 49.6621234,40.7905471 51.8401078,40.7912155 C53.2445206,40.7912155 54.8091684,40.52788 55.8439635,39.5019411 C56.6242676,38.7286438 56.9231934,37.638542 56.7797898,36.5658176 C56.5872385,35.1081154 55.7584599,33.7753974 54.8697615,32.6318264 C53.6976221,31.1219919 52.2723384,29.805983 50.7736696,28.620305 C51.2274445,28.539433 57.5533614,26.9166449 59.196107,24.8694456 C60.4779871,23.2713871 60.1581904,21.2629529 58.723481,19.8894647 Z M21.4116123,10.3960208 C23.721555,6.7895281 26.8959588,4.41817224 30.000344,4.39544786 C33.1033827,4.41750387 36.2777865,6.7895281 38.5884024,10.3960208 C39.3781321,12.158497 39.8709558,14.1943341 39.9780036,16.3718643 C38.1245288,16.5924245 36.27644,16.9479942 34.5010629,17.5308077 C32.8872674,18.0621572 31.2047997,18.7906741 29.9996707,20.0224691 C28.7952151,18.7906741 27.1120741,18.0621572 25.4969321,17.5308077 C23.7222282,16.9479942 21.8741395,16.5924245 20.0206647,16.3718643 C20.1283857,14.1936657 20.6212093,12.158497 21.4116123,10.3960208 Z M28.9574699,29.9924565 C29.2900585,29.5874279 29.7222891,28.9711962 30.000344,28.5514635 C30.2777256,28.9711962 30.7106295,29.5874279 31.0425449,29.9924565 L28.9574699,29.9924565 Z M7.3816226,25.8452572 C6.08829709,25.5170905 4.80305066,24.9890828 3.68207879,24.2284845 C3.12596901,23.849522 2.31065554,23.2326219 2.31806136,22.4506359 C2.33152648,21.1339586 4.32975142,20.2864729 5.26355803,19.8908014 C7.76874502,18.8281025 10.5324625,18.4130483 13.2194287,18.2720235 C16.5695524,18.0962437 20.0146053,18.3415334 23.2549883,19.275238 C24.6876779,19.686282 26.1890396,20.2269885 27.3854162,21.1693819 C27.8526561,21.5389873 28.4996555,22.1391783 28.4067461,22.8209096 C28.3064309,23.5427429 27.5867199,24.0794393 27.0393624,24.4343406 C25.5211693,25.4188409 23.726941,25.9448435 21.9872465,26.3104387 C20.06106,26.7141306 17.7282267,26.9320173 16.1292428,26.9166449 C12.5306874,26.8825583 8.61906783,26.15872 7.3816226,25.8452572 Z M8.16125349,38.4953848 C7.3075644,38.4953848 5.66616534,38.413176 5.50929661,37.3043599 C5.40830815,36.5785165 5.80350964,35.808561 6.15831576,35.2023548 C7.6394798,32.665913 10.1291819,30.668841 12.5313607,29.0393693 C15.3307607,29.2619346 18.1577642,29.1850727 20.9369666,28.7773706 C23.5512211,28.3937296 26.2994537,27.7641306 28.5683277,26.3659129 C27.9684562,27.7534368 25.6625531,30.0993948 25.6807311,30.1535323 C23.2913442,32.4674088 20.4353906,34.2960531 17.4622904,35.7798214 C14.6426927,37.1880646 11.3679736,38.4953848 8.16125349,38.4953848 Z M38.8260619,51.5111074 L21.1726063,51.5111074 C20.5969721,50.5707191 20.0617333,49.5354231 19.5682364,48.4279438 L40.4304319,48.4279438 C39.9369349,49.5354231 39.4023694,50.5707191 38.8260619,51.5111074 Z M42.8353037,40.751782 L17.1640378,40.751782 C17.0219807,40.05802 16.8927155,39.3508908 16.7809549,38.631731 C17.4636369,38.3369825 18.1517049,38.0168361 18.8404462,37.6672816 L41.1588953,37.6672816 C41.8476365,38.0168361 42.5357046,38.3369825 43.2183865,38.631731 C43.106626,39.3515592 42.9773608,40.05802 42.8353037,40.751782 Z M53.841699,35.2030231 C54.1951586,35.808561 54.5910333,36.5791849 54.4900449,37.3050283 C54.3338494,38.4138443 52.6917771,38.4960531 51.8387612,38.4960531 C48.6313678,38.4960531 45.3559755,37.1887329 42.5370511,35.7804897 C39.5639509,34.2967214 36.7086706,32.4680772 34.3199569,30.1542007 C34.3374616,30.1000632 32.0322318,27.7541051 31.4310138,26.3665812 C33.6998878,27.7654673 36.4481204,28.3950663 39.0630481,28.778039 C41.8415772,29.1857411 44.669254,29.2626029 47.4693273,29.0400377 C49.8701596,30.6695094 52.3598617,32.6665814 53.841699,35.2030231 Z M56.3165894,24.2278161 C55.1962908,24.9884145 53.9110444,25.5170905 52.6183921,25.8445889 C51.3796004,26.15872 47.4693273,26.88189 43.8700987,26.9166449 C42.2711148,26.9313489 39.939628,26.7141306 38.0120949,26.3104387 C36.2724004,25.9448435 34.4788454,25.4188409 32.959979,24.4343406 C32.4126216,24.0794393 31.6935838,23.5427429 31.5925953,22.8209096 C31.4990127,22.1385099 32.1460121,21.5389873 32.6145985,21.1693819 C33.8096286,20.2263202 35.3116636,19.686282 36.7450264,19.275238 C39.9860826,18.3415334 43.4304623,18.0962437 46.7805861,18.2720235 C49.466879,18.4130483 52.231943,18.8281025 54.7364567,19.8908014 C55.6702633,20.2864729 57.667815,21.1339586 57.6812801,22.4506359 C57.6880127,23.2319536 56.8726992,23.8488536 56.3165894,24.2278161 Z" id="Shape" fill="#000000" fill-rule="nonzero"></path>
                <path d="M33.2238956,32.2876189 L33.24342,32.2876189 C34.4781722,33.4218328 35.824685,34.4417564 37.2196722,35.3721193 L22.7783228,35.3721193 C24.1739833,34.4410881 25.5198228,33.4218328 26.754575,32.2876189 L26.7740994,32.2876189 L33.2238956,32.2876189 Z" id="Path" fill="#FDE966"></path>
                <path d="M29.9996707,57.7048376 C27.4897709,57.6894653 24.8411803,56.2578293 22.8039065,53.8076065 L37.1940884,53.8076065 C35.1574879,56.2578293 32.5088973,57.6887969 29.9996707,57.7048376 Z" id="Path" fill="#FDE966"></path>
                <path d="M41.3480803,46.1314447 L18.6512612,46.1314447 C18.2998213,45.1482811 17.9827176,44.1169953 17.7012964,43.0476127 L42.2987183,43.0476127 C42.0172972,44.1176637 41.6988469,45.1489495 41.3480803,46.1314447 Z" id="Path" fill="#FDE966"></path>
            </g>
        </g>
    </g>
</svg>