<?xml version="1.0" encoding="UTF-8" standalone="no"?>
<svg width="60px" height="60px" viewBox="0 0 60 60" version="1.1" xmlns="http://www.w3.org/2000/svg" xmlns:xlink="http://www.w3.org/1999/xlink">
    <!-- Generator: Sketch 48.2 (47327) - http://www.bohemiancoding.com/sketch -->
    <title>Icon/Competitions/Tech Large</title>
    <desc>Created with Sketch.</desc>
    <defs></defs>
    <g id="Symbols" stroke="none" stroke-width="1" fill="none" fill-rule="evenodd">
        <g id="Icon/Competitions/Tech-Large">
            <rect id="Rectangle-9" stroke="#000000" stroke-width="1.5" x="8.75" y="6.75" width="42.5" height="34.5" rx="3"></rect>
            <path d="M23.2637322,46.75 L1,46.75 C0.861928813,46.75 0.75,46.8619288 0.75,47 L0.75,53 C0.75,53.1380712 0.861928813,53.25 1,53.25 L59,53.25 C59.1380712,53.25 59.25,53.1380712 59.25,53 L59.25,47 C59.25,46.8619288 59.1380712,46.75 59,46.75 L36.7362678,46.75 C36.6119067,47.8749876 35.6581384,48.75 34.5,48.75 L25.5,48.75 C24.3418616,48.75 23.3880933,47.8749876 23.2637322,46.75 Z" id="Combined-Shape" stroke="#000000" stroke-width="1.5"></path>
            <polygon id="Triangle-2" fill="#89D3B3" points="26 17 35 32 17 32"></polygon>
            <polygon id="Triangle-3" fill="#89D3B3" points="37 22 44 32 30 32"></polygon>
        </g>
    </g>
</svg>