<?xml version="1.0" encoding="UTF-8" standalone="no"?>
<svg width="30px" height="30px" viewBox="0 0 30 30" version="1.1" xmlns="http://www.w3.org/2000/svg" xmlns:xlink="http://www.w3.org/1999/xlink">
    <!-- Generator: Sketch 48.2 (47327) - http://www.bohemiancoding.com/sketch -->
    <title>Icon/Navigation/Compose Message</title>
    <desc>Created with Sketch.</desc>
    <defs></defs>
    <g id="Symbols" stroke="none" stroke-width="1" fill="none" fill-rule="evenodd">
        <g id="Icon/Navigation/Compose-Message">
            <rect id="Background" x="0" y="0" width="30" height="30"></rect>
            <rect id="Rectangle" stroke="#000000" stroke-width="2" x="1" y="4" width="25" height="25" rx="4"></rect>
            <rect id="Rectangle-2" fill="#FFFFFF" x="16" y="2" width="12" height="12"></rect>
            <path d="M29.4741894,2.24032977 C30.1752702,2.96967403 30.1752702,4.12438234 29.4741894,4.8537266 L27.6406188,6.66223696 L13.3239017,20.9912036 C13.2082919,21.1026906 13.0642551,21.1800531 12.9076317,21.2147832 L7.95203559,22.9686407 C7.88057778,22.9940158 7.80462655,23.0041689 7.72903377,22.9984514 C7.5352719,23.0060216 7.34640483,22.9363527 7.20374058,22.8046824 C7.01720365,22.603123 6.95288074,22.3167135 7.03525032,22.0544487 L8.85890968,16.9568344 L8.88864325,16.9021816 C8.91753403,16.8222142 8.96315547,16.7493696 9.02244435,16.6885389 L25.172732,0.541124989 C25.8926068,-0.180374996 27.0595007,-0.180374996 27.7793755,0.541124989 L29.4741894,2.24032977 Z M9.83020651,18.516923 L8.91342123,21.1054776 L11.4952868,20.1664434 L9.83020651,18.516923 Z M23.8446322,3.93456612 L10.5487679,17.1853824 L12.8233865,19.4410519 L26.0895173,6.19023563 L23.8446322,3.93456612 Z M28.4533366,3.82526055 C28.5932772,3.665114 28.5845891,3.42339659 28.4335142,3.27376426 L26.7387003,1.57455948 C26.579844,1.43508086 26.3425299,1.43508086 26.1836736,1.57455948 L24.8506182,2.9110685 L27.1004589,5.16673801 L28.4533366,3.82526055 Z" id="Shape" fill="#000000" fill-rule="nonzero"></path>
        </g>
    </g>
</svg>