<?xml version="1.0" encoding="UTF-8" standalone="no"?>
<svg width="20px" height="20px" viewBox="0 0 20 20" version="1.1" xmlns="http://www.w3.org/2000/svg" xmlns:xlink="http://www.w3.org/1999/xlink">
    <!-- Generator: Sketch 48.2 (47327) - http://www.bohemiancoding.com/sketch -->
    <title>Icon/Navigation/Search</title>
    <desc>Created with Sketch.</desc>
    <defs></defs>
    <g id="Symbols" stroke="none" stroke-width="1" fill="none" fill-rule="evenodd">
        <g id="Icon/Navigation/Search" fill="#F79975">
            <path d="M9.81328964,14.4319638 C6.40969771,13.9451587 3.79010089,10.9512587 3.79010089,7.3306062 C3.79010089,3.37038374 6.92410765,0.159989111 10.7901009,0.159989111 C14.6560941,0.159989111 17.7901009,3.37038374 17.7901009,7.3306062 C17.7901009,10.8441344 15.323223,13.7674489 12.0669122,14.3822191 L12.0669122,20.1597206 L9.81328964,20.1597206 L9.81328964,14.4319638 Z M10.7901009,12.3500382 C13.4962962,12.3500382 15.6901009,10.1027619 15.6901009,7.3306062 C15.6901009,4.55845048 13.4962962,2.31117424 10.7901009,2.31117424 C8.08390562,2.31117424 5.89010089,4.55845048 5.89010089,7.3306062 C5.89010089,10.1027619 8.08390562,12.3500382 10.7901009,12.3500382 Z" id="Combined-Shape" transform="translate(10.790101, 10.159855) rotate(-40.000000) translate(-10.790101, -10.159855) "></path>
        </g>
    </g>
</svg>