<?xml version="1.0" encoding="UTF-8" standalone="no"?>
<svg width="24px" height="24px" viewBox="0 0 24 24" version="1.1" xmlns="http://www.w3.org/2000/svg" xmlns:xlink="http://www.w3.org/1999/xlink">
    <!-- Generator: Sketch 48.2 (47327) - http://www.bohemiancoding.com/sketch -->
    <title>Icon/Navigation/Info/White</title>
    <desc>Created with Sketch.</desc>
    <defs></defs>
    <g id="Symbols" stroke="none" stroke-width="1" fill="none" fill-rule="evenodd">
        <g id="Icon/Navigation/Info/White" fill="#FFFFFF" fill-rule="nonzero">
            <path d="M12,1.92 C17.5584,1.92 22.08,6.4416 22.08,12 C22.08,17.5584 17.5584,22.08 12,22.08 C6.4416,22.08 1.92,17.5584 1.92,12 C1.92,6.4416 6.4416,1.92 12,1.92 Z M12,0 C5.376,0 0,5.376 0,12 C0,18.624 5.376,24 12,24 C18.624,24 24,18.624 24,12 C24,5.376 18.624,0 12,0 Z" id="Shape"></path>
            <polygon id="Shape" points="12.9756375 17.758628 10.7025331 17.758628 10.7025331 15.7507191 10.7025331 11.1760966 12.9756375 11.1760966"></polygon>
            <circle id="Oval" cx="11.8390853" cy="7.22657769" r="1.75218463"></circle>
        </g>
    </g>
</svg>