<?xml version="1.0" encoding="UTF-8" standalone="no"?>
<svg width="60px" height="60px" viewBox="0 0 60 60" version="1.1" xmlns="http://www.w3.org/2000/svg" xmlns:xlink="http://www.w3.org/1999/xlink">
    <!-- Generator: Sketch 48.2 (47327) - http://www.bohemiancoding.com/sketch -->
    <title>Icon/Competitions/All Large</title>
    <desc>Created with Sketch.</desc>
    <defs></defs>
    <g id="Symbols" stroke="none" stroke-width="1" fill="none" fill-rule="evenodd">
        <g id="Icon/Competitions/All-Large">
            <g id="Icon/Competitions/All">
                <rect id="Background" x="0" y="0" width="60" height="60"></rect>
                <path d="M29.8660714,6.00348176 C29.6402428,6.04696292 29.4491584,6.19650721 29.3526786,6.40526747 L27.3883929,10.3338389 L22.7455357,11.0034818 C22.4713948,11.0379722 22.2417257,11.2274617 22.1557849,11.4900585 C22.0698442,11.7526552 22.1430442,12.0412655 22.34375,12.2311603 L25.6696429,15.5570532 L25,20.1775889 C24.9539763,20.4437904 25.0620579,20.7131828 25.2793067,20.873758 C25.4965555,21.0343332 25.7858029,21.0586188 26.0267857,20.9365175 L30,18.9499103 L33.9732143,20.9365175 C34.2141971,21.0586188 34.5034445,21.0343332 34.7206933,20.873758 C34.9379421,20.7131828 35.0460237,20.4437904 35,20.1775889 L34.3303571,15.5570532 L37.65625,12.2311603 C37.8569558,12.0412655 37.9301558,11.7526552 37.8442151,11.4900585 C37.7582743,11.2274617 37.5286052,11.0379722 37.2544643,11.0034818 L32.6116071,10.3338389 L30.6473214,6.40526747 C30.5173623,6.13450041 30.2319193,5.97393874 29.9330357,6.00348176 C29.9107266,6.00243497 29.8883806,6.00243497 29.8660714,6.00348176 Z M49.8660714,13.1463389 C49.6402428,13.1898201 49.4491584,13.3393644 49.3526786,13.5481246 L47.3883929,17.476696 L42.7455357,18.1463389 C42.4713948,18.1808293 42.2417257,18.3703189 42.1557849,18.6329156 C42.0698442,18.8955123 42.1430442,19.1841227 42.34375,19.3740175 L45.6696429,22.6999103 L45,27.320446 C44.9539763,27.5866476 45.0620579,27.8560399 45.2793067,28.0166151 C45.4965555,28.1771903 45.7858029,28.201476 46.0267857,28.0793746 L50,26.0927675 L53.9732143,28.0793746 C54.2141971,28.201476 54.5034445,28.1771903 54.7206933,28.0166151 C54.9379421,27.8560399 55.0460237,27.5866476 55,27.320446 L54.3303571,22.6999103 L57.65625,19.3740175 C57.8569558,19.1841227 57.9301558,18.8955123 57.8442151,18.6329156 C57.7582743,18.3703189 57.5286052,18.1808293 57.2544643,18.1463389 L52.6116071,17.476696 L50.6473214,13.5481246 C50.5173623,13.2773575 50.2319193,13.1167959 49.9330357,13.1463389 C49.9107266,13.1452921 49.8883806,13.1452921 49.8660714,13.1463389 Z M9.86607143,20.289196 C9.64024276,20.3326772 9.44915839,20.4822215 9.35267857,20.6909818 L7.38839286,24.6195532 L2.74553571,25.289196 C2.47139476,25.3236865 2.24172569,25.513176 2.15578494,25.7757727 C2.0698442,26.0383695 2.1430442,26.3269798 2.34375,26.5168746 L5.66964286,29.8427675 L5,34.4633032 C4.95397627,34.7295047 5.06205791,34.9988971 5.27930671,35.1594723 C5.49655551,35.3200475 5.78580295,35.3443331 6.02678571,35.2222318 L10,33.2356246 L13.9732143,35.2222318 C14.2141971,35.3443331 14.5034445,35.3200475 14.7206933,35.1594723 C14.9379421,34.9988971 15.0460237,34.7295047 15,34.4633032 L14.3303571,29.8427675 L17.65625,26.5168746 C17.8569558,26.3269798 17.9301558,26.0383695 17.8442151,25.7757727 C17.7582743,25.513176 17.5286052,25.3236865 17.2544643,25.289196 L12.6116071,24.6195532 L10.6473214,20.6909818 C10.5173623,20.4202147 10.2319193,20.259653 9.93303571,20.289196 C9.91072656,20.2881493 9.88838058,20.2881493 9.86607143,20.289196 Z M22.7232143,25.289196 C22.3817272,25.3543543 22.1367311,25.6558878 22.1428571,26.0034818 L22.1428571,51.7177675 L17.8571429,51.7177675 L17.8571429,40.289196 C17.8571034,39.8947233 17.5373299,39.5749498 17.1428571,39.5749103 L2.85714286,39.5749103 C2.46267009,39.5749498 2.14289658,39.8947233 2.14285714,40.289196 L2.14285714,51.7177675 L0,51.7177675 L0,53.1463389 L60,53.1463389 L60,51.7177675 L57.8571429,51.7177675 L57.8571429,33.1463389 C57.8571034,32.7518661 57.5373299,32.4320926 57.1428571,32.4320532 L42.8571429,32.4320532 C42.4626701,32.4320926 42.1428966,32.7518661 42.1428571,33.1463389 L42.1428571,51.7177675 L37.8571429,51.7177675 L37.8571429,26.0034818 C37.8571034,25.609009 37.5373299,25.2892355 37.1428571,25.289196 L22.8571429,25.289196 C22.8348337,25.2881493 22.8124877,25.2881493 22.7901786,25.289196 C22.7678694,25.2881493 22.7455234,25.2881493 22.7232143,25.289196 Z M23.5714286,26.7177675 L36.4285714,26.7177675 L36.4285714,51.3606246 L23.5714286,51.3606246 L23.5714286,26.7177675 Z M43.5714286,33.8606246 L56.4285714,33.8606246 L56.4285714,51.3606246 L43.5714286,51.3606246 L43.5714286,33.8606246 Z M3.57142857,41.0034818 L16.4285714,41.0034818 L16.4285714,51.3606246 L3.57142857,51.3606246 L3.57142857,41.0034818 Z" id="Shape" fill="#000000" fill-rule="nonzero"></path>
                <path d="M30,8.32491033 L31.4955357,11.3159818 C31.5963869,11.5304963 31.7970777,11.6810144 32.03125,11.7177675 L35.6026786,12.2311603 L33.0580357,14.7758032 C32.8936389,14.9392063 32.8187431,15.1722155 32.8571429,15.4008032 L33.3705357,19.039196 L30.3125,17.4990175 C30.1152194,17.4030457 29.8847806,17.4030457 29.6875,17.4990175 L26.6294643,19.039196 L27.1428571,15.4008032 C27.1812569,15.1722155 27.1063611,14.9392063 26.9419643,14.7758032 L24.3973214,12.2311603 L27.96875,11.7177675 C28.2029223,11.6810144 28.4036131,11.5304963 28.5044643,11.3159818 L30,8.32491033 Z" id="Path" fill="#FDE966"></path>
                <path d="M50,15.4677675 L51.4955357,18.4588389 C51.5963869,18.6733534 51.7970777,18.8238715 52.03125,18.8606246 L55.6026786,19.3740175 L53.0580357,21.9186603 C52.8936389,22.0820634 52.8187431,22.3150726 52.8571429,22.5436603 L53.3705357,26.1820532 L50.3125,24.6418746 C50.1152194,24.5459028 49.8847806,24.5459028 49.6875,24.6418746 L46.6294643,26.1820532 L47.1428571,22.5436603 C47.1812569,22.3150726 47.1063611,22.0820634 46.9419643,21.9186603 L44.3973214,19.3740175 L47.96875,18.8606246 C48.2029223,18.8238715 48.4036131,18.6733534 48.5044643,18.4588389 L50,15.4677675 Z" id="Path" fill="#FDE966"></path>
                <path d="M10,22.6106246 L11.4955357,25.601696 C11.5963869,25.8162105 11.7970777,25.9667287 12.03125,26.0034818 L15.6026786,26.5168746 L13.0580357,29.0615175 C12.8936389,29.2249206 12.8187431,29.4579298 12.8571429,29.6865175 L13.3705357,33.3249103 L10.3125,31.7847318 C10.1152194,31.68876 9.88478063,31.68876 9.6875,31.7847318 L6.62946429,33.3249103 L7.14285714,29.6865175 C7.18125686,29.4579298 7.10636105,29.2249206 6.94196429,29.0615175 L4.39732143,26.5168746 L7.96875,26.0034818 C8.20292226,25.9667287 8.40361307,25.8162105 8.50446429,25.601696 L10,22.6106246 Z" id="Path" fill="#FDE966"></path>
            </g>
        </g>
    </g>
</svg>