<?xml version="1.0" encoding="UTF-8" standalone="no"?>
<svg width="30px" height="30px" viewBox="0 0 30 30" version="1.1" xmlns="http://www.w3.org/2000/svg" xmlns:xlink="http://www.w3.org/1999/xlink">
    <!-- Generator: Sketch 48.2 (47327) - http://www.bohemiancoding.com/sketch -->
    <title>Icon/Competitions/All</title>
    <desc>Created with Sketch.</desc>
    <defs></defs>
    <g id="Symbols" stroke="none" stroke-width="1" fill="none" fill-rule="evenodd">
        <g id="Icon/Competitions/All">
            <rect id="Background" x="0" y="0" width="30" height="30"></rect>
            <path d="M14.9330357,3.00174088 C14.8201214,3.02348146 14.7245792,3.09825361 14.6763393,3.20263374 L13.6941964,5.16691945 L11.3727679,5.50174088 C11.2356974,5.51898608 11.1208628,5.61373086 11.0778925,5.74502923 C11.0349221,5.87632759 11.0715221,6.02063277 11.171875,6.11558017 L12.8348214,7.77852659 L12.5,10.0887945 C12.4769881,10.2218952 12.531029,10.3565914 12.6396534,10.436879 C12.7482778,10.5171666 12.8929015,10.5293094 13.0133929,10.4682587 L15,9.47495517 L16.9866071,10.4682587 C17.1070985,10.5293094 17.2517222,10.5171666 17.3603466,10.436879 C17.468971,10.3565914 17.5230119,10.2218952 17.5,10.0887945 L17.1651786,7.77852659 L18.828125,6.11558017 C18.9284779,6.02063277 18.9650779,5.87632759 18.9221075,5.74502923 C18.8791372,5.61373086 18.7643026,5.51898608 18.6272321,5.50174088 L16.3058036,5.16691945 L15.3236607,3.20263374 C15.2586811,3.0672502 15.1159597,2.98696937 14.9665179,3.00174088 C14.9553633,3.00121749 14.9441903,3.00121749 14.9330357,3.00174088 Z M24.9330357,6.57316945 C24.8201214,6.59491003 24.7245792,6.66968218 24.6763393,6.77406231 L23.6941964,8.73834802 L21.3727679,9.07316945 C21.2356974,9.09041465 21.1208628,9.18515944 21.0778925,9.3164578 C21.0349221,9.44775616 21.0715221,9.59206134 21.171875,9.68700874 L22.8348214,11.3499552 L22.5,13.660223 C22.4769881,13.7933238 22.531029,13.92802 22.6396534,14.0083076 C22.7482778,14.0885952 22.8929015,14.100738 23.0133929,14.0396873 L25,13.0463837 L26.9866071,14.0396873 C27.1070985,14.100738 27.2517222,14.0885952 27.3603466,14.0083076 C27.468971,13.92802 27.5230119,13.7933238 27.5,13.660223 L27.1651786,11.3499552 L28.828125,9.68700874 C28.9284779,9.59206134 28.9650779,9.44775616 28.9221075,9.3164578 C28.8791372,9.18515944 28.7643026,9.09041465 28.6272321,9.07316945 L26.3058036,8.73834802 L25.3236607,6.77406231 C25.2586811,6.63867877 25.1159597,6.55839794 24.9665179,6.57316945 C24.9553633,6.57264606 24.9441903,6.57264606 24.9330357,6.57316945 Z M4.93303571,10.144598 C4.82012138,10.1663386 4.72457919,10.2411107 4.67633929,10.3454909 L3.69419643,12.3097766 L1.37276786,12.644598 C1.23569738,12.6618432 1.12086284,12.756588 1.07789247,12.8878864 C1.0349221,13.0191847 1.0715221,13.1634899 1.171875,13.2584373 L2.83482143,14.9213837 L2.5,17.2316516 C2.47698814,17.3647524 2.53102895,17.4994485 2.63965335,17.5797361 C2.74827776,17.6600237 2.89290147,17.6721666 3.01339286,17.6111159 L5,16.6178123 L6.98660714,17.6111159 C7.10709853,17.6721666 7.25172224,17.6600237 7.36034665,17.5797361 C7.46897105,17.4994485 7.52301186,17.3647524 7.5,17.2316516 L7.16517857,14.9213837 L8.828125,13.2584373 C8.9284779,13.1634899 8.9650779,13.0191847 8.92210753,12.8878864 C8.87913716,12.756588 8.76430262,12.6618432 8.62723214,12.644598 L6.30580357,12.3097766 L5.32366071,10.3454909 C5.25868113,10.2101073 5.11595965,10.1298265 4.96651786,10.144598 C4.95536328,10.1440746 4.94419029,10.1440746 4.93303571,10.144598 Z M11.3616071,12.644598 C11.1908636,12.6771771 11.0683656,12.8279439 11.0714286,13.0017409 L11.0714286,25.8588837 L8.92857143,25.8588837 L8.92857143,20.144598 C8.92855171,19.9473616 8.76866496,19.7874749 8.57142857,19.7874552 L1.42857143,19.7874552 C1.23133504,19.7874749 1.07144829,19.9473616 1.07142857,20.144598 L1.07142857,25.8588837 L0,25.8588837 L0,26.5731695 L30,26.5731695 L30,25.8588837 L28.9285714,25.8588837 L28.9285714,16.5731695 C28.9285517,16.3759331 28.768665,16.2160463 28.5714286,16.2160266 L21.4285714,16.2160266 C21.231335,16.2160463 21.0714483,16.3759331 21.0714286,16.5731695 L21.0714286,25.8588837 L18.9285714,25.8588837 L18.9285714,13.0017409 C18.9285517,12.8045045 18.768665,12.6446177 18.5714286,12.644598 L11.4285714,12.644598 C11.4174169,12.6440746 11.4062439,12.6440746 11.3950893,12.644598 C11.3839347,12.6440746 11.3727617,12.6440746 11.3616071,12.644598 Z M11.7857143,13.3588837 L18.2142857,13.3588837 L18.2142857,25.6803123 L11.7857143,25.6803123 L11.7857143,13.3588837 Z M21.7857143,16.9303123 L28.2142857,16.9303123 L28.2142857,25.6803123 L21.7857143,25.6803123 L21.7857143,16.9303123 Z M1.78571429,20.5017409 L8.21428571,20.5017409 L8.21428571,25.6803123 L1.78571429,25.6803123 L1.78571429,20.5017409 Z" id="Shape" fill="#000000" fill-rule="nonzero"></path>
            <path d="M15,4.16245517 L15.7477679,5.65799088 C15.7981935,5.76524813 15.8985389,5.84050718 16.015625,5.85888374 L17.8013393,6.11558017 L16.5290179,7.38790159 C16.4468195,7.46960315 16.4093716,7.58610774 16.4285714,7.70040159 L16.6852679,9.51959802 L15.15625,8.74950874 C15.0576097,8.70152284 14.9423903,8.70152284 14.84375,8.74950874 L13.3147321,9.51959802 L13.5714286,7.70040159 C13.5906284,7.58610774 13.5531805,7.46960315 13.4709821,7.38790159 L12.1986607,6.11558017 L13.984375,5.85888374 C14.1014611,5.84050718 14.2018065,5.76524813 14.2522321,5.65799088 L15,4.16245517 Z" id="Path" fill="#FFFFFF"></path>
            <path d="M25,7.73388374 L25.7477679,9.22941945 C25.7981935,9.3366767 25.8985389,9.41193576 26.015625,9.43031231 L27.8013393,9.68700874 L26.5290179,10.9593302 C26.4468195,11.0410317 26.4093716,11.1575363 26.4285714,11.2718302 L26.6852679,13.0910266 L25.15625,12.3209373 C25.0576097,12.2729514 24.9423903,12.2729514 24.84375,12.3209373 L23.3147321,13.0910266 L23.5714286,11.2718302 C23.5906284,11.1575363 23.5531805,11.0410317 23.4709821,10.9593302 L22.1986607,9.68700874 L23.984375,9.43031231 C24.1014611,9.41193576 24.2018065,9.3366767 24.2522321,9.22941945 L25,7.73388374 Z" id="Path" fill="#FFFFFF"></path>
            <path d="M5,11.3053123 L5.74776786,12.800848 C5.79819346,12.9081053 5.89853887,12.9833643 6.015625,13.0017409 L7.80133929,13.2584373 L6.52901786,14.5307587 C6.44681947,14.6124603 6.40937157,14.7289649 6.42857143,14.8432587 L6.68526786,16.6624552 L5.15625,15.8923659 C5.05760968,15.84438 4.94239032,15.84438 4.84375,15.8923659 L3.31473214,16.6624552 L3.57142857,14.8432587 C3.59062843,14.7289649 3.55318053,14.6124603 3.47098214,14.5307587 L2.19866071,13.2584373 L3.984375,13.0017409 C4.10146113,12.9833643 4.20180654,12.9081053 4.25223214,12.800848 L5,11.3053123 Z" id="Path" fill="#FFFFFF"></path>
        </g>
    </g>
</svg>