<?xml version="1.0" encoding="UTF-8" standalone="no"?>
<svg width="60px" height="60px" viewBox="0 0 60 60" version="1.1" xmlns="http://www.w3.org/2000/svg" xmlns:xlink="http://www.w3.org/1999/xlink">
    <!-- Generator: Sketch 48.2 (47327) - http://www.bohemiancoding.com/sketch -->
    <title>Icon/Competitions/Business Large</title>
    <desc>Created with Sketch.</desc>
    <defs>
        <rect id="path-1" x="18" y="6" width="24" height="20" rx="3"></rect>
        <rect id="path-2" x="0" y="14" width="60" height="40" rx="5"></rect>
        <path d="M9,31 L18.5,31 C19.8807119,31 21,32.1192881 21,33.5 L21,38.5 C21,39.8807119 19.8807119,41 18.5,41 L9,41 L9,31 Z" id="path-3"></path>
        <path d="M39,31 L48.5,31 C49.8807119,31 51,32.1192881 51,33.5 L51,38.5 C51,39.8807119 49.8807119,41 48.5,41 L39,41 L39,31 Z" id="path-4"></path>
    </defs>
    <g id="Symbols" stroke="none" stroke-width="1" fill="none" fill-rule="evenodd">
        <g id="Icon/Competitions/Business-Large">
            <g id="Icon/Competitions/Business">
                <g id="Rectangle-4">
                    <use fill="#FFFFFF" fill-rule="evenodd" xlink:href="#path-1"></use>
                    <rect stroke="#000000" stroke-width="1.5" x="18.75" y="6.75" width="22.5" height="18.5" rx="3"></rect>
                </g>
                <g id="Rectangle-3">
                    <use fill="#FFFFFF" fill-rule="evenodd" xlink:href="#path-2"></use>
                    <rect stroke="#000000" stroke-width="1.5" x="0.75" y="14.75" width="58.5" height="38.5" rx="5"></rect>
                </g>
                <path d="M2,36 L58,36" id="Line-2" stroke="#000000" stroke-width="1.5" stroke-linecap="square"></path>
                <g id="Combined-Shape" transform="translate(15.000000, 36.000000) rotate(-270.000000) translate(-15.000000, -36.000000) ">
                    <use fill="#FDE966" fill-rule="evenodd" xlink:href="#path-3"></use>
                    <path stroke="#000000" stroke-width="1" d="M9.5,31.5 L9.5,40.5 L18.5,40.5 C19.6045695,40.5 20.5,39.6045695 20.5,38.5 L20.5,33.5 C20.5,32.3954305 19.6045695,31.5 18.5,31.5 L9.5,31.5 Z"></path>
                </g>
                <g id="Combined-Shape" transform="translate(45.000000, 36.000000) rotate(-270.000000) translate(-45.000000, -36.000000) ">
                    <use fill="#FDE966" fill-rule="evenodd" xlink:href="#path-4"></use>
                    <path stroke="#000000" stroke-width="1" d="M39.5,31.5 L39.5,40.5 L48.5,40.5 C49.6045695,40.5 50.5,39.6045695 50.5,38.5 L50.5,33.5 C50.5,32.3954305 49.6045695,31.5 48.5,31.5 L39.5,31.5 Z"></path>
                </g>
            </g>
        </g>
    </g>
</svg>