<?xml version="1.0" encoding="UTF-8" standalone="no"?>
<svg width="60px" height="60px" viewBox="0 0 60 60" version="1.1" xmlns="http://www.w3.org/2000/svg" xmlns:xlink="http://www.w3.org/1999/xlink">
    <!-- Generator: Sketch 48.2 (47327) - http://www.bohemiancoding.com/sketch -->
    <title>Icon/Competitions/Hackathon Large</title>
    <desc>Created with Sketch.</desc>
    <defs></defs>
    <g id="Symbols" stroke="none" stroke-width="1" fill="none" fill-rule="evenodd">
        <g id="Icon/Competitions/Hackathon-Large">
            <g id="Competitions---Hackathon">
                <polygon id="Shape" fill="#000000" fill-rule="nonzero" points="19.1664 42.96875 19.1664 48.176875 22.5 48.176875 37.5 48.176875 40.8336 48.176875 40.8336 42.96875"></polygon>
                <path d="M27.4998,35.15625 C27.4998,34.67625 27.1272,34.288125 26.6664,34.288125 C26.2986,34.288125 25.9962,34.539375 25.8858,34.884375 L25.8756,34.88125 L24.399,39.49625 L19.9998,39.49625 C19.539,39.49625 19.1664,39.884375 19.1664,40.364375 C19.1664,40.844375 19.539,41.2325 19.9998,41.2325 L25.6002,41.2325 L27.4566,35.43125 L27.4464,35.4275 C27.4758,35.34125 27.4998,35.2525 27.4998,35.15625 Z" id="Shape" fill="#000000" fill-rule="nonzero"></path>
                <g id="Group" transform="translate(0.000000, 20.625000)" fill="#000000" fill-rule="nonzero">
                    <path d="M21.6666,13.663125 L14.4876,13.663125 L12.3858,7.673125 L12.3744,7.6775 C12.0558,6.621875 11.1198,5.85 10.0002,5.85 C9.5982,5.85 9.2232,5.95875 8.8866,6.134375 L8.8824,6.125625 C3.1542,9.10875 0,15.79375 0,24.948125 C0,26.38625 1.119,27.551875 2.5002,27.551875 L10.0002,27.551875 L10.0002,36.2325 C10.0002,37.67125 11.1192,38.836875 12.5004,38.836875 C13.8816,38.836875 15,37.670625 15,36.2325 L15,24.948125 C15,23.509375 13.881,22.34375 12.4998,22.34375 L5.106,22.34375 C5.4096,18.600625 6.4704,14.5625 9.2838,12.05875 L11.8428,16.175625 L11.8488,16.1725 C12.123,16.74125 12.6816,17.135625 13.3338,17.135625 L21.6672,17.135625 C22.5876,17.135625 23.3334,16.358125 23.3334,15.399375 C23.3334,14.440625 22.587,13.663125 21.6666,13.663125 Z" id="Shape"></path>
                    <ellipse id="Oval" cx="16.6668" cy="4.114375" rx="3.75" ry="3.90625"></ellipse>
                </g>
                <path d="M40.0002,39.49625 L35.6004,39.49625 L34.1238,34.88125 L34.1142,34.884375 C34.0032,34.539375 33.7014,34.288125 33.333,34.288125 C32.8722,34.288125 32.4996,34.67625 32.4996,35.15625 C32.4996,35.2525 32.5236,35.34125 32.5524,35.4275 L32.5422,35.43125 L34.3986,41.2325 L39.9996,41.2325 C40.4604,41.2325 40.833,40.844375 40.833,40.364375 C40.833,39.884375 40.461,39.49625 40.0002,39.49625 Z" id="Shape" fill="#000000" fill-rule="nonzero"></path>
                <ellipse id="Oval" fill="#000000" fill-rule="nonzero" cx="43.3338" cy="24.739375" rx="3.75" ry="3.90625"></ellipse>
                <path d="M51.1182,26.750625 L51.114,26.759375 C50.7768,26.58375 50.4012,26.475 49.9998,26.475 C48.8814,26.475 47.9442,27.24625 47.6262,28.3025 L47.6142,28.298125 L45.5124,34.288125 L38.3334,34.288125 C37.413,34.288125 36.6672,35.065 36.6672,36.02375 C36.6672,36.9825 37.413,37.76 38.3334,37.76 L46.6668,37.76 C47.319,37.76 47.8782,37.365625 48.1524,36.796875 L48.1584,36.8 L50.718,32.683125 C53.5308,35.186875 54.5916,39.225 54.8952,42.968125 L47.5002,42.968125 C46.119,42.968125 45,44.13375 45,45.5725 L45,56.856875 C45,58.295625 46.119,59.46125 47.5002,59.46125 C48.8814,59.46125 49.9998,58.295625 49.9998,56.856875 L49.9998,48.176875 L57.4998,48.176875 C58.881,48.176875 60,47.01125 60,45.573125 C60,36.41875 56.8458,29.73375 51.1182,26.750625 Z" id="Shape" fill="#000000" fill-rule="nonzero"></path>
                <path d="M30,18.229375 C25.1748,18.229375 21.2502,14.140625 21.2502,9.115 C21.2502,4.089375 25.1748,0 30,0 C34.8252,0 38.7498,4.08875 38.7498,9.114375 C38.7498,14.14 34.8252,18.229375 30,18.229375 Z" id="Shape" fill="#000000" fill-rule="nonzero"></path>
                <path d="M30,1.73625 C26.0946,1.73625 22.9164,5.045625 22.9164,9.114375 C22.9164,13.183125 26.0946,16.493125 30,16.493125 C33.9054,16.493125 37.0836,13.183125 37.0836,9.114375 C37.0836,5.045625 33.9054,1.73625 30,1.73625 Z" id="Path" fill="#FDE966"></path>
                <path d="M34.1664,5.6425 C34.1664,5.1625 33.7938,4.774375 33.333,4.774375 C33.1014,4.774375 32.8938,4.8725 32.7432,5.03 L30.8328,7.019375 L30.8328,3.90625 C30.8328,3.42625 30.4602,3.038125 29.9994,3.038125 C29.5386,3.038125 29.166,3.426875 29.166,3.90625 L29.166,9.114375 C29.166,9.594375 29.5386,9.9825 29.9994,9.9825 C30.2304,9.9825 30.4386,9.884375 30.5892,9.726875 L33.921,6.2575 C34.0728,6.1 34.1664,5.8825 34.1664,5.6425 Z" id="Shape" fill="#000000" fill-rule="nonzero"></path>
            </g>
        </g>
    </g>
</svg>