<?xml version="1.0" encoding="UTF-8" standalone="no"?>
<svg width="30px" height="30px" viewBox="0 0 30 30" version="1.1" xmlns="http://www.w3.org/2000/svg" xmlns:xlink="http://www.w3.org/1999/xlink">
    <!-- Generator: Sketch 48.2 (47327) - http://www.bohemiancoding.com/sketch -->
    <title>Icon/Competitions/Math</title>
    <desc>Created with Sketch.</desc>
    <defs></defs>
    <g id="Symbols" stroke="none" stroke-width="1" fill="none" fill-rule="evenodd">
        <g id="Icon/Competitions/Math">
            <path d="M6.78571196,0 C3.04228,0 -1.99999999e-06,3.04228557 -1.99999999e-06,6.78571396 C-1.99999999e-06,10.5291459 3.04228,13.5714279 6.78571196,13.5714279 C10.5291404,13.5714279 13.5714259,10.5291459 13.5714259,6.78571396 C13.5714259,3.04228557 10.5291404,0 6.78571196,0 Z" id="Path" fill="#000000"></path>
            <path d="M23.2142826,0 C19.4708506,0 16.4285686,3.04228557 16.4285686,6.78571396 C16.4285686,10.5291459 19.4708506,13.5714279 23.2142826,13.5714279 C26.9577124,13.5714279 29.999998,10.5291459 29.999998,6.78571396 C29.999998,3.04228557 26.9577124,0 23.2142826,0 Z" id="Path" fill="#000000"></path>
            <path d="M6.78571196,0.71428568 C10.1431118,0.71428568 12.8571402,3.42831412 12.8571402,6.78571396 C12.8571402,10.1431174 10.1431118,12.8571422 6.78571196,12.8571422 C3.42830855,12.8571422 0.71428368,10.1431174 0.71428368,6.78571396 C0.71428368,3.42831412 3.42830855,0.71428568 6.78571196,0.71428568 Z" id="Path" fill="#FFFFFF"></path>
            <path d="M23.2142826,0.71428568 C26.5716839,0.71428568 29.2857123,3.42831412 29.2857123,6.78571396 C29.2857123,10.1431174 26.5716839,12.8571422 23.2142826,12.8571422 C19.8568792,12.8571422 17.1428543,10.1431174 17.1428543,6.78571396 C17.1428543,3.42831412 19.8568792,0.71428568 23.2142826,0.71428568 Z" id="Path" fill="#FFFFFF"></path>
            <path d="M6.78571196,16.4285778 C3.04228,16.4285778 -1.99999999e-06,19.4708634 -1.99999999e-06,23.2142918 C-1.99999999e-06,26.9577201 3.04228,30.0000057 6.78571196,30.0000057 C10.5291404,30.0000057 13.5714259,26.9577201 13.5714259,23.2142918 C13.5714259,19.4708634 10.5291404,16.4285778 6.78571196,16.4285778 Z" id="Path" fill="#000000"></path>
            <path d="M23.2142826,16.4285778 C19.4708506,16.4285778 16.4285686,19.4708634 16.4285686,23.2142918 C16.4285686,26.9577201 19.4708506,30.0000057 23.2142826,30.0000057 C26.9577124,30.0000057 29.999998,26.9577201 29.999998,23.2142918 C29.999998,19.4708634 26.9577124,16.4285778 23.2142826,16.4285778 Z" id="Path" fill="#000000"></path>
            <path d="M6.78571196,17.1428635 C10.1431118,17.1428635 12.8571402,19.8568991 12.8571402,23.2142918 C12.8571402,26.5716844 10.1431118,29.28572 6.78571196,29.28572 C3.42830855,29.28572 0.71428368,26.5716844 0.71428368,23.2142918 C0.71428368,19.8568991 3.42830855,17.1428635 6.78571196,17.1428635 Z" id="Path" fill="#FFFFFF"></path>
            <path d="M23.2142826,17.1428635 C26.5716839,17.1428635 29.2857123,19.8568991 29.2857123,23.2142918 C29.2857123,26.5716844 26.5716839,29.28572 23.2142826,29.28572 C19.8568792,29.28572 17.1428543,26.5716844 17.1428543,23.2142918 C17.1428543,19.8568991 19.8568792,17.1428635 23.2142826,17.1428635 Z" id="Path" fill="#FFFFFF"></path>
            <polygon id="Path" fill="#000000" points="6.42856912 3.5714284 6.42856912 6.42857112 3.5714264 6.42857112 3.5714264 7.1428568 6.42856912 7.1428568 6.42856912 9.99999952 7.1428548 9.99999952 7.1428548 7.1428568 9.99999752 7.1428568 9.99999752 6.42857112 7.1428548 6.42857112 7.1428548 3.5714284"></polygon>
            <polygon id="Path" fill="#000000" points="19.999997 6.42857112 19.999997 7.1428568 26.4285696 7.1428568 26.4285696 6.42857112"></polygon>
            <polygon id="Path" fill="#000000" points="4.76562277 20.6919704 4.26339065 21.1941847 6.28347984 23.2142918 4.26339065 25.2343631 4.76562277 25.7477559 6.78571196 23.7276846 8.80580115 25.7477559 9.30803327 25.2343631 7.28794408 23.2142918 9.30803327 21.1941847 8.80580115 20.6919704 6.78571196 22.7120418 4.76562277 20.6919704"></polygon>
            <path d="M23.2142826,20.7141133 C22.8197933,20.7141133 22.4999969,21.033899 22.4999969,21.428399 C22.4999969,21.822899 22.8197933,22.1426847 23.2142826,22.1426847 C23.6087719,22.1426847 23.9285683,21.822899 23.9285683,21.428399 C23.9285683,21.033899 23.6087719,20.7141133 23.2142826,20.7141133 Z" id="Path" fill="#000000"></path>
            <polygon id="Path" fill="#000000" points="19.999997 22.8569703 19.999997 23.571256 26.4285696 23.571256 26.4285696 22.8569703"></polygon>
            <path d="M23.2142826,24.2855417 C22.8197933,24.2855417 22.4999969,24.6053274 22.4999969,24.9998274 C22.4999969,25.3943274 22.8197933,25.7141131 23.2142826,25.7141131 C23.6087719,25.7141131 23.9285683,25.3943274 23.9285683,24.9998274 C23.9285683,24.6053274 23.6087719,24.2855417 23.2142826,24.2855417 Z" id="Path" fill="#000000"></path>
        </g>
    </g>
</svg>