<?xml version="1.0" encoding="UTF-8" standalone="no"?>
<svg width="60px" height="60px" viewBox="0 0 60 60" version="1.1" xmlns="http://www.w3.org/2000/svg" xmlns:xlink="http://www.w3.org/1999/xlink">
    <!-- Generator: Sketch 48.2 (47327) - http://www.bohemiancoding.com/sketch -->
    <title>Icon/Competitions/Math Large</title>
    <desc>Created with Sketch.</desc>
    <defs></defs>
    <g id="Symbols" stroke="none" stroke-width="1" fill="none" fill-rule="evenodd">
        <g id="Icon/Competitions/Math-Large">
            <g id="Icon/Competitions/Math">
                <path d="M13.5714239,0 C6.08456,0 -3.99999999e-06,6.08457114 -3.99999999e-06,13.5714279 C-3.99999999e-06,21.0582919 6.08456,27.1428559 13.5714239,27.1428559 C21.0582807,27.1428559 27.1428519,21.0582919 27.1428519,13.5714279 C27.1428519,6.08457114 21.0582807,0 13.5714239,0 Z" id="Path" fill="#000000"></path>
                <path d="M46.4285652,0 C38.9417013,0 32.8571373,6.08457114 32.8571373,13.5714279 C32.8571373,21.0582919 38.9417013,27.1428559 46.4285652,27.1428559 C53.9154249,27.1428559 59.999996,21.0582919 59.999996,13.5714279 C59.999996,6.08457114 53.9154249,0 46.4285652,0 Z" id="Path" fill="#000000"></path>
                <path d="M13.5714239,1.42857136 C20.2862236,1.42857136 25.7142805,6.85662824 25.7142805,13.5714279 C25.7142805,20.2862347 20.2862236,25.7142845 13.5714239,25.7142845 C6.8566171,25.7142845 1.42856736,20.2862347 1.42856736,13.5714279 C1.42856736,6.85662824 6.8566171,1.42857136 13.5714239,1.42857136 Z" id="Path" fill="#F79975"></path>
                <path d="M46.4285652,1.42857136 C53.1433678,1.42857136 58.5714246,6.85662824 58.5714246,13.5714279 C58.5714246,20.2862347 53.1433678,25.7142845 46.4285652,25.7142845 C39.7137584,25.7142845 34.2857087,20.2862347 34.2857087,13.5714279 C34.2857087,6.85662824 39.7137584,1.42857136 46.4285652,1.42857136 Z" id="Path" fill="#8F94F1"></path>
                <path d="M13.5714239,32.8571556 C6.08456,32.8571556 -3.99999999e-06,38.9417267 -3.99999999e-06,46.4285835 C-3.99999999e-06,53.9154403 6.08456,60.0000114 13.5714239,60.0000114 C21.0582807,60.0000114 27.1428519,53.9154403 27.1428519,46.4285835 C27.1428519,38.9417267 21.0582807,32.8571556 13.5714239,32.8571556 Z" id="Path" fill="#000000"></path>
                <path d="M46.4285652,32.8571556 C38.9417013,32.8571556 32.8571373,38.9417267 32.8571373,46.4285835 C32.8571373,53.9154403 38.9417013,60.0000114 46.4285652,60.0000114 C53.9154249,60.0000114 59.999996,53.9154403 59.999996,46.4285835 C59.999996,38.9417267 53.9154249,32.8571556 46.4285652,32.8571556 Z" id="Path" fill="#000000"></path>
                <path d="M13.5714239,34.2857269 C20.2862236,34.2857269 25.7142805,39.7137981 25.7142805,46.4285835 C25.7142805,53.1433689 20.2862236,58.5714401 13.5714239,58.5714401 C6.8566171,58.5714401 1.42856736,53.1433689 1.42856736,46.4285835 C1.42856736,39.7137981 6.8566171,34.2857269 13.5714239,34.2857269 Z" id="Path" fill="#A6DDC5"></path>
                <path d="M46.4285652,34.2857269 C53.1433678,34.2857269 58.5714246,39.7137981 58.5714246,46.4285835 C58.5714246,53.1433689 53.1433678,58.5714401 46.4285652,58.5714401 C39.7137584,58.5714401 34.2857087,53.1433689 34.2857087,46.4285835 C34.2857087,39.7137981 39.7137584,34.2857269 46.4285652,34.2857269 Z" id="Path" fill="#FDE966"></path>
                <polygon id="Path" fill="#000000" points="12.8571382 7.1428568 12.8571382 12.8571422 7.1428528 12.8571422 7.1428528 14.2857136 12.8571382 14.2857136 12.8571382 19.999999 14.2857096 19.999999 14.2857096 14.2857136 19.999995 14.2857136 19.999995 12.8571422 14.2857096 12.8571422 14.2857096 7.1428568"></polygon>
                <polygon id="Path" fill="#000000" points="39.9999941 12.8571422 39.9999941 14.2857136 52.8571392 14.2857136 52.8571392 12.8571422"></polygon>
                <polygon id="Path" fill="#000000" points="9.53124555 41.3839409 8.52678131 42.3883694 12.5669597 46.4285835 8.52678131 50.4687262 9.53124555 51.4955118 13.5714239 47.4553692 17.6116023 51.4955118 18.6160665 50.4687262 14.5758882 46.4285835 18.6160665 42.3883694 17.6116023 41.3839409 13.5714239 45.4240836 9.53124555 41.3839409"></polygon>
                <path d="M46.4285652,41.4282266 C45.6395867,41.4282266 44.9999939,42.067798 44.9999939,42.856798 C44.9999939,43.6457979 45.6395867,44.2853693 46.4285652,44.2853693 C47.2175438,44.2853693 47.8571366,43.6457979 47.8571366,42.856798 C47.8571366,42.067798 47.2175438,41.4282266 46.4285652,41.4282266 Z" id="Path" fill="#000000"></path>
                <polygon id="Path" fill="#000000" points="39.9999941 45.7139407 39.9999941 47.142512 52.8571392 47.142512 52.8571392 45.7139407"></polygon>
                <path d="M46.4285652,48.5710834 C45.6395867,48.5710834 44.9999939,49.2106548 44.9999939,49.9996548 C44.9999939,50.7886547 45.6395867,51.4282261 46.4285652,51.4282261 C47.2175438,51.4282261 47.8571366,50.7886547 47.8571366,49.9996548 C47.8571366,49.2106548 47.2175438,48.5710834 46.4285652,48.5710834 Z" id="Path" fill="#000000"></path>
            </g>
        </g>
    </g>
</svg>