<?xml version="1.0" encoding="UTF-8" standalone="no"?>
<svg width="60px" height="60px" viewBox="0 0 60 60" version="1.1" xmlns="http://www.w3.org/2000/svg" xmlns:xlink="http://www.w3.org/1999/xlink">
    <!-- Generator: Sketch 48.2 (47327) - http://www.bohemiancoding.com/sketch -->
    <title>Icon/Competitions/Science Large</title>
    <desc>Created with Sketch.</desc>
    <defs></defs>
    <g id="Symbols" stroke="none" stroke-width="1" fill="none" fill-rule="evenodd">
        <g id="Icon/Competitions/Science-Large">
            <g id="Icon/Competitions/Science">
                <path d="M53.25,30 C58.8,35.6590909 61.125,41.25 58.725,45 C57.975,46.2272727 56.7,47.1818182 55.125,47.8636364 C55.125,47.1136364 54.9,46.4318182 54.6,45.8181818 C55.575,45.3409091 56.325,44.7272727 56.85,43.9772727 C58.725,41.0454545 56.55,36.4090909 51.825,31.5 C49.65,33.5454545 47.1,35.5227273 44.325,37.3636364 C43.95,40.5681818 43.35,43.5681818 42.525,46.2272727 C43.35,46.3636364 44.175,46.5 44.925,46.6363636 C44.775,47.0454545 44.7,47.4545455 44.7,47.9318182 C44.7,48.2045455 44.7,48.4772727 44.775,48.6818182 C43.8,48.5454545 42.825,48.4090909 41.85,48.2045455 C39.075,55.4318182 34.95,60 30.15,60 C25.35,60 21.225,55.4318182 18.6,48.2045455 C17.55,48.4090909 16.5,48.5454545 15.525,48.6818182 C14.175,48.8181818 12.9,48.8863636 11.7,48.8863636 C6.75,48.8863636 3.225,47.5227273 1.575,45 C0.675,43.5681818 0.45,41.8636364 0.825,40.0227273 C1.425,40.4318182 2.175,40.7045455 3,40.7045455 C2.85,41.9318182 3,43.0909091 3.6,43.9772727 C5.1,46.3636364 9.375,47.3181818 15.3,46.6363636 C16.2,46.5 17.1,46.3636364 18,46.2272727 C17.175,43.5681818 16.575,40.5681818 16.2,37.3636364 C13.35,35.5227273 10.875,33.5454545 8.625,31.5 C8.025,32.1136364 7.425,32.7954545 6.9,33.4090909 C6.825,33.5454545 6.75,33.6136364 6.6,33.75 C6.15,33.3409091 5.625,33.0681818 5.1,32.8636364 C5.025,32.6590909 5.025,32.5909091 4.95,32.3863636 C5.625,31.5681818 6.3,30.8181818 7.05,30 C6.3,29.25 5.625,28.5681818 5.025,27.8181818 C0.75,22.7045455 -0.45,18.2045455 1.575,15 C3.6,11.7954545 8.55,10.5 15.525,11.3181818 C16.5,11.4545455 17.55,11.5909091 18.6,11.7954545 C21.15,4.56818182 25.35,0 30.15,0 C31.35,0 32.55,0.272727273 33.675,0.886363636 C33,1.29545455 32.475,1.84090909 32.025,2.38636364 C31.425,2.18181818 30.75,2.04545455 30.15,2.04545455 C26.475,2.04545455 23.025,6.06818182 20.775,12.2727273 C23.775,12.9545455 26.925,13.9772727 30.15,15.2727273 C33.3,13.9772727 36.525,12.9545455 39.525,12.2727273 C39.3,11.7272727 39.075,11.1136364 38.85,10.5681818 C39.6,10.3636364 40.275,10.0227273 40.875,9.61363636 C41.175,10.2954545 41.475,11.0454545 41.775,11.7954545 C42.825,11.5909091 43.875,11.4545455 44.85,11.3181818 C51.825,10.5 56.775,11.7954545 58.8,15 C60.825,18.2045455 59.625,22.7045455 55.35,27.8181818 C54.675,28.5 54,29.25 53.25,30 Z M42.375,13.7727273 C43.2,16.4318182 43.8,19.4318182 44.175,22.6363636 C47.025,24.5454545 49.575,26.5227273 51.75,28.5 C52.35,27.8863636 52.95,27.2045455 53.475,26.5909091 C57.075,22.2954545 58.275,18.4090909 56.775,16.0227273 C55.575,14.1136364 52.65,13.1590909 48.6,13.1590909 C47.55,13.1590909 46.35,13.2272727 45.075,13.3636364 C44.175,13.4318182 43.275,13.5681818 42.375,13.7727273 Z M32.85,16.4318182 C34.35,17.1136364 35.85,17.8636364 37.35,18.6136364 C38.85,19.4318182 40.275,20.1818182 41.625,21.0681818 C41.25,18.6136364 40.725,16.3636364 40.125,14.25 C37.8,14.7954545 35.325,15.4772727 32.85,16.4318182 Z M42,23.7272727 C40.2,22.5681818 38.25,21.4090909 36.225,20.3181818 C34.2,19.2272727 32.175,18.2727273 30.15,17.4545455 C28.125,18.2727273 26.1,19.2954545 24.075,20.3181818 C22.05,21.4090909 20.1,22.5 18.3,23.6590909 C18.075,25.7045455 18,27.75 18,29.9318182 C18,32.0454545 18.15,34.1590909 18.3,36.2045455 C20.1,37.3636364 22.05,38.5227273 24.075,39.5454545 C26.1,40.6363636 28.125,41.5909091 30.15,42.4090909 C32.175,41.5909091 34.2,40.5681818 36.225,39.5454545 C38.25,38.4545455 40.2,37.3636364 42,36.2045455 C42.225,34.1590909 42.3,32.1136364 42.3,29.9318182 C42.375,27.8863636 42.225,25.7727273 42,23.7272727 Z M20.1,14.1818182 C19.425,16.2954545 18.975,18.5454545 18.6,21 C19.95,20.1818182 21.45,19.3636364 22.875,18.5454545 C24.375,17.7954545 25.875,17.0454545 27.375,16.3636364 C24.9,15.4772727 22.5,14.7272727 20.1,14.1818182 Z M6.825,26.5909091 C7.35,27.2045455 7.95,27.8863636 8.55,28.5 C10.725,26.4545455 13.275,24.4772727 16.125,22.6363636 C16.5,19.4318182 17.1,16.4318182 17.925,13.7727273 C17.025,13.5681818 16.125,13.4318182 15.225,13.3636364 C13.95,13.2272727 12.825,13.1590909 11.7,13.1590909 C7.65,13.1590909 4.725,14.1818182 3.525,16.0227273 C1.95,18.4090909 3.15,22.2272727 6.825,26.5909091 Z M15.825,34.6363636 C15.75,33.1363636 15.675,31.5681818 15.675,30 C15.675,28.4318182 15.75,26.8636364 15.825,25.3636364 C13.725,26.8636364 11.775,28.4318182 10.05,30 C11.775,31.5681818 13.725,33.1363636 15.825,34.6363636 Z M20.1,45.8181818 C22.425,45.2727273 24.9,44.5227273 27.375,43.6363636 C25.875,42.9545455 24.375,42.2045455 22.875,41.4545455 C21.375,40.7045455 19.95,39.8863636 18.6,39 C18.975,41.3863636 19.5,43.7045455 20.1,45.8181818 Z M39.525,47.7272727 C36.525,47.0454545 33.375,46.0227273 30.15,44.7272727 C26.925,46.0227273 23.775,47.0454545 20.775,47.7272727 C23.025,53.9318182 26.4,57.9545455 30.15,57.9545455 C33.825,57.9545455 37.2,53.9318182 39.525,47.7272727 Z M41.7,38.9318182 C40.35,39.75 38.85,40.5681818 37.425,41.3863636 C35.925,42.1363636 34.425,42.8863636 32.925,43.5681818 C35.4,44.4545455 37.875,45.2045455 40.2,45.75 C40.8,43.7045455 41.325,41.3863636 41.7,38.9318182 Z M50.175,30 C48.525,28.4318182 46.575,26.8636364 44.4,25.3636364 C44.475,26.8636364 44.55,28.4318182 44.55,30 C44.55,31.5681818 44.475,33.1363636 44.4,34.6363636 C46.575,33.1363636 48.45,31.5681818 50.175,30 Z" id="Shape" fill="#000000" fill-rule="nonzero"></path>
                <path d="M32.7,6.27272727 C31.95,3.27272727 34.8,0.681818182 38.1,1.36363636 C39.75,1.70454545 41.1,2.93181818 41.475,4.43181818 C42.225,7.43181818 39.375,10.0227273 36.075,9.34090909 C34.425,9 33.075,7.77272727 32.7,6.27272727 Z" id="Path" fill="#4ABB8B"></path>
                <path d="M50.4,44.5227273 C47.85,44.1818182 45.75,46.1590909 46.125,48.4090909 C46.35,49.8409091 47.625,51 49.2,51.2045455 C51.75,51.5454545 53.85,49.5681818 53.475,47.3181818 C53.325,45.9545455 51.975,44.7272727 50.4,44.5227273 Z" id="Path" fill="#FDE966"></path>
                <path d="M30.15,24.8863636 C27.075,24.8863636 24.525,27.2045455 24.525,30 C24.525,32.7954545 27.075,35.1136364 30.15,35.1136364 C33.225,35.1136364 35.775,32.7954545 35.775,30 C35.775,27.2045455 33.225,24.8863636 30.15,24.8863636 Z" id="Path" fill="#F79975"></path>
                <path d="M2.85,39.3409091 C4.875,39.6136364 6.6,38.0454545 6.3,36.2045455 C6.075,35.0454545 5.1,34.0909091 3.825,33.9545455 C1.8,33.6818182 0.075,35.25 0.375,37.0909091 C0.6,38.25 1.575,39.1363636 2.85,39.3409091 Z" id="Path" fill="#6067EC"></path>
            </g>
        </g>
    </g>
</svg>