<?xml version="1.0" encoding="UTF-8" standalone="no"?>
<svg width="30px" height="30px" viewBox="0 0 30 30" version="1.1" xmlns="http://www.w3.org/2000/svg" xmlns:xlink="http://www.w3.org/1999/xlink">
    <!-- Generator: Sketch 48.2 (47327) - http://www.bohemiancoding.com/sketch -->
    <title>Icon/Competitions/Spelling Bee</title>
    <desc>Created with Sketch.</desc>
    <defs></defs>
    <g id="Symbols" stroke="none" stroke-width="1" fill="none" fill-rule="evenodd">
        <g id="Icon/Competitions/Spelling-Bee">
            <path d="M29.3617405,9.94473233 C28.4639531,9.08454772 27.1346084,8.69288635 25.9463109,8.43556617 C24.3745939,8.09503465 22.7453134,7.9954484 21.1409435,8.08467501 C21.066212,6.70049294 20.7107326,5.41556294 20.1441874,4.32512689 C19.3490716,3.15649224 18.4226708,2.26823634 17.4060537,1.72986905 L17.6581882,1.28874874 C17.7366226,1.15240246 17.916382,1.10394606 18.0530531,1.18114212 L20.0058332,2.28294035 L21.326089,2.28294035 C21.2725651,2.05603074 21.2163482,1.83212876 21.1564284,1.61223697 L18.6249844,0.183942864 C17.939946,-0.202705774 17.0424952,0.0429180368 16.653353,0.722310155 L16.3214376,1.30178184 C15.9699978,1.20821086 15.0072412,1.12065516 15.0005086,1.12065516 C14.9937761,1.12065516 14.0306828,1.20821086 13.6795796,1.30178184 L13.3463177,0.721975973 C12.9578488,0.0425838548 12.0597248,-0.203374138 11.3753596,0.183608682 L8.84357902,1.61190279 C8.7836592,1.83212876 8.72777892,2.05569655 8.67425504,2.28260617 L9.99484743,2.28260617 L11.9469543,1.18080793 C12.0842986,1.10361188 12.2633848,1.15206828 12.3421558,1.28841456 L12.5942903,1.72953487 C11.5773366,2.26790216 10.6512724,3.15649224 9.85615662,4.32479271 C9.28961137,5.41522875 8.934132,6.70015876 8.85940054,8.08434083 C7.25435733,7.99511422 5.62575014,8.09503465 4.05369649,8.43523199 C2.86607223,8.69288635 1.53605425,9.08421354 0.638266867,9.94439815 C-0.0797610637,10.6314765 -0.23864957,11.6356935 0.402290505,12.4347228 C1.22332666,13.4583225 4.38729503,14.2700507 4.6138458,14.3101525 C3.86451145,14.9029915 3.15186957,15.5609959 2.56546326,16.3159132 C2.12111405,16.8876987 1.707398,17.5540577 1.61078571,18.2829088 C1.53908391,18.8189368 1.68821019,19.3639877 2.07836227,19.7509706 C2.59609642,20.26394 3.37808371,20.3956077 4.08096337,20.3956077 C5.16928232,20.3952736 6.25423497,20.1108846 7.27421839,19.7543124 C7.55530293,21.4893856 8.01648355,23.2094206 8.7442737,24.8144971 C9.41483706,26.2919159 10.3277727,27.7282304 11.6076331,28.7581795 C12.6518537,29.5986474 13.9068036,29.9886378 14.9796377,29.9983291 L14.9796377,30 C14.9867069,30 14.9931028,29.9989975 15.0005086,29.9989975 C15.0072412,29.9989975 15.0139738,30 15.0210429,30 L15.0210429,29.9983291 C16.0935404,29.9886378 17.3484903,29.5986474 18.3927109,28.7581795 C19.6729079,27.7282304 20.5858436,26.2919159 21.2567436,24.8144971 C21.9841971,23.2094206 22.4453777,21.4897198 22.7261256,19.7543124 C23.7464457,20.1108846 24.8310617,20.3952736 25.9200539,20.3956077 C26.6222603,20.3956077 27.4045842,20.26394 27.9219817,19.7509706 C28.3121338,19.3643219 28.4615967,18.819271 28.3898949,18.2829088 C28.2936193,17.5540577 27.8792299,16.8876987 27.4348807,16.3159132 C26.8488111,15.5609959 26.1361692,14.9029915 25.3868348,14.3101525 C25.6137222,14.2697165 28.7766807,13.4583225 29.5980535,12.4347228 C30.2389936,11.6356935 30.0790952,10.6314765 29.3617405,9.94473233 Z M10.7058062,5.19801042 C11.8607775,3.39476405 13.4479794,2.20908612 15.000172,2.19772393 C16.5516913,2.20875194 18.1388932,3.39476405 19.2942012,5.19801042 C19.6890661,6.0792485 19.9354779,7.09716704 19.9890018,8.18593217 C19.0622644,8.29621225 18.13822,8.4739971 17.2505315,8.76540386 C16.4436337,9.03107859 15.6023998,9.39533703 14.9998354,10.0112346 C14.3976075,9.39533703 13.5560371,9.03107859 12.748466,8.76540386 C11.8611141,8.4739971 10.9370697,8.29621225 10.0103323,8.18593217 C10.0641928,7.09683286 10.3106047,6.0792485 10.7058062,5.19801042 Z M14.4787349,14.9962283 C14.6450293,14.7937139 14.8611446,14.4855981 15.000172,14.2757318 C15.1388628,14.4855981 15.3553147,14.7937139 15.5212724,14.9962283 L14.4787349,14.9962283 Z M3.6908113,12.9226286 C3.04414855,12.7585452 2.40152533,12.4945414 1.84103939,12.1142422 C1.56298451,11.924761 1.15532777,11.616311 1.15903068,11.225318 C1.16576324,10.5669793 2.16487571,10.1432365 2.63177901,9.94540069 C3.88437251,9.41405123 5.26623123,9.20652417 6.60971434,9.13601176 C8.28477622,9.04812187 10.0073027,9.17076669 11.6274942,9.63761902 C12.3438389,9.84314098 13.0945198,10.1134943 13.6927081,10.584691 C13.9263281,10.7694936 14.2498278,11.0695891 14.2033731,11.4104548 C14.1532155,11.7713714 13.7933599,12.0397196 13.5196812,12.2171703 C12.7605846,12.7094205 11.8634705,12.9724217 10.9936233,13.1552193 C10.03053,13.3570653 8.86411334,13.4660086 8.06462138,13.4583225 C6.2653437,13.4412792 4.30953392,13.07936 3.6908113,12.9226286 Z M4.08062675,19.2476924 C3.6537822,19.2476924 2.83308267,19.206588 2.7546483,18.65218 C2.70415407,18.2892582 2.90175482,17.9042805 3.07915788,17.6011774 C3.8197399,16.3329565 5.06459095,15.3344205 6.26568033,14.5196847 C7.66538035,14.6309673 9.07888212,14.5925364 10.4684833,14.3886853 C11.7756106,14.1968648 13.1497268,13.8820653 14.2841638,13.1829564 C13.9842281,13.8767184 12.8312766,15.0496974 12.8403655,15.0767661 C11.6456721,16.2337044 10.2176953,17.1480265 8.7311452,17.8899107 C7.32134634,18.5940323 5.68398682,19.2476924 4.08062675,19.2476924 Z M19.413031,25.7555537 L10.5863032,25.7555537 C10.2984861,25.2853596 10.0308666,24.7677116 9.78411818,24.2139719 L20.2152159,24.2139719 C19.9684675,24.7677116 19.7011847,25.2853596 19.413031,25.7555537 Z M21.4176518,20.375891 L8.58201891,20.375891 C8.51099036,20.02901 8.44635775,19.6754454 8.39047747,19.3158655 C8.73181846,19.1684912 9.07585247,19.008418 9.42022311,18.8336408 L20.5794476,18.8336408 C20.9238183,19.008418 21.2678523,19.1684912 21.6091933,19.3158655 C21.553313,19.6757796 21.4886804,20.02901 21.4176518,20.375891 Z M26.9208495,17.6015116 C27.0975793,17.9042805 27.2955167,18.2895924 27.2450224,18.6525141 C27.1669247,19.2069222 26.3458885,19.2480266 25.9193806,19.2480266 C24.3156839,19.2480266 22.6779878,18.5943665 21.2685255,17.8902449 C19.7819754,17.1483607 18.3543353,16.2340386 17.1599785,15.0771003 C17.1687308,15.0500316 16.0161159,13.8770526 15.7155069,13.1832906 C16.8499439,13.8827337 18.2240602,14.1975332 19.5315241,14.3890195 C20.9207886,14.5928705 22.334627,14.6313015 23.7346637,14.5200188 C24.9350798,15.3347547 26.1799308,16.3332907 26.9208495,17.6015116 Z M28.1582947,12.113908 C27.5981454,12.4942072 26.9555222,12.7585452 26.3091961,12.9222944 C25.6898002,13.07936 23.7346637,13.440945 21.9350494,13.4583225 C21.1355574,13.4656745 19.969814,13.3570653 19.0060475,13.1552193 C18.1362002,12.9724217 17.2394227,12.7094205 16.4799895,12.2171703 C16.2063108,12.0397196 15.8467919,11.7713714 15.7962977,11.4104548 C15.7495064,11.0692549 16.073006,10.7694936 16.3072993,10.584691 C16.9048143,10.1131601 17.6558318,9.84314098 18.3725132,9.63761902 C19.9930413,9.17076669 21.7152311,9.04812187 23.390293,9.13601176 C24.7334395,9.20652417 26.1159715,9.41405123 27.3682284,9.94540069 C27.8351317,10.1432365 28.8339075,10.5669793 28.8406401,11.225318 C28.8440063,11.6159768 28.4363496,11.9244268 28.1582947,12.113908 Z" id="Shape" fill="#000000" fill-rule="nonzero"></path>
            <path d="M16.6119478,16.1438095 L16.62171,16.1438095 C17.2390861,16.7109164 17.9123425,17.2208782 18.6098361,17.6860596 L11.3891614,17.6860596 C12.0869916,17.220544 12.7599114,16.7109164 13.3772875,16.1438095 L13.3870497,16.1438095 L16.6119478,16.1438095 Z" id="Path" fill="#FFFFFF"></path>
            <path d="M14.9998354,28.8524188 C13.7448855,28.8447326 12.4205902,28.1289147 11.4019533,26.9038033 L18.5970442,26.9038033 C17.5787439,28.1289147 16.2544486,28.8443985 14.9998354,28.8524188 Z" id="Path" fill="#FFFFFF"></path>
            <path d="M20.6740402,23.0657224 L9.32563059,23.0657224 C9.14991067,22.5741406 8.99135879,22.0584976 8.85064821,21.5238064 L21.1493592,21.5238064 C21.0086486,22.0588318 20.8494234,22.5744747 20.6740402,23.0657224 Z" id="Path" fill="#FFFFFF"></path>
        </g>
    </g>
</svg>