<?xml version="1.0" encoding="UTF-8" standalone="no"?>
<svg width="30px" height="30px" viewBox="0 0 30 30" version="1.1" xmlns="http://www.w3.org/2000/svg" xmlns:xlink="http://www.w3.org/1999/xlink">
    <!-- Generator: Sketch 48.2 (47327) - http://www.bohemiancoding.com/sketch -->
    <title>Icon/Competitions/Sports</title>
    <desc>Created with Sketch.</desc>
    <defs></defs>
    <g id="Symbols" stroke="none" stroke-width="1" fill="none" fill-rule="evenodd">
        <g id="Icon/Competitions/Sports">
            <path d="M19.7327673,1 C14.8656114,1 10.909237,4.94826471 10.9092379,9.80632353 C10.909237,14.6645588 14.8656114,18.6108824 19.7327673,18.6108824 C24.5999232,18.6108824 28.5545735,14.6644706 28.5545726,9.80632353 C28.5545735,4.94817647 24.5999232,1 19.7327673,1 Z M5.99253224,9.59958824 C3.24071615,9.59958824 1.00001685,11.8367941 1,14.5852353 C1.00001685,17.3337647 3.24071615,19.5708824 5.99253224,19.5708824 C8.74434876,19.5708824 10.9850479,17.3337647 10.9850646,14.5852353 C10.9850479,11.8367941 8.74434876,9.59958824 5.99253224,9.59958824 Z M13.8716691,18.6587941 C11.9874264,18.6587941 10.3926767,18.9214706 9.05664082,19.3291176 L9.05664082,19.3202941 L8.46553318,19.5322353 C8.46253318,19.5322353 8.45997435,19.5322353 8.45688612,19.5322353 C8.08609935,19.6653824 7.73399412,19.8072647 7.40736894,19.9596471 C7.07684818,20.1137941 6.76346297,20.2744706 6.47676232,20.4422059 C6.44779644,20.4589706 6.41912174,20.4748529 6.39059526,20.4925 L6.259621,20.5701471 L6.259621,20.5789706 C6.08845353,20.6848529 5.91639303,20.7910882 5.76157406,20.8995294 C4.92187159,21.4877941 4.32003109,22.1009412 3.92104106,22.6262941 C3.72154582,22.8888824 3.5718955,23.1299412 3.46780115,23.3415294 C3.36370679,23.5531176 3.29201985,23.7128235 3.29201985,23.9429412 C3.29201985,24.1730588 3.36370662,24.3328529 3.46780115,24.5444412 C3.57189568,24.7560294 3.72154626,24.9951471 3.92104106,25.2578235 C4.32003038,25.7830882 4.92187203,26.3964118 5.76157406,26.9846765 C5.91639285,27.0931176 6.08845362,27.1993529 6.259621,27.3052353 L6.259621,27.3140588 L6.41299874,27.4053824 C6.42811521,27.4142059 6.44256638,27.4239118 6.4578055,27.4327353 L6.47676197,27.4433235 C6.49326197,27.4530294 6.51353668,27.4609706 6.53018579,27.4706765 C6.79350294,27.6227941 7.07670038,27.7675 7.3763485,27.9084118 C7.40900174,27.9234118 7.44322997,27.9384118 7.4763025,27.9534118 C7.77433979,28.0902647 8.09169647,28.2200588 8.42586612,28.3411176 C8.43972788,28.3499412 8.45158671,28.3517059 8.46550141,28.357 L9.05660906,28.5672647 L9.05660906,28.5584412 C10.3926458,28.9666176 11.9873946,29.2305294 13.8716373,29.2305294 C15.7449776,29.2305294 17.3312285,28.9694412 18.6625376,28.5653235 L18.6625376,28.5759118 L19.2501988,28.3656471 C19.2575223,28.3656471 19.2635752,28.3568235 19.2708811,28.3568235 C19.6334364,28.2270294 19.9775558,28.0880588 20.2979955,27.9398235 C20.3172838,27.931 20.3374455,27.9230588 20.3565926,27.9142353 C20.6876814,27.7588529 21.0020126,27.5987059 21.2889229,27.4299118 C21.3028552,27.4210882 21.3164523,27.4140294 21.3302788,27.4060882 L21.5077835,27.3026765 L21.5077835,27.2920882 C21.6699017,27.1912353 21.834382,27.0902059 21.9817041,26.9870588 C22.8214067,26.3987941 23.4232464,25.7854706 23.8222367,25.2602059 C24.0217323,24.9975294 24.1696588,24.7584118 24.2737535,24.5468235 C24.3778482,24.3352353 24.4495349,24.1754412 24.4495349,23.9452353 C24.4495349,23.7151176 24.3778526,23.5554118 24.2737535,23.3439118 C24.1696588,23.1323235 24.0217323,22.8912647 23.8222367,22.6286765 C23.4232464,22.1033235 22.8214076,21.4901765 21.9817041,20.9018235 C21.834382,20.7986765 21.6699017,20.6977353 21.5077835,20.5967941 L21.5077835,20.5862059 L21.3302788,20.4828824 C21.3164523,20.4740588 21.3028464,20.467 21.2889229,20.4590588 C21.0029541,20.2910588 20.6898952,20.1296765 20.3600391,19.9748235 C20.3358891,19.9633529 20.3103096,19.9536471 20.2859391,19.9421765 C19.9694038,19.7962353 19.6301179,19.6599118 19.2726114,19.5320588 C19.2651114,19.5320588 19.2577085,19.5232353 19.2502085,19.5232353 L18.6625473,19.3147353 L18.6625473,19.3235588 C17.3312382,18.9198824 15.7449873,18.6601176 13.871647,18.6601176 L13.8716691,18.6587941 Z M13.8716691,19.5411471 C15.7910311,19.5411471 17.3681567,19.8258824 18.6625694,20.2494118 L18.6625694,27.6356765 C17.3681338,28.0596471 15.7910911,28.3473824 13.8716691,28.3473824 C11.9402073,28.3473824 10.3559788,28.0572647 9.05664082,27.6287941 L9.05664082,20.2580588 C10.3560538,19.8300294 11.9400035,19.5411471 13.8716691,19.5411471 Z M6.25965082,21.6282647 L6.25965082,26.2589412 C5.49811485,25.7243235 4.96160544,25.1714412 4.62247247,24.7251471 C4.45235835,24.5012059 4.33163632,24.3043529 4.25884653,24.1562941 C4.18605682,24.0084118 4.17440271,23.8872647 4.17440271,23.9444412 C4.17440271,24.0017941 4.18605682,23.8809118 4.25884653,23.7325 C4.33163624,23.5845294 4.45235853,23.3859118 4.62247247,23.1619706 C4.96160315,22.7155 5.49812156,22.1629706 6.25965082,21.6282647 Z M21.5078126,21.6476765 C22.2548196,22.1762941 22.7840911,22.7214118 23.1191408,23.1625 C23.2892549,23.3864412 23.4099767,23.5849706 23.4827673,23.7329412 C23.5555614,23.8809118 23.5672085,24.0020588 23.5672085,23.9448824 C23.5672085,23.8875294 23.5555526,24.0092941 23.4827673,24.1568235 C23.4099732,24.3047941 23.2892558,24.5016471 23.1191408,24.7255882 C22.7840823,25.1666765 22.2548488,25.7117941 21.5078126,26.2404118 L21.5078126,21.6476765 Z M10.7265626,23.2522353 L10.7265626,23.5037941 L10.3422573,23.5037941 L10.3422573,24.3861471 L10.7265626,24.3861471 L10.7265626,24.6360294 L11.6089155,24.6360294 L11.6089155,24.3861471 L12.5291823,24.3861471 L12.5291823,24.6360294 L13.4115352,24.6360294 L13.4115352,24.3861471 L14.331802,24.3861471 L14.331802,24.6360294 L15.2141549,24.6360294 L15.2141549,24.3861471 L16.1326985,24.3861471 L16.1326985,24.6360294 L17.0150514,24.6360294 L17.0150514,24.3861471 L17.4010808,24.3861471 L17.4010808,23.5037941 L17.0150514,23.5037941 L17.0150514,23.2522353 L16.1326985,23.2522353 L16.1326985,23.5037941 L15.2141549,23.5037941 L15.2141549,23.2522353 L14.331802,23.2522353 L14.331802,23.5037941 L13.4115352,23.5037941 L13.4115352,23.2522353 L12.5291823,23.2522353 L12.5291823,23.5037941 L11.6089155,23.5037941 L11.6089155,23.2522353 L10.7265626,23.2522353 Z" id="Shape" fill="#000000" fill-rule="nonzero"></path>
            <path d="M5.99253224,10.4819412 C6.67093591,10.4819412 7.30102141,10.6585 7.86408559,10.9472059 C7.70765844,11.3525588 7.57536726,11.7833235 7.48494947,12.2466471 L6.87488518,12.2466471 L6.87488518,13.129 L7.35914526,13.129 C7.33244262,13.4168235 7.31606174,13.7110882 7.31606174,14.0113529 L6.87488526,14.0113529 L6.87488526,14.8937059 L7.37120879,14.8937059 C7.39942115,15.1978529 7.44441056,15.4892941 7.50045974,15.7760588 L6.87488526,15.7760588 L6.87488526,16.6584118 L7.72104797,16.6584118 C7.87490147,17.143 8.07072126,17.5855882 8.30353847,17.9801765 C7.64554176,18.4267353 6.85079191,18.6885294 5.99253232,18.6885294 C5.16457176,18.6885294 4.39794947,18.4412941 3.75390638,18.0233235 C3.9975235,17.6185882 4.19929476,17.1599412 4.35880071,16.6584118 L5.11017938,16.6584118 L5.11017938,15.7760588 L4.58111226,15.7760588 C4.63729962,15.4893824 4.68205838,15.1976765 4.71036321,14.8937059 L5.11017938,14.8937059 L5.11017938,14.0113529 L4.76551026,14.0113529 C4.76551026,13.7110882 4.74912938,13.4168235 4.72242674,13.129 L5.11017947,13.129 L5.11017947,12.2466471 L4.59662253,12.2466471 C4.50303374,11.7670882 4.36612838,11.3214118 4.20197632,10.9041471 C4.74468268,10.6411176 5.34701897,10.4819412 5.99253241,10.4819412 L5.99253224,10.4819412 Z" id="Path" fill="#FFFFFF"></path>
            <path d="M3.44025744,11.3866176 C3.5379055,11.6568824 3.62310321,11.9417059 3.69014253,12.2465588 L3.34547341,12.2465588 L3.34547341,13.1289118 L3.83662688,13.1289118 C3.86631453,13.4149706 3.88315688,13.7097647 3.88315688,14.0112647 L3.34547306,14.0112647 L3.34547306,14.8936176 L3.8262865,14.8936176 C3.79392974,15.2012059 3.7426615,15.4921176 3.67980206,15.7759706 L3.34547306,15.7759706 L3.34547306,16.6583235 L3.42474718,16.6583235 C3.31764532,16.9511765 3.19572259,17.2176471 3.05939782,17.4596765 C2.33153174,16.7198235 1.88235974,15.7073235 1.88235285,14.5851471 C1.88236079,13.2831471 2.49672894,12.1375882 3.44025726,11.3866176 L3.44025744,11.3866176 Z" id="Path" fill="#FFFFFF"></path>
            <path d="M8.61891082,11.4466176 C9.51981612,12.1984706 10.1027038,13.3171176 10.1027117,14.5847059 C10.1027046,15.6742353 9.67321141,16.6548824 8.98253641,17.3885588 C8.85387435,17.1507647 8.740762,16.8903824 8.63959141,16.6061765 L8.63959141,15.7755294 L8.40176906,15.7755294 C8.33891024,15.4917647 8.287642,15.2008529 8.25528524,14.8931765 L8.63959141,14.8931765 L8.63959141,14.0108235 L8.19841494,14.0108235 C8.19841494,13.7094118 8.21525906,13.4145294 8.24494141,13.1284706 L8.63958788,13.1284706 L8.63958788,12.2461176 L8.39142612,12.2461176 C8.45341141,11.9642059 8.53060406,11.6991471 8.61890729,11.4466176 L8.61891082,11.4466176 Z" id="Path" fill="#FFFFFF"></path>
            <path d="M19.5449223,20.6233529 C19.9258517,20.7827059 20.3073855,20.9412647 20.6254596,21.118 L20.6254596,26.7688529 C20.3074005,26.9455882 19.9258464,27.1038824 19.5449223,27.2634118 L19.5449223,20.6233529 Z" id="Path" fill="#FFFFFF"></path>
            <path d="M8.17428788,20.6339412 L8.17428788,27.2549412 C7.81174971,27.1021176 7.44748459,26.9499118 7.14200376,26.7810294 L7.14200376,21.1078529 C7.44748459,20.9389706 7.81174962,20.7867647 8.17428788,20.6339412 Z" id="Path" fill="#FFFFFF"></path>
            <path d="M19.2915908,1.903 L19.2915908,9.63408824 L16.3326061,9.63408824 C16.3047414,7.62955882 15.9555035,5.52867647 15.1865814,3.31105882 C16.3611626,2.49144118 17.7682923,1.98655882 19.2915908,1.903 Z" id="Path" fill="#FFFFFF"></path>
            <path d="M20.1739438,1.903 C21.6976085,1.98682353 23.1044699,2.49108824 24.2789523,3.31105882 C23.5099879,5.52876471 23.1611558,7.62955882 23.1329276,9.63408824 L20.1739438,9.63408824 L20.1739438,1.903 Z" id="Path" fill="#FFFFFF"></path>
            <path d="M14.4403729,3.90567647 C15.1079646,5.92070588 15.4299661,7.82323529 15.4571461,9.63408824 L11.800207,9.63408824 C11.8492041,7.35602941 12.8576029,5.32 14.4403729,3.90567647 Z" id="Path" fill="#FFFFFF"></path>
            <path d="M25.0251608,3.90567647 C26.6072505,5.32 27.6146311,7.35620588 27.6636035,9.63408824 L24.0066644,9.63408824 C24.0341849,7.82314706 24.3574967,5.92070588 25.0251608,3.90567647 Z" id="Path" fill="#FFFFFF"></path>
            <path d="M11.8277805,10.5163529 L15.4536996,10.5163529 C15.3871173,12.3303824 15.0289323,14.0544118 14.4524364,15.7155294 C12.9885873,14.4133529 12.0115782,12.5819412 11.8277805,10.5163529 Z" id="Path" fill="#FFFFFF"></path>
            <path d="M16.3291596,10.5163529 L19.2915908,10.5163529 L19.2915908,17.7061176 C17.7668964,17.6222941 16.358362,17.1170588 15.1831349,16.2963824 C15.848167,14.4634706 16.2588149,12.5422353 16.3291596,10.5163529 Z" id="Path" fill="#FFFFFF"></path>
            <path d="M20.1739438,10.5163529 L23.1346508,10.5163529 C23.2046126,12.5423235 23.6156699,14.4634706 24.2806755,16.2963824 C23.1057758,17.1169706 21.6985129,17.6225588 20.1739438,17.7061176 L20.1739438,10.5163529 Z" id="Path" fill="#FFFFFF"></path>
            <path d="M24.0101108,10.5163529 L27.6360299,10.5163529 C27.4522949,12.5822941 26.475127,14.4133529 25.0113749,15.7155294 C24.4349399,14.0543235 24.0763446,12.3302941 24.0101108,10.5163529 Z" id="Path" fill="#FFFFFF"></path>
        </g>
    </g>
</svg>