<?xml version="1.0" encoding="UTF-8" standalone="no"?>
<svg width="60px" height="60px" viewBox="0 0 60 60" version="1.1" xmlns="http://www.w3.org/2000/svg" xmlns:xlink="http://www.w3.org/1999/xlink">
    <!-- Generator: Sketch 48.2 (47327) - http://www.bohemiancoding.com/sketch -->
    <title>Icon/Competitions/Sports Large</title>
    <desc>Created with Sketch.</desc>
    <defs></defs>
    <g id="Symbols" stroke="none" stroke-width="1" fill="none" fill-rule="evenodd">
        <g id="Icon/Competitions/Sports-Large">
            <g id="Icon/Competitions/Sports">
                <path d="M39.4655346,2 C29.7312228,2 21.818474,9.89652941 21.8184758,19.6126471 C21.818474,29.3291176 29.7312228,37.2217647 39.4655346,37.2217647 C49.1998464,37.2217647 57.1091469,29.3289412 57.1091452,19.6126471 C57.1091469,9.89635294 49.1998464,2 39.4655346,2 Z M11.9850645,19.1991765 C6.48143229,19.1991765 2.00003371,23.6735882 2,29.1704706 C2.00003371,34.6675294 6.48143229,39.1417647 11.9850645,39.1417647 C17.4886975,39.1417647 21.9700958,34.6675294 21.9701293,29.1704706 C21.9700958,23.6735882 17.4886975,19.1991765 11.9850645,19.1991765 Z M27.7433381,37.3175882 C23.9748528,37.3175882 20.7853534,37.8429412 18.1132816,38.6582353 L18.1132816,38.6405882 L16.9310664,39.0644706 C16.9250664,39.0644706 16.9199487,39.0644706 16.9137722,39.0644706 C16.1721987,39.3307647 15.4679882,39.6145294 14.8147379,39.9192941 C14.1536964,40.2275882 13.5269259,40.5489412 12.9535246,40.8844118 C12.8955929,40.9179412 12.8382435,40.9497059 12.7811905,40.985 L12.519242,41.1402941 L12.519242,41.1579412 C12.1769071,41.3697059 11.8327861,41.5821765 11.5231481,41.7990588 C9.84374318,42.9755882 8.64006218,44.2018824 7.84208212,45.2525882 C7.44309165,45.7777647 7.143791,46.2598824 6.93560229,46.6830588 C6.72741359,47.1062353 6.58403971,47.4256471 6.58403971,47.8858824 C6.58403971,48.3461176 6.72741324,48.6657059 6.93560229,49.0888824 C7.14379135,49.5120588 7.44309253,49.9902941 7.84208212,50.5156471 C8.64006076,51.5661765 9.84374406,52.7928235 11.5231481,53.9693529 C11.8327857,54.1862353 12.1769072,54.3987059 12.519242,54.6104706 L12.519242,54.6281176 L12.8259975,54.8107647 C12.8562304,54.8284118 12.8851328,54.8478235 12.915611,54.8654706 L12.9535239,54.8866471 C12.9865239,54.9060588 13.0270734,54.9219412 13.0603716,54.9413529 C13.5870059,55.2455882 14.1534008,55.535 14.752697,55.8168235 C14.8180035,55.8468235 14.8864599,55.8768235 14.952605,55.9068235 C15.5486796,56.1805294 16.1833929,56.4401176 16.8517322,56.6822353 C16.8794558,56.6998824 16.9031734,56.7034118 16.9310028,56.714 L18.1132181,57.1345294 L18.1132181,57.1168824 C20.7852916,57.9332353 23.9747893,58.4610588 27.7432746,58.4610588 C31.4899552,58.4610588 34.6624569,57.9388824 37.3250752,57.1306471 L37.3250752,57.1518235 L38.5003975,56.7312941 C38.5150446,56.7312941 38.5271505,56.7136471 38.5417622,56.7136471 C39.2668728,56.4540588 39.9551116,56.1761176 40.5959911,55.8796471 C40.6345675,55.862 40.6748911,55.8461176 40.7131852,55.8284706 C41.3753628,55.5177059 42.0040252,55.1974118 42.5778458,54.8598235 C42.6057105,54.8421765 42.6329046,54.8280588 42.6605575,54.8121765 L43.0155669,54.6053529 L43.0155669,54.5841765 C43.3398034,54.3824706 43.668764,54.1804118 43.9634081,53.9741176 C45.6428134,52.7975882 46.8464928,51.5709412 47.6444734,50.5204118 C48.0434646,49.9950588 48.3393175,49.5168235 48.5475069,49.0936471 C48.7556964,48.6704706 48.8990699,48.3508824 48.8990699,47.8904706 C48.8990699,47.4302353 48.7557052,47.1108235 48.5475069,46.6878235 C48.3393175,46.2646471 48.0434646,45.7825294 47.6444734,45.2573529 C46.8464928,44.2066471 45.6428152,42.9803529 43.9634081,41.8036471 C43.668764,41.5973529 43.3398034,41.3954706 43.0155669,41.1935882 L43.0155669,41.1724118 L42.6605575,40.9657647 C42.6329046,40.9481176 42.6056928,40.934 42.5778458,40.9181176 C42.0059081,40.5821176 41.3797905,40.2593529 40.7200781,39.9496471 C40.6717781,39.9267059 40.6206193,39.9072941 40.5718781,39.8843529 C39.9388075,39.5924706 39.2602358,39.3198235 38.5452228,39.0641176 C38.5302228,39.0641176 38.5154169,39.0464706 38.5004169,39.0464706 L37.3250946,38.6294706 L37.3250946,38.6471176 C34.6624764,37.8397647 31.4899746,37.3202353 27.743294,37.3202353 L27.7433381,37.3175882 Z M27.7433381,39.0822941 C31.5820622,39.0822941 34.7363134,39.6517647 37.3251387,40.4988235 L37.3251387,55.2713529 C34.7362675,56.1192941 31.5821822,56.6947647 27.7433381,56.6947647 C23.8804146,56.6947647 20.7119575,56.1145294 18.1132816,55.2575882 L18.1132816,40.5161176 C20.7121075,39.6600588 23.8800069,39.0822941 27.7433381,39.0822941 Z M12.5193016,43.2565294 L12.5193016,52.5178824 C10.9962297,51.4486471 9.92321088,50.3428824 9.24494494,49.4502941 C8.90471671,49.0024118 8.66327265,48.6087059 8.51769306,48.3125882 C8.37211365,48.0168235 8.34880541,47.7745294 8.34880541,47.8888824 C8.34880541,48.0035882 8.37211365,47.7618235 8.51769306,47.465 C8.66327247,47.1690588 8.90471706,46.7718235 9.24494494,46.3239412 C9.92320629,45.431 10.9962431,44.3259412 12.5193016,43.2565294 Z M43.0156252,43.2953529 C44.5096393,44.3525882 45.5681822,45.4428235 46.2382816,46.325 C46.5785099,46.7728824 46.8199534,47.1699412 46.9655346,47.4658824 C47.1111228,47.7618235 47.1344169,48.0041176 47.1344169,47.8897647 C47.1344169,47.7750588 47.1111052,48.0185882 46.9655346,48.3136471 C46.8199464,48.6095882 46.5785116,49.0032941 46.2382816,49.4511765 C45.5681646,50.3333529 44.5096975,51.4235882 43.0156252,52.4808235 L43.0156252,43.2953529 Z M21.4531252,46.5044706 L21.4531252,47.0075882 L20.6845146,47.0075882 L20.6845146,48.7722941 L21.4531252,48.7722941 L21.4531252,49.2720588 L23.2178311,49.2720588 L23.2178311,48.7722941 L25.0583646,48.7722941 L25.0583646,49.2720588 L26.8230705,49.2720588 L26.8230705,48.7722941 L28.663604,48.7722941 L28.663604,49.2720588 L30.4283099,49.2720588 L30.4283099,48.7722941 L32.2653969,48.7722941 L32.2653969,49.2720588 L34.0301028,49.2720588 L34.0301028,48.7722941 L34.8021616,48.7722941 L34.8021616,47.0075882 L34.0301028,47.0075882 L34.0301028,46.5044706 L32.2653969,46.5044706 L32.2653969,47.0075882 L30.4283099,47.0075882 L30.4283099,46.5044706 L28.663604,46.5044706 L28.663604,47.0075882 L26.8230705,47.0075882 L26.8230705,46.5044706 L25.0583646,46.5044706 L25.0583646,47.0075882 L23.2178311,47.0075882 L23.2178311,46.5044706 L21.4531252,46.5044706 Z" id="Shape" fill="#000000" fill-rule="nonzero"></path>
                <path d="M11.9850645,20.9638824 C13.3418718,20.9638824 14.6020428,21.317 15.7281712,21.8944118 C15.4153169,22.7051176 15.1507345,23.5666471 14.9698989,24.4932941 L13.7497704,24.4932941 L13.7497704,26.258 L14.7182905,26.258 C14.6648852,26.8336471 14.6321235,27.4221765 14.6321235,28.0227059 L13.7497705,28.0227059 L13.7497705,29.7874118 L14.7424176,29.7874118 C14.7988423,30.3957059 14.8888211,30.9785882 15.0009195,31.5521176 L13.7497705,31.5521176 L13.7497705,33.3168235 L15.4420959,33.3168235 C15.7498029,34.286 16.1414425,35.1711765 16.6070769,35.9603529 C15.2910835,36.8534706 13.7015838,37.3770588 11.9850646,37.3770588 C10.3291435,37.3770588 8.79589894,36.8825882 7.50781276,36.0466471 C7.995047,35.2371765 8.39858953,34.3198824 8.71760141,33.3168235 L10.2203588,33.3168235 L10.2203588,31.5521176 L9.16222453,31.5521176 C9.27459924,30.9787647 9.36411676,30.3953529 9.42072641,29.7874118 L10.2203588,29.7874118 L10.2203588,28.0227059 L9.53102053,28.0227059 C9.53102053,27.4221765 9.49825876,26.8336471 9.44485347,26.258 L10.2203589,26.258 L10.2203589,24.4932941 L9.19324506,24.4932941 C9.00606747,23.5341765 8.73225676,22.6428235 8.40395265,21.8082941 C9.48936535,21.2822353 10.6940379,20.9638824 11.9850648,20.9638824 L11.9850645,20.9638824 Z" id="Path" fill="#FDE966"></path>
                <path d="M6.88051488,22.7732353 C7.075811,23.3137647 7.24620641,23.8834118 7.38028506,24.4931176 L6.69094682,24.4931176 L6.69094682,26.2578235 L7.67325376,26.2578235 C7.73262906,26.8299412 7.76631376,27.4195294 7.76631376,28.0225294 L6.69094612,28.0225294 L6.69094612,29.7872353 L7.652573,29.7872353 C7.58785947,30.4024118 7.485323,30.9842353 7.35960412,31.5519412 L6.69094612,31.5519412 L6.69094612,33.3166471 L6.84949435,33.3166471 C6.63529065,33.9023529 6.39144518,34.4352941 6.11879565,34.9193529 C4.66306347,33.4396471 3.76471947,31.4146471 3.76470571,29.1702941 C3.76472159,26.5662941 4.99345788,24.2751765 6.88051453,22.7732353 L6.88051488,22.7732353 Z" id="Path" fill="#FDE966"></path>
                <path d="M17.2378216,22.8932353 C19.0396322,24.3969412 20.2054075,26.6342353 20.2054234,29.1694118 C20.2054093,31.3484706 19.3464228,33.3097647 17.9650728,34.7771176 C17.7077487,34.3015294 17.481524,33.7807647 17.2791828,33.2123529 L17.2791828,31.5510588 L16.8035381,31.5510588 C16.6778205,30.9835294 16.575284,30.4017059 16.5105705,29.7863529 L17.2791828,29.7863529 L17.2791828,28.0216471 L16.3968299,28.0216471 C16.3968299,27.4188235 16.4305181,26.8290588 16.4898828,26.2569412 L17.2791758,26.2569412 L17.2791758,24.4922353 L16.7828522,24.4922353 C16.9068228,23.9284118 17.0612081,23.3982941 17.2378146,22.8932353 L17.2378216,22.8932353 Z" id="Path" fill="#FDE966"></path>
                <path d="M39.0898446,41.2467059 C39.8517034,41.5654118 40.6147711,41.8825294 41.2509193,42.236 L41.2509193,53.5377059 C40.6148011,53.8911765 39.8516928,54.2077647 39.0898446,54.5268235 L39.0898446,41.2467059 Z" id="Path" fill="#4ABB8B"></path>
                <path d="M16.3485758,41.2678824 L16.3485758,54.5098824 C15.6234994,54.2042353 14.8949692,53.8998235 14.2840075,53.5620588 L14.2840075,42.2157059 C14.8949692,41.8779412 15.6234992,41.5735294 16.3485758,41.2678824 Z" id="Path" fill="#4ABB8B"></path>
                <path d="M38.5831816,3.806 L38.5831816,19.2681765 L32.6652122,19.2681765 C32.6094828,15.2591176 31.9110069,11.0573529 30.3731628,6.62211765 C32.7223252,4.98288235 35.5365846,3.97311765 38.5831816,3.806 Z" id="Path" fill="#F79975"></path>
                <path d="M40.3478875,3.806 C43.3952169,3.97364706 46.2089399,4.98217647 48.5579046,6.62211765 C47.0199758,11.0575294 46.3223116,15.2591176 46.2658552,19.2681765 L40.3478875,19.2681765 L40.3478875,3.806 Z" id="Path" fill="#F79975"></path>
                <path d="M28.8807458,7.81135294 C30.2159293,11.8414118 30.8599322,15.6464706 30.9142922,19.2681765 L23.600414,19.2681765 C23.6984081,14.7120588 25.7152058,10.64 28.8807458,7.81135294 Z" id="Path" fill="#F79975"></path>
                <path d="M50.0503216,7.81135294 C53.2145011,10.64 55.2292622,14.7124118 55.3272069,19.2681765 L48.0133287,19.2681765 C48.0683699,15.6462941 48.7149934,11.8414118 50.0503216,7.81135294 Z" id="Path" fill="#F79975"></path>
                <path d="M23.6555611,21.0327059 L30.9073993,21.0327059 C30.7742346,24.6607647 30.0578646,28.1088235 28.9048728,31.4310588 C25.9771746,28.8267059 24.0231564,25.1638824 23.6555611,21.0327059 Z" id="Path" fill="#F79975"></path>
                <path d="M32.6583193,21.0327059 L38.5831816,21.0327059 L38.5831816,35.4122353 C35.5337928,35.2445882 32.716724,34.2341176 30.3662699,32.5927647 C31.696334,28.9269412 32.5176299,25.0844706 32.6583193,21.0327059 Z" id="Path" fill="#F79975"></path>
                <path d="M40.3478875,21.0327059 L46.2693016,21.0327059 C46.4092252,25.0846471 47.2313399,28.9269412 48.5613511,32.5927647 C46.2115516,34.2339412 43.3970258,35.2451176 40.3478875,35.4122353 L40.3478875,21.0327059 Z" id="Path" fill="#F79975"></path>
                <path d="M48.0202216,21.0327059 L55.2720599,21.0327059 C54.9045899,25.1645882 52.950254,28.8267059 50.0227499,31.4310588 C48.8698799,28.1086471 48.1526893,24.6605882 48.0202216,21.0327059 Z" id="Path" fill="#F79975"></path>
            </g>
        </g>
    </g>
</svg>