<?xml version="1.0" encoding="UTF-8" standalone="no"?>
<svg width="30px" height="30px" viewBox="0 0 30 30" version="1.1" xmlns="http://www.w3.org/2000/svg" xmlns:xlink="http://www.w3.org/1999/xlink">
    <!-- Generator: Sketch 48.2 (47327) - http://www.bohemiancoding.com/sketch -->
    <title>Icon/Competitions/Tech</title>
    <desc>Created with Sketch.</desc>
    <defs></defs>
    <g id="Symbols" stroke="none" stroke-width="1" fill="none" fill-rule="evenodd">
        <g id="Icon/Competitions/Tech">
            <path d="M16.2227864,15 L16.2325486,15 C16.8499247,15.5671069 17.5231811,16.0770688 18.2206747,16.5422502 L11,16.5422502 C11.6978302,16.0767346 12.37075,15.5671069 12.9881261,15 L12.9978883,15 L16.2227864,15 Z" id="Path" fill="#FFFFFF"></path>
            <path d="M14.5978821,27.9486156 C13.3429322,27.9409294 12.0186369,27.2251114 11,26 L18.1950909,26 C17.1767907,27.2251114 15.8524954,27.9405952 14.5978821,27.9486156 Z" id="Path" fill="#FFFFFF"></path>
            <path d="M20.8233919,22.541916 L9.47498238,22.541916 C9.29926246,22.0503342 9.14071058,21.5346913 9,21 L21.2987109,21 C21.1580004,21.5350255 20.9987752,22.0506684 20.8233919,22.541916 Z" id="Path" fill="#FFFFFF"></path>
            <rect id="Rectangle-9" stroke="#000000" stroke-width="1.5" x="4.75" y="3.75" width="20.5" height="16.5" rx="3"></rect>
            <path d="M11.7674808,23.5 L1,23.5 C0.723857625,23.5 0.5,23.7238576 0.5,24 L0.5,26 C0.5,26.2761424 0.723857625,26.5 1,26.5 L29,26.5 C29.2761424,26.5 29.5,26.2761424 29.5,26 L29.5,24 C29.5,23.7238576 29.2761424,23.5 29,23.5 L18.2325192,23.5 C17.8819618,24.1070775 17.2283567,24.5 16.5,24.5 L13.5,24.5 C12.7716433,24.5 12.1180382,24.1070775 11.7674808,23.5 Z" id="Combined-Shape" stroke="#000000"></path>
        </g>
    </g>
</svg>