<?xml version="1.0" encoding="UTF-8" standalone="no"?>
<svg width="40px" height="40px" viewBox="0 0 40 40" version="1.1" xmlns="http://www.w3.org/2000/svg" xmlns:xlink="http://www.w3.org/1999/xlink">
    <!-- Generator: Sketch 48.2 (47327) - http://www.bohemiancoding.com/sketch -->
    <title>Icon/Thumb</title>
    <desc>Created with Sketch.</desc>
    <defs></defs>
    <g id="Symbols" stroke="none" stroke-width="1" fill="none" fill-rule="evenodd">
        <g id="Icon/Thumb">
            <rect id="Rectangle" x="0" y="0" width="40" height="40"></rect>
            <path d="M17.0661577,4.67205116 C16.8523902,10.3080047 16.0536926,13.6567023 12.269646,18.8871674 C12.1541112,17.9731209 11.3821577,17.2592605 10.4382507,17.2592605 L2.06615721,17.2592605 C1.04350619,17.2592605 0.205692233,18.0970744 0.205692233,19.1197302 L0.205692233,35.8639163 C0.205692233,36.8865674 1.04350619,37.7243814 2.06615721,37.7243814 L10.4382507,37.7243814 C11.2684367,37.7243814 11.9597391,37.1711721 12.1969484,36.4162419 C12.8866693,36.9757767 13.4577856,37.4352651 14.0138321,37.7679628 C14.7245763,38.1932186 15.4842972,38.4341953 16.6301112,38.5528465 C18.9217391,38.7901953 22.8438786,38.616893 31.8335995,38.654614 C31.9399716,38.6499628 32.0445298,38.6085674 32.1242972,38.5383349 C34.0011809,37.0072651 34.6826228,35.6633116 34.987646,34.0034512 C35.1829484,34.0374047 35.3343437,33.952707 35.4527623,33.8290326 C36.8638786,32.0654512 37.2295995,30.0441488 36.7463902,28.4220558 L36.9498786,28.4220558 C37.0888088,28.4221023 37.2263902,28.3561023 37.3132274,28.2476372 C38.7651344,26.4331256 39.1261577,24.3396372 38.5777856,22.6953116 C38.5498786,22.6038233 38.493367,22.5213581 38.4178786,22.4627535 C39.4725763,21.3550791 39.9069949,20.0395442 39.769646,18.8435395 C39.5397856,17.143214 38.3643437,16.0937256 37.4149949,15.8639116 L24.9149949,15.8639116 C25.7433205,11.0205628 25.2478786,6.54730698 23.679553,3.7854 C22.873274,2.36567907 21.7597856,1.62874884 20.6708088,1.47437674 C18.4188088,1.27749302 17.1471344,2.98879535 17.0661577,4.67205116 Z" id="Path" fill="#000000"></path>
            <path d="M22.8801112,4.25056279 C24.3301112,6.80391163 24.8791809,11.3487488 23.9411344,16.2418186 C23.8903902,16.5077256 24.1210879,16.7904698 24.3917391,16.7941442 L37.2842042,16.7941442 C38.1752274,17.2117721 38.7450414,18.011307 38.8539716,18.9598651 C38.961367,19.8955442 38.5988553,20.960986 37.647553,21.9104279 L32.7529298,21.9104279 C32.5072088,21.9057767 32.2812088,22.1297767 32.2812088,22.3755442 C32.2812088,22.6213116 32.5072088,22.8441488 32.7529298,22.8406605 L37.6766228,22.8406605 C37.6768553,22.8951256 37.6868553,22.9494977 37.70546,23.0005674 C38.1241112,24.2558698 37.8585763,25.9341953 36.6880181,27.4918233 L31.8226972,27.4918233 C31.5769763,27.4871721 31.3509763,27.7111721 31.3509763,27.9569395 C31.3509763,28.202707 31.5769763,28.4255442 31.8226972,28.4220558 L35.8161577,28.4220558 C35.8163902,28.4765209 35.8263902,28.530893 35.8449949,28.5819628 C36.263646,29.8372651 35.9981112,31.5155907 34.827553,33.0732186 L30.8924647,33.0732186 C30.6467437,33.0685674 30.4207437,33.2925674 30.4207437,33.5383349 C30.4207437,33.7841023 30.6467437,34.0069395 30.8924647,34.0034512 L34.0283902,34.0034512 C33.751553,35.3958698 33.2492274,36.3972186 31.6591809,37.7243814 C22.8195995,37.6904279 18.8449019,37.8414977 16.7318321,37.6226605 C15.6662507,37.5122884 15.0918786,37.3266605 14.4935065,36.9685674 C13.915274,36.622614 13.2799716,36.0801023 12.2987158,35.2970791 L12.2987158,20.4133581 C16.7746228,14.5137256 17.7666228,10.7594 17.9963902,4.70112093 C18.5388553,1.29446977 21.9634135,2.17912093 22.8801112,4.25056279 Z" id="Path" fill="#FCDDD2"></path>
            <path d="M2.06615721,18.189493 L10.4382507,18.189493 C10.961646,18.189493 11.3684833,18.5963302 11.3684833,19.1197302 L11.3684833,35.8639163 C11.3684833,36.3873116 10.961646,36.7941488 10.4382507,36.7941488 L2.06615721,36.7941488 C1.54276186,36.7941488 1.13592479,36.3873116 1.13592479,35.8639163 L1.13592479,19.1197302 C1.13592479,18.5963302 1.54276186,18.189493 2.06615721,18.189493 Z" id="Path" fill="#FFFFFF"></path>
        </g>
    </g>
</svg>