<?xml version="1.0" encoding="UTF-8" standalone="no"?>
<svg width="100px" height="100px" viewBox="0 0 100 100" version="1.1" xmlns="http://www.w3.org/2000/svg" xmlns:xlink="http://www.w3.org/1999/xlink">
    <!-- Generator: Sketch 48.2 (47327) - http://www.bohemiancoding.com/sketch -->
    <title>Icon/Workstyle/Independent/Inactive</title>
    <desc>Created with Sketch.</desc>
    <defs></defs>
    <g id="Symbols" stroke="none" stroke-width="1" fill="none" fill-rule="evenodd">
        <g id="Icon/Workstyle/Independent/Inactive">
            <circle id="Oval-Copy" fill-opacity="0.5" fill="#FCDDD2" cx="50" cy="50" r="50"></circle>
            <g id="Independent-Worker" transform="translate(24.000000, 15.000000)" fill-rule="nonzero" stroke="#000000" stroke-width="1.5">
                <path d="M3.60842686,41.3856395 C3.58627471,43.4358435 4.25400377,45.7478046 5.86161688,47.5339911 C5.87834401,47.5534308 5.89235864,47.5742267 5.90953786,47.5932142 C7.11886436,48.9336453 8.73506708,49.9087919 10.6008205,50.5471355 C11.4096,50.8238113 12.2762463,51.0390036 13.1957866,51.206727 L13.1957866,43.7848529 C13.1121509,43.7590841 13.0276111,43.7337673 12.9512088,43.7070943 C11.9706371,43.3671267 11.5117712,43.0022943 11.2775913,42.7446061 C11.2771392,42.744154 11.276235,42.7437019 11.275783,42.7427977 C10.9850925,42.3933363 10.8643859,42.130223 10.8422338,41.3856395 C10.8318358,40.6057935 11.1225262,39.3878773 11.7179218,38.0827089 C12.1085229,37.2065688 12.627064,36.2996869 13.1962387,35.4276156 L13.1962387,35.3385549 L13.1962387,34.4343856 L14.100408,34.4343856 L23.3749251,34.4343856 L23.6940969,32.0853536 C24.2804507,32.3050667 24.8975463,32.4198962 25.5141898,32.4194442 L25.515094,32.4194442 C25.515094,32.4194442 25.5169023,32.4194442 25.5178065,32.4194442 C26.1339979,32.4194442 26.7497372,32.3046147 27.335639,32.0849015 L27.6543587,34.4343856 L36.9297799,34.4343856 L37.8348535,34.4343856 L37.8348535,35.3385549 L37.8348535,35.4303281 C38.131421,35.8842211 38.4162344,36.3457996 38.6721143,36.8114468 C39.6612756,38.5673437 40.2119147,40.3562427 40.1865979,41.3856395 C40.1644458,42.1284147 40.0423829,42.3955967 39.7512404,42.7464144 C39.5157043,43.0036506 39.0581946,43.3680308 38.0789792,43.7070943 C38.003029,43.7333152 37.9189412,43.7590841 37.8353056,43.7848529 L37.8353056,51.206727 C38.7552979,51.0390036 39.62104,50.8238113 40.4293674,50.5471355 C42.295573,49.9087919 43.9117757,48.9336453 45.1211022,47.5932142 C45.1355689,47.5773912 45.1477752,47.5597599 45.1617898,47.5434849 C46.7707592,45.7572983 47.4416528,43.4439811 47.4195007,41.3860916 C47.4091027,39.1184349 46.7648821,37.04201 45.9077295,35.1165813 C44.6034652,32.2349936 42.7598639,29.6685089 41.0062275,27.6843093 C40.1233061,26.6919834 39.2720307,25.8533663 38.4329615,25.1747872 C38.0080019,24.8325591 37.5911798,24.5305666 37.0880096,24.2480137 C36.6544604,24.0355339 36.2154862,23.7624747 35.3669232,23.6426723 C35.0156534,23.523774 34.6408752,23.4568655 34.2489178,23.4568655 L16.7821743,23.4568655 C16.4055878,23.4568655 16.04392,23.518349 15.7039524,23.6282056 C15.1754654,23.6991829 14.8151539,23.8456583 14.5000509,23.9713378 C13.7410007,24.3076888 13.2441596,24.6720691 12.7021101,25.0897953 C10.9019089,26.5342059 8.86888414,28.8077397 7.03929746,31.6188022 C5.26260469,34.4352897 3.65860826,37.6740243 3.60842686,41.3856395 Z M23.7967201,26.5794143 L25.515094,26.5794143 L27.2325637,26.5794143 L28.0915245,29.9700494 L27.9608721,30.1762 C27.2529075,30.7666226 26.3858091,31.062286 25.5141898,31.0631901 C24.6425706,31.062286 23.7768284,30.7670747 23.0693159,30.1780083 L22.9373072,29.9700494 L23.7967201,26.5794143 Z" id="Shape"></path>
                <polygon id="Shape" points="14.100408 35.3385549 14.100408 52.3749138 25.515094 54.5281931 36.9306841 52.3749138 36.9306841 35.3385549"></polygon>
                <path d="M37.325354,69.0532217 C40.3597464,69.626013 43.2820217,67.629607 43.8534568,64.597023 C43.8738006,64.489879 43.8832943,64.383187 43.897309,64.2760429 L27.9518304,67.2846664 L37.325354,69.0532217 Z" id="Shape"></path>
                <path d="M7.30557533,59.8998632 C8.28253032,58.467659 9.75949095,57.5006499 11.4643023,57.1783135 L23.0747409,54.9884153 L6.77301959,51.9119791 C3.73862724,51.3391878 0.816351903,53.3355938 0.244464788,56.3686298 C-0.327422326,59.4012138 1.66627109,62.3248454 4.70066343,62.8971846 L6.19254286,63.1788334 C6.25854723,62.0156195 6.63151708,60.8872162 7.30557533,59.8998632 Z" id="Shape"></path>
                <path d="M11.6324778,58.0684682 C8.59853751,58.6403553 6.604392,61.5639869 7.17718329,64.5965709 C7.7490704,67.6291549 10.6713457,69.6255609 13.7057381,69.0527696 L46.3304287,62.8971846 C49.364821,62.3243934 51.3585144,59.4012138 50.7861753,56.3686298 C50.2138361,53.3351417 47.2920128,51.3391878 44.2576205,51.9119791 L11.6324778,58.0684682 Z" id="Shape"></path>
                <path d="M27.9129511,20.0567366 C32.3732185,18.9785147 35.6869992,14.9626465 35.6869992,10.1719052 C35.6869992,4.55339685 31.1331502,0 25.515094,0 C19.8974898,0 15.3431888,4.55339685 15.3431888,10.1719052 C15.3431888,14.9630986 18.6574215,18.9785147 23.1172369,20.0567366 C23.8862329,20.2425434 24.6886832,20.3438104 25.515094,20.3438104 C26.3415048,20.3438104 27.143503,20.2425434 27.9129511,20.0567366 Z" id="Shape"></path>
            </g>
        </g>
    </g>
</svg>