<?xml version="1.0" encoding="UTF-8" standalone="no"?>
<svg width="30px" height="30px" viewBox="0 0 30 30" version="1.1" xmlns="http://www.w3.org/2000/svg" xmlns:xlink="http://www.w3.org/1999/xlink">
    <!-- Generator: Sketch 48.2 (47327) - http://www.bohemiancoding.com/sketch -->
    <title>Icon/Navigation/Send/Active</title>
    <desc>Created with Sketch.</desc>
    <defs></defs>
    <g id="Symbols" stroke="none" stroke-width="1" fill="none" fill-rule="evenodd">
        <g id="Icon/Navigation/Send/Active">
            <rect id="Background" x="0" y="0" width="30" height="30"></rect>
            <g id="Send-Message" transform="translate(0.000000, 3.000000)" fill="#000000" fill-rule="nonzero">
                <path d="M29.7692308,1.76923077 C29.7692308,1.76923077 29.7692308,1.73076923 29.7692308,1.73076923 C29.8076923,1.69230769 29.8076923,1.61538462 29.8461538,1.57692308 C29.8461538,1.53846154 29.8461538,1.53846154 29.8461538,1.5 C29.8461538,1.46153846 29.8461538,1.42307692 29.8461538,1.34615385 C29.8461538,1.30769231 29.8461538,1.26923077 29.8461538,1.26923077 C29.8461538,1.23076923 29.8461538,1.19230769 29.8461538,1.11538462 C29.8461538,1.07692308 29.8461538,1.03846154 29.8461538,1.03846154 C29.8461538,1.03846154 29.8461538,1 29.8461538,1 C29.8461538,0.961538462 29.8461538,0.961538462 29.8076923,0.923076923 C29.8076923,0.884615385 29.8076923,0.884615385 29.7692308,0.846153846 C29.7692308,0.807692308 29.7307692,0.769230769 29.6923077,0.730769231 C29.6923077,0.692307692 29.6538462,0.692307692 29.6538462,0.653846154 C29.6153846,0.576923077 29.5769231,0.538461538 29.5,0.461538462 C29.5,0.461538462 29.5,0.461538462 29.5,0.461538462 C29.4615385,0.423076923 29.3846154,0.346153846 29.3461538,0.307692308 C29.3461538,0.307692308 29.3461538,0.307692308 29.3461538,0.307692308 C29.3461538,0.307692308 29.3076923,0.307692308 29.3076923,0.269230769 C29.2692308,0.230769231 29.2307692,0.230769231 29.1538462,0.192307692 C29.1153846,0.192307692 29.1153846,0.153846154 29.0769231,0.153846154 C29.0384615,0.153846154 29,0.115384615 28.9230769,0.115384615 C28.8846154,0.115384615 28.8846154,0.115384615 28.8461538,0.0769230769 C28.8076923,0.0769230769 28.7692308,0.0769230769 28.6923077,0.0769230769 C28.6538462,0.0769230769 28.6538462,0.0769230769 28.6153846,0.0769230769 C28.6153846,0.0769230769 28.6153846,0.0769230769 28.5769231,0.0769230769 L1.34615385,0.0769230769 C0.846153846,0.0769230769 0.384615385,0.384615385 0.192307692,0.846153846 C-3.63042929e-14,1.30769231 0.115384615,1.84615385 0.461538462,2.19230769 L9.38461538,11.1153846 L11.3846154,23.5769231 C11.4615385,24.0769231 11.8461538,24.4615385 12.3076923,24.5769231 C12.3846154,24.6153846 12.5,24.6153846 12.6153846,24.6153846 C13,24.6153846 13.3846154,24.4230769 13.6153846,24.1153846 L29.6153846,2.03846154 C29.6153846,2.03846154 29.6153846,2.03846154 29.6153846,2.03846154 C29.6923077,1.92307692 29.7307692,1.84615385 29.7692308,1.76923077 Z M13.0920728,21.4000001 L11.3999996,10.9223882 L26.3999996,3.4000001 L13.0920728,21.4000001 Z M25.0996666,2.07692308 L10.5512795,8.96153846 L3.09966657,2.07692308 L25.0996666,2.07692308 Z" id="Shape"></path>
            </g>
        </g>
    </g>
</svg>