<?xml version="1.0" encoding="UTF-8" standalone="no"?>
<svg width="100px" height="100px" viewBox="0 0 100 100" version="1.1" xmlns="http://www.w3.org/2000/svg" xmlns:xlink="http://www.w3.org/1999/xlink">
    <!-- Generator: Sketch 48.2 (47327) - http://www.bohemiancoding.com/sketch -->
    <title>Icon/Workstyle/Either/Active</title>
    <desc>Created with Sketch.</desc>
    <defs>
        <polygon id="path-1" points="0.134338541 0.639417303 38.8146552 0.639417303 38.8146552 70.6896552 0.134338541 70.6896552"></polygon>
    </defs>
    <g id="Symbols" stroke="none" stroke-width="1" fill="none" fill-rule="evenodd">
        <g id="Icon/Workstyle/Either/Active">
            <circle id="Oval-Copy-2" stroke="#000000" stroke-width="2" fill="#FDF09B" cx="50" cy="50" r="50"></circle>
            <g id="Undecided" transform="translate(23.000000, 13.000000)">
                <path d="M31.3549138,1.67801724 C36.0825,0.773706897 40.1738793,4.86594828 39.2712931,9.59353448 C38.7652586,12.2375 36.6333621,14.3685345 33.9911207,14.8737069 C29.2618103,15.7780172 25.170431,11.6857759 26.0747414,6.95818966 C26.5799138,4.31508621 28.7118103,2.18318966 31.3549138,1.67801724 M31.270431,16.4366379 C36.9325,17.3668103 41.7635345,12.5357759 40.8325,6.8737069 C40.269569,3.44439655 37.5040517,0.67887931 34.0747414,0.115948276 C28.4126724,-0.815086207 23.5816379,4.01594828 24.5126724,9.67801724 C25.0756034,13.1073276 27.8411207,15.8728448 31.270431,16.4366379" id="Fill-1" fill="#000000"></path>
                <g id="Group-5" transform="translate(8.437500, 4.056724)">
                    <mask id="mask-2" fill="white">
                        <use xlink:href="#path-1"></use>
                    </mask>
                    <g id="Clip-4"></g>
                    <path d="M32.9314655,28.9656034 L30.2581897,23.6207759 C30.0857759,23.2759483 29.6547414,23.1035345 29.2237069,23.2759483 C28.8797414,23.4483621 28.7073276,23.8793966 28.8797414,24.310431 L31.3788793,29.310431 L28.5340517,37.2414655 C28.0176724,38.7069828 28.5340517,40.4311207 29.8271552,41.2931897 C30.6038793,41.810431 31.4659483,41.8966379 32.3280172,41.7242241 L35.3452586,66.1207759 C35.4306034,67.0690517 34.8271552,68.0173276 33.8797414,68.2759483 C33.3625,68.4483621 32.8443966,68.3621552 32.3280172,68.1035345 C31.8099138,67.8449138 31.4659483,67.4138793 31.3788793,66.8966379 L24.1383621,41.2931897 C24.0512931,40.9483621 23.7073276,40.6897414 23.3616379,40.7759483 C23.0176724,40.7759483 22.6728448,41.1207759 22.6728448,41.4656034 L19.5693966,67.5000862 C19.4823276,68.534569 18.6202586,69.310431 17.5857759,69.310431 L16.6383621,69.310431 C15.5176724,69.310431 14.6556034,68.3621552 14.6556034,67.3276724 L14.6556034,26.4656034 L14.8280172,22.9311207 C14.8280172,22.6725 14.7409483,22.5000862 14.5685345,22.3276724 C14.3969828,22.2414655 14.224569,22.1552586 14.0521552,22.1552586 L13.8788793,22.1552586 L7.32801724,23.3621552 C7.06939655,23.3621552 6.80991379,23.4483621 6.5512931,23.4483621 C4.13836207,23.4483621 1.88577586,21.3337069 1.36853448,19.0061207 L1.63663793,18.2725 L2.33577586,16.3543966 C2.66163793,15.4612931 2.98663793,14.5690517 3.3125,13.6759483 C3.67887931,12.6716379 4.04525862,11.6673276 4.41163793,10.6621552 C4.76681034,9.68715517 5.12284483,8.71215517 5.47801724,7.73715517 C5.77112069,6.93284483 6.06508621,6.12853448 6.35818966,5.32508621 C6.5375,4.83284483 6.7125,4.34060345 6.89612069,3.85008621 C7.14698276,3.17767241 7.27801724,2.51560345 7.99525862,2.18284483 C8.53577586,1.93284483 9.13836207,2.00956897 9.69094828,2.17594828 C10.2038793,2.33112069 10.6521552,2.54232759 10.9469828,3.01560345 C11.1676724,3.36905172 11.2573276,3.80267241 11.1961207,4.21474138 C11.1099138,4.79232759 10.7797414,5.35525862 10.5538793,5.89405172 C10.3512931,6.37681034 10.149569,6.85956897 9.94956897,7.34318966 C9.44525862,8.55956897 8.94698276,9.77681034 8.45905172,10.9992241 C7.97801724,12.2043966 7.50387931,13.4121552 7.05991379,14.6328448 C6.86163793,15.1802586 6.66681034,15.7293966 6.4987069,16.2871552 C6.41422414,16.5656034 6.58491379,16.9078448 6.73232759,17.1328448 C6.82025862,17.2656034 6.92543103,17.3923276 7.05474138,17.484569 C7.35560345,17.6992241 7.6875,17.6164655 8.00301724,17.4940517 C8.49094828,17.3052586 8.97715517,17.1112931 9.47198276,16.9423276 C10.0711207,16.7380172 10.6771552,16.5509483 11.2814655,16.3621552 C11.7900862,16.2026724 12.2978448,16.0423276 12.8030172,15.8707759 C13.4452586,15.6526724 14.0702586,15.3492241 14.7487069,15.2621552 C15.0668103,15.2216379 15.3987069,15.2311207 15.7211207,15.2181897 C16.3840517,15.1906034 17.0469828,15.1638793 17.7099138,15.1362931 C19.4650862,15.0647414 21.2202586,14.9923276 22.975431,14.9207759 C24.2926724,14.8664655 25.6099138,14.8121552 26.9271552,14.7578448 C27.0599138,14.7526724 27.1943966,14.7414655 27.3280172,14.7414655 L27.9314655,14.7414655 C28.3064655,14.7414655 28.6840517,14.8018103 29.0607759,14.8337069 C29.6271552,14.8828448 30.1926724,14.9975 30.7056034,15.2440517 C31.2219828,15.4906034 31.7021552,15.8087069 32.1383621,16.1785345 C33.1512931,17.0380172 33.900431,18.1699138 34.3961207,19.3966379 C35.3452586,21.7242241 36.2926724,24.6552586 36.9823276,26.7242241 C37.5857759,28.4483621 37.4133621,30.4311207 36.7237069,32.0690517 L33.5340517,39.310431 C33.275431,40.0000862 32.5866379,40.4311207 31.8099138,40.4311207 C31.4659483,40.4311207 31.1202586,40.3449138 30.7762931,40.1725 C30.0857759,39.7414655 29.7418103,38.7931897 30.0857759,37.9311207 L33.0176724,29.6552586 C33.0176724,29.3966379 33.0176724,29.1380172 32.9314655,28.9656034 M0.285775862,18.0750862 C0.0840517241,18.6802586 0.0771551724,19.3423276 0.305603448,19.9388793 C1.30905172,22.560431 3.79439655,24.8276724 6.5512931,24.8276724 C6.89698276,24.8276724 7.24094828,24.8276724 7.58663793,24.7414655 L13.1900862,23.7069828 L13.1038793,26.2931897 L13.1038793,67.1552586 C13.1038793,69.1069828 14.6857759,70.6897414 16.6383621,70.6897414 L17.5857759,70.6897414 C19.3969828,70.6897414 20.8625,69.310431 21.1211207,67.5862931 L23.7926724,45.3449138 L30.000431,67.3276724 C30.2581897,68.2759483 30.8625,68.9656034 31.724569,69.4828448 C32.5866379,69.9138793 33.5340517,70.0000862 34.3961207,69.7414655 C36.0349138,69.2242241 37.0693966,67.6725 36.8969828,65.9483621 L33.8797414,41.1207759 C34.224569,40.7759483 34.5685345,40.3449138 34.8271552,39.9138793 L38.0168103,32.6725 C38.9659483,30.6035345 39.0521552,28.3621552 38.3625,26.2069828 C37.6728448,24.1380172 36.7237069,21.1207759 35.6892241,18.7931897 C35.1512931,17.435431 34.3443966,16.1819828 33.2599138,15.1966379 C32.5564655,14.5587069 31.7469828,14.035431 30.8693966,13.6699138 C29.9125,13.2707759 28.8409483,13.1888793 27.8185345,13.0837069 C27.4547414,13.0457759 27.0892241,13.1035345 26.724569,13.1035345 L22.499569,13.2759483 L18.9659483,13.2759483 C18.4323276,13.2759483 17.8900862,13.3518103 17.3581897,13.3888793 C17.0228448,13.4121552 16.6875,13.4328448 16.3530172,13.4543966 C15.5478448,13.5078448 14.2512931,13.7173276 13.4788793,13.9492241 C12.1107759,14.360431 10.7625,14.8388793 9.42974138,15.3518103 C8.92801724,15.5457759 8.42801724,15.7440517 7.93146552,15.9483621 C8.26853448,15.1285345 8.60560345,14.3087069 8.94353448,13.4888793 C9.61336207,11.860431 10.2840517,10.2319828 10.9538793,8.60353448 C11.2193966,7.95698276 11.5375,7.3112931 11.7581897,6.64836207 C12.0883621,5.6612931 12.7047414,4.80181034 12.6633621,3.70784483 C12.6375,3.02336207 12.3573276,2.35439655 11.899569,1.84663793 C11.0383621,0.889741379 9.58836207,0.577672414 8.34956897,0.649224138 C7.8375,0.678534483 7.32284483,0.801810345 6.88146552,1.06560345 C5.53577586,1.86991379 5.17112069,3.60094828 4.70215517,4.98543103 C4.20991379,6.44146552 3.71681034,7.89836207 3.22456897,9.35525862 C2.69267241,10.9302586 2.16077586,12.5052586 1.62887931,14.0802586 C1.22025862,15.2940517 0.810775862,16.5069828 0.404741379,17.7216379 C0.365086207,17.8388793 0.325431034,17.9569828 0.285775862,18.0750862" id="Fill-3" fill="#000000" mask="url(#mask-2)"></path>
                </g>
                <path d="M48.7848374,11.9888367 C48.902963,11.866336 49.049524,11.8050867 49.2245249,11.8050867 C49.8107778,11.7875866 50.2898355,11.6235257 50.6617124,11.3128992 C51.0335892,11.0022726 51.2195249,10.5582145 51.2195249,9.98071165 C51.2195249,9.48195916 51.0489016,9.0685258 50.7076499,8.74039915 C50.3663982,8.41227251 49.9464024,8.24821165 49.4476499,8.24821165 C49.1676485,8.24821165 48.8985887,8.30727356 48.6404624,8.42539915 C48.3823361,8.54352475 48.1570258,8.70321065 47.9645249,8.90446165 C47.789524,9.06196244 47.6145258,9.14071165 47.4395249,9.14071165 C47.3170243,9.14071165 47.2032754,9.10133705 47.0982749,9.02258665 C46.9057739,8.88258595 46.8095249,8.72071257 46.8095249,8.53696165 C46.8095249,8.37946087 46.8751492,8.23508731 47.0063999,8.10383665 C47.3039014,7.76258495 47.6648353,7.49571262 48.0892124,7.30321165 C48.5135895,7.11071069 48.9663975,7.01446165 49.4476499,7.01446165 C50.0076527,7.01446165 50.5173351,7.14133539 50.9767124,7.39508665 C51.4360897,7.64883792 51.8013985,8.0010219 52.0726499,8.45164915 C52.3439012,8.90227641 52.4795249,9.41195881 52.4795249,9.98071165 C52.4795249,10.5057143 52.3635885,10.9716471 52.1317124,11.3785242 C51.8998362,11.7854012 51.5826519,12.1135229 51.1801499,12.3628992 C50.7776479,12.6122754 50.3226524,12.7632114 49.8151499,12.8157117 C49.8063998,12.8157117 49.8042124,12.8178991 49.8085874,12.8222742 C49.8129624,12.8266492 49.8238998,12.8244617 49.8413999,12.8157117 L49.8413999,13.6819617 C49.8413999,13.8569625 49.782338,14.005711 49.6642124,14.1282117 C49.5460868,14.2507123 49.3995258,14.3119617 49.2245249,14.3119617 C49.040774,14.3119617 48.889838,14.2507123 48.7717124,14.1282117 C48.6535868,14.005711 48.5988998,13.8569625 48.6076499,13.6819617 L48.6076499,12.4482117 C48.6076499,12.2644607 48.6667118,12.1113373 48.7848374,11.9888367 Z M48.6995249,16.5235242 C48.5857743,16.4053986 48.5288999,16.2413377 48.5288999,16.0313367 L48.5288999,15.7819617 C48.5288999,15.5719606 48.5857743,15.4078997 48.6995249,15.2897742 C48.8132754,15.1716486 48.9751488,15.1125867 49.1851499,15.1125867 L49.3163999,15.1125867 C49.5264009,15.1125867 49.6882743,15.1716486 49.8020249,15.2897742 C49.9157754,15.4078997 49.9726499,15.5719606 49.9726499,15.7819617 L49.9726499,16.0313367 C49.9726499,16.2413377 49.9157754,16.4053986 49.8020249,16.5235242 C49.6882743,16.6416497 49.5264009,16.7007117 49.3163999,16.7007117 L49.1851499,16.7007117 C48.9751488,16.7007117 48.8132754,16.6416497 48.6995249,16.5235242 Z" id="?" fill="#000000" transform="translate(49.644525, 11.857587) rotate(11.000000) translate(-49.644525, -11.857587) "></path>
                <path d="M3.64230346,8.50959282 C3.76042905,8.38709221 3.90699008,8.32584282 4.08199096,8.32584282 C4.66824389,8.30834273 5.1473016,8.14428187 5.51917846,7.83365532 C5.89105532,7.52302876 6.07699096,7.07897071 6.07699096,6.50146782 C6.07699096,6.00271532 5.90636766,5.58928196 5.56511596,5.26115532 C5.22386425,4.93302868 4.80386845,4.76896782 4.30511596,4.76896782 C4.02511456,4.76896782 3.75605475,4.82802973 3.49792846,4.94615532 C3.23980217,5.06428091 3.01449192,5.22396681 2.82199096,5.42521782 C2.64699008,5.58271861 2.47199183,5.66146782 2.29699096,5.66146782 C2.17449034,5.66146782 2.06074148,5.62209321 1.95574096,5.54334282 C1.76323999,5.40334212 1.66699096,5.24146874 1.66699096,5.05771782 C1.66699096,4.90021703 1.7326153,4.75584347 1.86386596,4.62459282 C2.16136744,4.28334111 2.52230133,4.01646878 2.94667846,3.82396782 C3.37105558,3.63146686 3.82386355,3.53521782 4.30511596,3.53521782 C4.86511876,3.53521782 5.37480116,3.66209155 5.83417846,3.91584282 C6.29355575,4.16959409 6.6588646,4.52177806 6.93011596,4.97240532 C7.20136731,5.42303257 7.33699096,5.93271497 7.33699096,6.50146782 C7.33699096,7.02647044 7.22105462,7.49240328 6.98917846,7.89928032 C6.7573023,8.30615735 6.44011797,8.63427907 6.03761596,8.88365532 C5.63511394,9.13303156 5.18011849,9.28396756 4.67261596,9.33646782 C4.66386591,9.33646782 4.66167843,9.3386553 4.66605346,9.34303032 C4.67042848,9.34740534 4.68136587,9.34521786 4.69886596,9.33646782 L4.69886596,10.2027178 C4.69886596,10.3777187 4.63980405,10.5264672 4.52167846,10.6489678 C4.40355287,10.7714684 4.25699183,10.8327178 4.08199096,10.8327178 C3.89824004,10.8327178 3.74730405,10.7714684 3.62917846,10.6489678 C3.51105287,10.5264672 3.45636591,10.3777187 3.46511596,10.2027178 L3.46511596,8.96896782 C3.46511596,8.7852169 3.52417787,8.63209343 3.64230346,8.50959282 Z M3.55699096,13.0442803 C3.44324039,12.9261547 3.38636596,12.7620939 3.38636596,12.5520928 L3.38636596,12.3027178 C3.38636596,12.0927168 3.44324039,11.9286559 3.55699096,11.8105303 C3.67074152,11.6924047 3.83261491,11.6333428 4.04261596,11.6333428 L4.17386596,11.6333428 C4.38386701,11.6333428 4.54574039,11.6924047 4.65949096,11.8105303 C4.77324152,11.9286559 4.83011596,12.0927168 4.83011596,12.3027178 L4.83011596,12.5520928 C4.83011596,12.7620939 4.77324152,12.9261547 4.65949096,13.0442803 C4.54574039,13.1624059 4.38386701,13.2214678 4.17386596,13.2214678 L4.04261596,13.2214678 C3.83261491,13.2214678 3.67074152,13.1624059 3.55699096,13.0442803 Z" id="?" fill="#000000" transform="translate(4.501991, 8.378343) rotate(-23.000000) translate(-4.501991, -8.378343) "></path>
            </g>
        </g>
    </g>
</svg>