<?xml version="1.0" encoding="UTF-8" standalone="no"?>
<svg width="100px" height="100px" viewBox="0 0 100 100" version="1.1" xmlns="http://www.w3.org/2000/svg" xmlns:xlink="http://www.w3.org/1999/xlink">
    <!-- Generator: Sketch 48.2 (47327) - http://www.bohemiancoding.com/sketch -->
    <title>Icon/Workstyle/Collaborative/Inactive</title>
    <desc>Created with Sketch.</desc>
    <defs></defs>
    <g id="Symbols" stroke="none" stroke-width="1" fill="none" fill-rule="evenodd">
        <g id="Icon/Workstyle/Collaborative/Inactive">
            <circle id="Oval" fill-opacity="0.5" fill="#C4E9D9" cx="50" cy="50" r="50"></circle>
            <g id="Collaborative-Worker" transform="translate(14.000000, 15.000000)" fill="#000000" fill-rule="nonzero">
                <path d="M54.2347826,15.6516854 C58.3826087,15.6516854 61.7478261,12.2696629 61.7478261,8.1011236 C61.7478261,3.93258427 58.3826087,0.550561798 54.2347826,0.550561798 C50.0869565,0.550561798 46.7217391,3.93258427 46.7217391,8.1011236 C46.7217391,12.2696629 50.0869565,15.6516854 54.2347826,15.6516854 Z M54.2347826,1.96629213 C57.6,1.96629213 60.3391304,4.71910112 60.3391304,8.1011236 C60.3391304,11.4831461 57.6,14.2359551 54.2347826,14.2359551 C50.8695652,14.2359551 48.1304348,11.4831461 48.1304348,8.1011236 C48.1304348,4.71910112 50.8695652,1.96629213 54.2347826,1.96629213 Z" id="Shape"></path>
                <path d="M67.6173913,41.2921348 L70.5130435,34.6853933 C71.373913,32.7977528 71.4521739,30.752809 70.826087,28.7865169 C70.2,26.8988764 69.3391304,24.1460674 68.4,22.0224719 C66.7565217,17.8539326 63.3913043,17.1460674 63.2347826,17.0674157 C63.2347826,17.0674157 63.1565217,17.0674157 63.1565217,17.0674157 L61.826087,16.9101124 C61.7478261,16.8314607 61.6695652,16.8314607 61.5130435,16.8314607 L60.2608696,16.8314607 C60.2608696,16.8314607 60.2608696,16.8314607 60.2608696,16.8314607 C60.2608696,16.8314607 60.2608696,16.8314607 60.2608696,16.8314607 L56.426087,16.988764 L53.2173913,16.988764 C53.2173913,16.988764 53.2173913,16.988764 53.2173913,16.988764 C53.2173913,16.988764 53.2173913,16.988764 53.2173913,16.988764 L49.773913,17.2247191 C49.6956522,17.2247191 49.6956522,17.2247191 49.6173913,17.2247191 C49.6173913,17.2247191 49.6173913,17.2247191 49.6173913,17.2247191 C49.6173913,17.2247191 49.6173913,17.2247191 49.6173913,17.2247191 C47.3478261,17.7752809 44.5304348,18.8764045 43.2,19.4269663 L39.4434783,6.76404494 C39.0521739,5.50561798 37.8782609,4.56179775 36.4695652,4.56179775 C36.2347826,4.56179775 36,4.56179775 35.7652174,4.64044944 C34.6695652,4.87640449 33.8086957,5.74157303 33.4956522,6.76404494 C32.4,7.31460674 31.9304348,8.49438202 31.9304348,8.65168539 L28.7217391,19.4269663 C26.7652174,18.6404494 21.6,16.6741573 19.6434783,16.8314607 C19.5652174,16.8314607 19.4869565,16.8314607 19.4086957,16.8314607 L10.3304348,16.8314607 C10.2521739,16.8314607 10.173913,16.8314607 10.0956522,16.9101124 L8.68695652,16.988764 C8.68695652,16.988764 8.60869565,16.988764 8.60869565,16.988764 C8.45217391,16.988764 5.08695652,17.7752809 3.44347826,21.9438202 C2.8173913,23.5168539 2.11304348,25.5617978 1.25217391,28.0786517 C0.469565217,30.4382022 0.626086957,33.0337079 1.64347826,35.2359551 L4.30434783,41.2134831 C4.53913043,41.6853933 4.85217391,42.0786517 5.24347826,42.3932584 C5.24347826,42.3932584 5.24347826,42.3932584 5.24347826,42.3932584 L5.24347826,66.1460674 C5.24347826,67.9550562 6.65217391,69.3707865 8.45217391,69.3707865 L9.31304348,69.3707865 C10.9565217,69.3707865 12.2869565,68.1123596 12.5217391,66.5393258 L14.8695652,46.247191 L20.5043478,66.3033708 C20.7391304,67.1685393 21.2869565,67.7977528 22.0695652,68.2696629 C22.8521739,68.6629213 23.7130435,68.741573 24.4956522,68.505618 C25.9826087,68.0337079 26.9217391,66.6179775 26.7652174,65.0449438 L23.9478261,38.7752809 L23.9478261,28.7865169 L23.8695652,26.4269663 L28.9565217,27.3707865 C32.0869565,27.8426966 34.9826087,25.8764045 35.7652174,22.8089888 L35.9217391,22.1011236 L36,22.7303371 C36.626087,25.4831461 39.1304348,27.5280899 41.9478261,27.5280899 C42.2608696,27.5280899 42.573913,27.5280899 42.8869565,27.4494382 L47.973913,26.505618 L47.8956522,28.8651685 L47.8956522,66.1460674 C47.8956522,67.9550562 49.3043478,69.3707865 51.1043478,69.3707865 L51.9652174,69.3707865 C53.6086957,69.3707865 54.9391304,68.1123596 55.173913,66.5393258 L57.6,46.247191 L63.2347826,66.3033708 C63.4695652,67.1685393 64.0173913,67.7977528 64.8,68.2696629 C65.5826087,68.6629213 66.4434783,68.741573 67.226087,68.505618 C68.7130435,68.0337079 69.6521739,66.6179775 69.4956522,65.0449438 L66.7565217,42.3932584 C67.0695652,42.0786517 67.3826087,41.6853933 67.6173913,41.2921348 Z M52.7478261,18.4044944 L53.4521739,20.4494382 L52.7478261,24.3820225 L50.7913043,18.5617978 L52.7478261,18.4044944 Z M54.7043478,21.0786517 L55.173913,21.0786517 L56.426087,27.0561798 L55.0173913,30.6741573 L53.5304348,26.9775281 L54.7043478,21.0786517 Z M57.2869565,24.4606742 L56.426087,20.4494382 L56.973913,18.4044944 L59.3217391,18.3258427 L57.2869565,24.4606742 Z M55.5652174,18.4044944 L55.173913,19.6629213 L54.5478261,19.6629213 L54.0782609,18.3258427 L55.5652174,18.3258427 L55.5652174,18.4044944 Z M34.4347826,22.5730337 C33.8869565,24.9325843 31.6173913,26.4269663 29.1913043,26.1123596 L23.2434783,25.011236 C23.0086957,25.011236 22.8521739,25.011236 22.6956522,25.1685393 C22.5391304,25.3258427 22.4608696,25.4831461 22.4608696,25.7191011 L22.6173913,28.8651685 L22.6173913,38.8539326 C22.6173913,38.8539326 22.6173913,38.9325843 22.6173913,38.9325843 L25.4347826,65.2022472 C25.5130435,66.0674157 24.9652174,66.9325843 24.1043478,67.1685393 C23.6347826,67.3258427 23.1652174,67.247191 22.6956522,67.011236 C22.226087,66.7752809 21.9130435,66.3820225 21.8347826,65.9101124 L15.2608696,42.4719101 C15.1826087,42.1573034 14.8695652,41.9213483 14.5565217,42 C14.2434783,42 13.9304348,42.3146067 13.9304348,42.6292135 L11.1130435,66.3820225 C11.0347826,67.3258427 10.2521739,68.0337079 9.31304348,68.0337079 L8.45217391,68.0337079 C7.43478261,68.0337079 6.65217391,67.1685393 6.65217391,66.2247191 L6.65217391,43.0224719 C6.80869565,43.0224719 6.96521739,43.0224719 7.12173913,43.0224719 C7.66956522,43.0224719 8.29565217,42.8651685 8.76521739,42.5505618 C9.93913043,41.7640449 10.4086957,40.2696629 9.93913043,38.8539326 L7.35652174,31.6179775 L9.62608696,27.0561798 C9.7826087,26.741573 9.62608696,26.2696629 9.31304348,26.1123596 C9,25.9550562 8.53043478,26.1123596 8.37391304,26.4269663 L5.94782609,31.3033708 C5.86956522,31.4606742 5.86956522,31.6966292 5.94782609,31.8539326 L8.60869565,39.4044944 C8.84347826,40.1910112 8.60869565,41.0561798 7.9826087,41.4494382 C7.74782609,41.6067416 7.43478261,41.6853933 7.04347826,41.6853933 C6.4173913,41.6853933 5.79130435,41.2921348 5.47826087,40.6629213 L2.8173913,34.6853933 C1.95652174,32.7191011 1.87826087,30.5168539 2.50434783,28.4719101 C3.28695652,26.0337079 3.99130435,23.988764 4.6173913,22.494382 C5.94782609,19.1910112 8.37391304,18.4831461 8.76521739,18.4044944 L10.3304348,18.247191 C10.4086957,18.247191 10.4086957,18.247191 10.4869565,18.247191 L19.2521739,18.247191 C19.3304348,18.247191 19.4086957,18.247191 19.4869565,18.247191 C19.5652174,18.247191 19.5652174,18.247191 19.6434783,18.247191 C21.0521739,18.0898876 25.9826087,19.8202247 28.8,21 C28.9565217,21.0786517 29.1913043,21.0786517 29.3478261,21 C29.5043478,20.9213483 29.6608696,20.7640449 29.7391304,20.6067416 L33.1826087,9.12359551 C33.1826087,9.04494382 33.2608696,8.88764045 33.4173913,8.65168539 L35.2173913,18.6404494 L34.4347826,22.5730337 Z M65.8956522,31.3033708 L63.4695652,26.4269663 C63.3130435,26.1123596 62.9217391,25.9550562 62.5304348,26.1123596 C62.2173913,26.2696629 62.0608696,26.6629213 62.2173913,27.0561798 L64.4869565,31.6179775 L61.9043478,38.8539326 C61.4347826,40.1910112 61.9043478,41.7640449 63.0782609,42.5505618 C63.7826087,43.0224719 64.5652174,43.1011236 65.3478261,42.9438202 L68.0869565,65.2022472 C68.1652174,66.0674157 67.6173913,66.9325843 66.7565217,67.1685393 C66.2869565,67.3258427 65.8173913,67.247191 65.3478261,67.011236 C64.8782609,66.7752809 64.5652174,66.3820225 64.4869565,65.9101124 L57.9130435,42.5505618 C57.8347826,42.2359551 57.5217391,42 57.2086957,42.0786517 C56.8956522,42.0786517 56.5826087,42.3932584 56.5826087,42.7078652 L53.7652174,66.4606742 C53.6869565,67.4044944 52.9043478,68.1123596 51.9652174,68.1123596 L51.1043478,68.1123596 C50.0869565,68.1123596 49.3043478,67.247191 49.3043478,66.3033708 L49.3043478,29.0224719 L49.4608696,25.7977528 C49.4608696,25.5617978 49.3826087,25.4044944 49.226087,25.247191 C49.0695652,25.1685393 48.9130435,25.0898876 48.7565217,25.0898876 C48.6782609,25.0898876 48.6782609,25.0898876 48.6,25.0898876 L42.6521739,26.1910112 C42.4173913,26.1910112 42.1826087,26.2696629 41.9478261,26.2696629 C39.7565217,26.2696629 37.8782609,24.6966292 37.4086957,22.5730337 L36.7043478,18.6404494 C36.7043478,18.6404494 36.7043478,18.6404494 36.7043478,18.6404494 L34.826087,8.25842697 C34.5913043,7.31460674 35.2173913,6.37078652 36.1565217,6.21348315 C36.3130435,6.21348315 36.3913043,6.13483146 36.5478261,6.13483146 C37.3304348,6.13483146 37.9565217,6.60674157 38.1913043,7.31460674 L42.1826087,20.6853933 C42.2608696,20.8426966 42.3391304,21 42.573913,21.0786517 C42.8086957,21.1573034 42.9652174,21.1573034 43.1217391,21.0786517 C43.1217391,21.0786517 46.6434783,19.5842697 49.3826087,18.7977528 L52.2782609,27.3707865 C52.2782609,27.3707865 52.2782609,27.3707865 52.2782609,27.3707865 C52.2782609,27.3707865 52.2782609,27.3707865 52.2782609,27.3707865 L54.4695652,32.8764045 C54.5478261,33.1123596 54.8608696,33.3483146 55.0956522,33.3483146 C55.0956522,33.3483146 55.0956522,33.3483146 55.0956522,33.3483146 C55.4086957,33.3483146 55.6434783,33.1910112 55.7217391,32.8764045 L57.8347826,27.3707865 C57.8347826,27.3707865 57.8347826,27.3707865 57.8347826,27.3707865 C57.8347826,27.3707865 57.8347826,27.3707865 57.8347826,27.3707865 L60.8086957,18.3258427 L61.3565217,18.3258427 C61.4347826,18.3258427 61.5130435,18.3258427 61.5130435,18.3258427 L63.0782609,18.4831461 C63.3913043,18.5617978 65.8956522,19.2696629 67.226087,22.5730337 C68.0869565,24.6966292 68.9478261,27.3707865 69.573913,29.258427 C70.1217391,30.8314607 69.9652174,32.6404494 69.3391304,34.1348315 L66.4434783,40.741573 C66.2086957,41.3707865 65.5826087,41.7640449 64.8782609,41.7640449 C64.5652174,41.7640449 64.2521739,41.6853933 63.9391304,41.5280899 C63.3130435,41.1348315 63,40.2696629 63.3130435,39.4831461 L65.973913,31.9325843 C65.973913,31.6966292 65.973913,31.4606742 65.8956522,31.3033708 Z" id="Shape"></path>
                <path d="M14.7130435,15.6516854 C18.8608696,15.6516854 22.226087,12.2696629 22.226087,8.1011236 C22.226087,3.93258427 18.8608696,0.550561798 14.7130435,0.550561798 C10.5652174,0.550561798 7.2,3.93258427 7.2,8.1011236 C7.2,12.2696629 10.5652174,15.6516854 14.7130435,15.6516854 Z M14.7130435,1.96629213 C18.0782609,1.96629213 20.8173913,4.71910112 20.8173913,8.1011236 C20.8173913,11.4831461 18.0782609,14.2359551 14.7130435,14.2359551 C11.3478261,14.2359551 8.60869565,11.5617978 8.60869565,8.17977528 C8.60869565,4.79775281 11.3478261,1.96629213 14.7130435,1.96629213 Z" id="Shape"></path>
            </g>
        </g>
    </g>
</svg>