<?xml version="1.0" encoding="UTF-8" standalone="no"?>
<svg width="30px" height="30px" viewBox="0 0 30 30" version="1.1" xmlns="http://www.w3.org/2000/svg" xmlns:xlink="http://www.w3.org/1999/xlink">
    <!-- Generator: Sketch 48.2 (47327) - http://www.bohemiancoding.com/sketch -->
    <title>Icon/General/Fee</title>
    <desc>Created with Sketch.</desc>
    <defs></defs>
    <g id="Symbols" stroke="none" stroke-width="1" fill="none" fill-rule="evenodd">
        <g id="Icon/General/Fee" fill="#000000">
            <path d="M21.755,22.39 C21.2649975,23.1700039 20.5750045,23.8099975 19.685,24.31 C18.7949956,24.8100025 17.7700058,25.1199994 16.61,25.24 L16.61,28.63 C16.61,28.8900013 16.5250008,29.1049991 16.355,29.275 C16.1849992,29.4450008 15.9700013,29.53 15.71,29.53 C15.4499987,29.53 15.2350009,29.4450008 15.065,29.275 C14.8949992,29.1049991 14.81,28.8900013 14.81,28.63 L14.81,25.27 C13.5499937,25.1899996 12.420005,24.9100024 11.42,24.43 C10.419995,23.9499976 9.4500047,23.2500046 8.51,22.33 C8.2699988,22.129999 8.15,21.8900014 8.15,21.61 C8.15,21.3699988 8.24499905,21.150001 8.435,20.95 C8.62500095,20.749999 8.8399988,20.65 9.08,20.65 C9.3200012,20.65 9.539999,20.749999 9.74,20.95 C11.140007,22.4700076 12.8299901,23.3199991 14.81,23.5 L14.81,15.1 C12.9299906,14.5199971 11.490005,13.8000043 10.49,12.94 C9.489995,12.0799957 8.99,10.8200083 8.99,9.16 C8.99,7.6999927 9.5199947,6.47500495 10.58,5.485 C11.6400053,4.49499505 13.0499912,3.9200008 14.81,3.76 L14.81,1.45 C14.81,1.1899987 14.8999991,0.97500085 15.08,0.805 C15.2600009,0.63499915 15.4799987,0.55 15.74,0.55 C16.0000013,0.55 16.2099992,0.63499915 16.37,0.805 C16.5300008,0.97500085 16.61,1.1899987 16.61,1.45 L16.61,3.73 C17.6700053,3.8300005 18.6599954,4.079998 19.58,4.48 C20.5000046,4.880002 21.2399972,5.4099967 21.8,6.07 C22.1000015,6.4100017 22.25,6.6999988 22.25,6.94 C22.25,7.1600011 22.150001,7.36499905 21.95,7.555 C21.749999,7.74500095 21.5300012,7.84 21.29,7.84 C21.089999,7.84 20.9200007,7.7700007 20.78,7.63 C20.3199977,7.0699972 19.7200037,6.6000019 18.98,6.22 C18.2399963,5.8399981 17.4500042,5.6100004 16.61,5.53 L16.61,13.69 C17.8500062,14.0700019 18.8849959,14.4849977 19.715,14.935 C20.5450042,15.3850022 21.2149974,16.004996 21.725,16.795 C22.2350026,17.5850039 22.49,18.5999938 22.49,19.84 C22.49,20.7600046 22.2450025,21.6099961 21.755,22.39 Z M11.885,11.5 C12.5750035,12.100003 13.5499937,12.6299977 14.81,13.09 L14.81,5.53 C13.609994,5.6700007 12.6500036,6.05499685 11.93,6.685 C11.2099964,7.31500315 10.85,8.1199951 10.85,9.1 C10.85,10.100005 11.1949965,10.899997 11.885,11.5 Z M19.49,22.255 C20.2300037,21.6049967 20.6,20.8000048 20.6,19.84 C20.5799999,18.7999948 20.2300034,17.9650031 19.55,17.335 C18.8699966,16.7049968 17.8900064,16.1500024 16.61,15.67 L16.61,23.47 C17.7900059,23.3099992 18.7499963,22.9050032 19.49,22.255 Z" id="$"></path>
        </g>
    </g>
</svg>