<?xml version="1.0" encoding="UTF-8" standalone="no"?>
<svg width="30px" height="30px" viewBox="0 0 30 30" version="1.1" xmlns="http://www.w3.org/2000/svg" xmlns:xlink="http://www.w3.org/1999/xlink">
    <!-- Generator: Sketch 48.2 (47327) - http://www.bohemiancoding.com/sketch -->
    <title>Icon/General/Prize</title>
    <desc>Created with Sketch.</desc>
    <defs></defs>
    <g id="Symbols" stroke="none" stroke-width="1" fill="none" fill-rule="evenodd">
        <g id="Icon/General/Prize" fill="#000000" fill-rule="nonzero">
            <g id="Prize" transform="translate(4.000000, 0.000000)">
                <g id="Group">
                    <path d="M11.249969,30 C6.42515656,30 2.499969,26.0748124 2.499969,21.25 C2.499969,16.4251876 6.42515656,12.5 11.249969,12.5 C16.0748434,12.5 19.999969,16.4251876 19.999969,21.25 C19.999969,26.0748124 16.0748434,30 11.249969,30 Z M11.249969,13.75 C7.11428162,13.75 3.749969,17.1142494 3.749969,21.25 C3.749969,25.3857506 7.11428162,28.75 11.249969,28.75 C15.3857183,28.75 18.749969,25.3857493 18.749969,21.25 C18.749969,17.1142507 15.3857184,13.75 11.249969,13.75 Z" id="Shape"></path>
                    <path d="M11.249969,26.875 C8.14821838,26.875 5.624969,24.3518114 5.624969,21.25 C5.624969,18.1481886 8.14821838,15.625 11.249969,15.625 C14.3517816,15.625 16.874969,18.1481874 16.874969,21.25 C16.874969,24.3518126 14.3517816,26.875 11.249969,26.875 Z M11.249969,16.875 C8.83790612,16.875 6.874969,18.8378739 6.874969,21.25 C6.874969,23.6621261 8.83790612,25.625 11.249969,25.625 C13.6620939,25.625 15.624969,23.6621261 15.624969,21.25 C15.624969,18.8378739 13.6620939,16.875 11.249969,16.875 Z" id="Shape"></path>
                    <polygon id="Shape" points="16.249969 14.375 14.999969 14.375 14.999969 11.25 7.499969 11.25 7.499969 14.375 6.249969 14.375 6.249969 10 16.249969 10"></polygon>
                    <path d="M15.9905934,11.25 L9.55628156,11.25 L15.8844066,0 L22.3187184,0 L15.9905934,11.25 Z M11.6937184,10 L15.2594066,10 L20.1812816,1.25 L16.6155934,1.25 L11.6937184,10 Z" id="Shape"></path>
                    <polygon id="Shape" points="6.33059381 10.931375 0.181281562 0 6.61559344 0 11.7932189 9.20531275 10.7043433 9.81812475 5.88440656 1.25 2.318719 1.25 7.41940619 10.318625"></polygon>
                </g>
            </g>
        </g>
    </g>
</svg>