<?xml version="1.0" encoding="UTF-8" standalone="no"?>
<svg width="30px" height="30px" viewBox="0 0 30 30" version="1.1" xmlns="http://www.w3.org/2000/svg" xmlns:xlink="http://www.w3.org/1999/xlink">
    <!-- Generator: Sketch 48.2 (47327) - http://www.bohemiancoding.com/sketch -->
    <title>Icon/General/Team Size</title>
    <desc>Created with Sketch.</desc>
    <defs></defs>
    <g id="Symbols" stroke="none" stroke-width="1" fill="none" fill-rule="evenodd">
        <g id="Icon/General/Team-Size" fill="#000000" fill-rule="nonzero">
            <g id="Group">
                <path d="M25.5618861,7.12795276 C27.324165,7.12795276 28.762279,5.69291339 28.762279,3.92716535 C28.762279,2.16141732 27.3300589,0.720472441 25.5618861,0.720472441 C23.7996071,0.720472441 22.367387,2.15551181 22.367387,3.92716535 C22.3614931,5.68700787 23.7996071,7.12795276 25.5618861,7.12795276 Z M25.5618861,2.38582677 C26.410609,2.38582677 27.0943026,3.07677165 27.0943026,3.92125984 C27.0943026,4.77165354 26.4047151,5.45669291 25.5618861,5.45669291 C24.719057,5.45669291 24.0294695,4.76574803 24.0294695,3.92125984 C24.0294695,3.07677165 24.7131631,2.38582677 25.5618861,2.38582677 Z" id="Shape"></path>
                <path d="M25.5618861,8.0492126 C23.1453831,8.0492126 21.1827112,10.015748 21.1827112,12.4370079 L21.1827112,17.9232283 C21.1827112,18.3838583 21.5540275,18.7559055 22.0137525,18.7559055 L23.0275049,18.7559055 L23.0275049,25.3464567 C23.0275049,25.8070866 23.3988212,26.1791339 23.8585462,26.1791339 L27.2711198,26.1791339 C27.7308448,26.1791339 28.1021611,25.8070866 28.1021611,25.3464567 L28.1021611,18.761811 L29.1159136,18.761811 C29.5756385,18.761811 29.9469548,18.3897638 29.9469548,17.9291339 L29.9469548,12.4429134 C29.9410609,10.0216535 27.978389,8.0492126 25.5618861,8.0492126 Z M26.4341847,24.519685 L24.6836935,24.519685 L24.6836935,18.761811 L26.4341847,18.761811 L26.4341847,24.519685 Z M28.2789784,17.0905512 L22.8447937,17.0905512 L22.8447937,12.4370079 C22.8447937,10.9370079 24.064833,9.71456693 25.5618861,9.71456693 C27.0589391,9.71456693 28.2789784,10.9370079 28.2789784,12.4370079 L28.2789784,17.0905512 Z" id="Shape"></path>
                <path d="M14.9705305,7.31102362 C16.9803536,7.31102362 18.6188605,5.66929134 18.6188605,3.65551181 C18.6188605,1.64173228 16.9803536,0 14.9705305,0 C12.9607073,0 11.3222004,1.64173228 11.3222004,3.65551181 C11.3222004,5.66929134 12.9607073,7.31102362 14.9705305,7.31102362 Z M14.9705305,1.66535433 C16.0667976,1.66535433 16.956778,2.55708661 16.956778,3.65551181 C16.956778,4.75393701 16.0667976,5.64566929 14.9705305,5.64566929 C13.8742633,5.64566929 12.9842829,4.75393701 12.9842829,3.65551181 C12.9842829,2.55708661 13.8742633,1.66535433 14.9705305,1.66535433 Z" id="Shape"></path>
                <path d="M14.9705305,8.72834646 C12.1827112,8.72834646 9.91355599,11.0019685 9.91355599,13.7952756 L9.91355599,20.3267717 C9.91355599,20.7874016 10.2848723,21.1594488 10.7445972,21.1594488 L12.1060904,21.1594488 L12.1060904,29.1673228 C12.1060904,29.6279528 12.4774067,30 12.9371316,30 L16.9980354,30 C17.4577603,30 17.8290766,29.6279528 17.8290766,29.1673228 L17.8290766,21.1594488 L19.1905697,21.1594488 C19.6502947,21.1594488 20.021611,20.7874016 20.021611,20.3267717 L20.021611,13.7952756 C20.0275049,11.0019685 17.7583497,8.72834646 14.9705305,8.72834646 Z M16.1669941,28.3346457 L13.7681729,28.3346457 L13.7681729,21.1594488 L16.1669941,21.1594488 L16.1669941,28.3346457 Z M18.3654224,19.4940945 L11.5756385,19.4940945 L11.5756385,13.7952756 C11.5756385,11.9232283 13.0962672,10.3937008 14.9705305,10.3937008 C16.8388998,10.3937008 18.3654224,11.9173228 18.3654224,13.7952756 L18.3654224,19.4940945 Z" id="Shape"></path>
                <path d="M4.37917485,7.12795276 C6.14145383,7.12795276 7.57956778,5.69291339 7.57956778,3.92716535 C7.57956778,2.16141732 6.14734774,0.720472441 4.37917485,0.720472441 C2.61689587,0.720472441 1.18467583,2.15551181 1.18467583,3.92716535 C1.18467583,5.68700787 2.61689587,7.12795276 4.37917485,7.12795276 Z M4.37917485,2.38582677 C5.22789784,2.38582677 5.91159136,3.07677165 5.91159136,3.92125984 C5.91159136,4.77165354 5.22200393,5.45669291 4.37917485,5.45669291 C3.53045187,5.45669291 2.84675835,4.76574803 2.84675835,3.92125984 C2.84675835,3.07677165 3.53634578,2.38582677 4.37917485,2.38582677 Z" id="Shape"></path>
                <path d="M4.37917485,8.0492126 C1.96267191,8.0492126 0,10.015748 0,12.4370079 L0,17.9232283 C0,18.3838583 0.371316306,18.7559055 0.831041257,18.7559055 L1.84479371,18.7559055 L1.84479371,25.3464567 C1.84479371,25.8070866 2.21611002,26.1791339 2.67583497,26.1791339 L6.08840864,26.1791339 C6.5481336,26.1791339 6.9194499,25.8070866 6.9194499,25.3464567 L6.9194499,18.761811 L7.93320236,18.761811 C8.39292731,18.761811 8.76424361,18.3897638 8.76424361,17.9291339 L8.76424361,12.4429134 C8.75834971,10.0216535 6.7956778,8.0492126 4.37917485,8.0492126 Z M5.25147348,24.519685 L3.50687623,24.519685 L3.50687623,18.761811 L5.25736739,18.761811 L5.25736739,24.519685 L5.25147348,24.519685 Z M7.09626719,17.0905512 L1.66208251,17.0905512 L1.66208251,12.4370079 C1.66208251,10.9370079 2.88212181,9.71456693 4.37917485,9.71456693 C5.8762279,9.71456693 7.09626719,10.9370079 7.09626719,12.4370079 L7.09626719,17.0905512 Z" id="Shape"></path>
            </g>
        </g>
    </g>
</svg>