<?xml version="1.0" encoding="UTF-8" standalone="no"?>
<svg width="30px" height="30px" viewBox="0 0 30 30" version="1.1" xmlns="http://www.w3.org/2000/svg" xmlns:xlink="http://www.w3.org/1999/xlink">
    <!-- Generator: Sketch 48.2 (47327) - http://www.bohemiancoding.com/sketch -->
    <title>Icon/Navigation/Reveal/Active</title>
    <desc>Created with Sketch.</desc>
    <defs></defs>
    <g id="Symbols" stroke="none" stroke-width="1" fill="none" fill-rule="evenodd">
        <g id="Icon/Navigation/Reveal/Active">
            <rect id="Rectangle-2" x="0" y="0" width="30" height="30"></rect>
            <g id="Reveal-Password" transform="translate(0.000000, 6.000000)" fill="#000000" fill-rule="nonzero">
                <path d="M15,0.0326086957 C9.39130435,0.0326086957 4.27173913,3.09782609 0.52173913,8.11956522 C0.22826087,8.54347826 0.22826087,9.09782609 0.52173913,9.52173913 C4.27173913,14.5108696 9.39130435,17.576087 15,17.576087 C20.6086957,17.576087 25.7282609,14.5108696 29.4782609,9.48913043 C29.7717391,9.06521739 29.7717391,8.51086957 29.4782609,8.08695652 C25.7282609,3.09782609 20.6086957,0.0326086957 15,0.0326086957 Z M15.3913043,14.9673913 C11.673913,15.1956522 8.57608696,12.1304348 8.80434783,8.38043478 C9,5.31521739 11.5108696,2.80434783 14.576087,2.60869565 C18.2934783,2.38043478 21.3913043,5.44565217 21.1630435,9.19565217 C20.9673913,12.2934783 18.4891304,14.7717391 15.3913043,14.9673913 Z M15.2282609,12.1304348 C13.2065217,12.2608696 11.576087,10.5978261 11.673913,8.57608696 C11.7717391,6.91304348 13.1086957,5.57608696 14.7717391,5.47826087 C16.7934783,5.34782609 18.423913,7.01086957 18.326087,9.0326087 C18.2282609,10.6630435 16.8586957,12.0326087 15.2282609,12.1304348 Z" id="Shape"></path>
            </g>
        </g>
    </g>
</svg>