<?xml version="1.0" encoding="UTF-8" standalone="no"?>
<svg width="30px" height="30px" viewBox="0 0 30 30" version="1.1" xmlns="http://www.w3.org/2000/svg" xmlns:xlink="http://www.w3.org/1999/xlink">
    <!-- Generator: Sketch 48.2 (47327) - http://www.bohemiancoding.com/sketch -->
    <title>Icon/Navigation/Reveal/Inactive</title>
    <desc>Created with Sketch.</desc>
    <defs></defs>
    <g id="Symbols" stroke="none" stroke-width="1" fill="none" fill-rule="evenodd">
        <g id="Icon/Navigation/Reveal/Inactive">
            <rect id="Rectangle-2" x="0" y="0" width="30" height="30"></rect>
            <path d="M15,6.0326087 C9.39130435,6.0326087 4.27173913,9.09782609 0.52173913,14.1195652 C0.22826087,14.5434783 0.22826087,15.0978261 0.52173913,15.5217391 C4.27173913,20.5108696 9.39130435,23.576087 15,23.576087 C20.6086957,23.576087 25.7282609,20.5108696 29.4782609,15.4891304 C29.7717391,15.0652174 29.7717391,14.5108696 29.4782609,14.0869565 C25.7282609,9.09782609 20.6086957,6.0326087 15,6.0326087 Z" id="Path" fill="#7F7F7F"></path>
            <path d="M15.3913043,20.9673913 C11.673913,21.1956522 8.57608696,18.1304348 8.80434783,14.3804348 C9,11.3152174 11.5108696,8.80434783 14.576087,8.60869565 C18.2934783,8.38043478 21.3913043,11.4456522 21.1630435,15.1956522 C20.9673913,18.2934783 18.4891304,20.7717391 15.3913043,20.9673913 Z" id="Path" fill="#FFFFFF"></path>
            <path d="M15.2282609,18.1304348 C13.2065217,18.2608696 11.576087,16.5978261 11.673913,14.576087 C11.7717391,12.9130435 13.1086957,11.576087 14.7717391,11.4782609 C16.7934783,11.3478261 18.423913,13.0108696 18.326087,15.0326087 C18.2282609,16.6630435 16.8586957,18.0326087 15.2282609,18.1304348 Z" id="Path" fill="#7F7F7F"></path>
        </g>
    </g>
</svg>