<?xml version="1.0" encoding="UTF-8" standalone="no"?>
<svg width="24px" height="24px" viewBox="0 0 24 24" version="1.1" xmlns="http://www.w3.org/2000/svg" xmlns:xlink="http://www.w3.org/1999/xlink">
    <!-- Generator: Sketch 48.2 (47327) - http://www.bohemiancoding.com/sketch -->
    <title>Icon/Navigation/Close</title>
    <desc>Created with Sketch.</desc>
    <defs></defs>
    <g id="Symbols" stroke="none" stroke-width="1" fill="none" fill-rule="evenodd">
        <g id="Icon/Navigation/Close" fill="#000000" fill-rule="nonzero">
            <path d="M13.9000468,11.975 L23.0655684,21.1405215 C23.6114772,21.6864304 23.6114772,22.5483916 23.0655684,23.0655684 C22.5196596,23.6114772 21.6576983,23.6114772 21.1405215,23.0655684 L11.975,13.9000468 L2.80947845,23.0655684 C2.26356964,23.6114772 1.40160837,23.6114772 0.884431605,23.0655684 C0.338522798,22.5196596 0.338522798,21.6576983 0.884431605,21.1405215 L10.0499532,11.975 L0.884431605,2.80947845 C0.338522798,2.26356964 0.338522798,1.40160837 0.884431605,0.884431605 C1.43034041,0.338522798 2.29230169,0.338522798 2.80947845,0.884431605 L11.975,10.0499532 L21.1405215,0.884431605 C21.6864304,0.338522798 22.5483916,0.338522798 23.0655684,0.884431605 C23.6114772,1.43034041 23.6114772,2.29230169 23.0655684,2.80947845 L13.9000468,11.975 Z" id="Shape"></path>
        </g>
    </g>
</svg>