<?xml version="1.0" encoding="UTF-8" standalone="no"?>
<svg width="30px" height="30px" viewBox="0 0 30 30" version="1.1" xmlns="http://www.w3.org/2000/svg" xmlns:xlink="http://www.w3.org/1999/xlink">
    <!-- Generator: Sketch 48.2 (47327) - http://www.bohemiancoding.com/sketch -->
    <title>Icon/Navigation/Edit</title>
    <desc>Created with Sketch.</desc>
    <defs></defs>
    <g id="Symbols" stroke="none" stroke-width="1" fill="none" fill-rule="evenodd">
        <g id="Icon/Navigation/Edit" fill="#000000" fill-rule="nonzero">
            <path d="M29.3141601,2.92216927 C30.2286133,3.87348787 30.2286133,5.37962914 29.3141601,6.33094774 L26.9225463,8.68987429 L8.24856749,27.3798308 C8.09777199,27.5252486 7.9098979,27.6261562 7.70560653,27.6714563 L1.24178556,29.9590966 C1.14857971,29.9921945 1.04951289,30.0054376 0.950913612,29.99798 C0.698180745,30.0078542 0.451832383,29.9169818 0.265748589,29.7452379 C0.0224395439,29.4823343 -0.0614599074,29.1087567 0.0459786757,28.7666722 L2.42466479,22.11761 L2.46344772,22.0463238 C2.50113135,21.9420185 2.56063757,21.8470038 2.63797089,21.7676594 L23.7035634,0.705815204 C24.6425306,-0.235271735 26.1645661,-0.235271735 27.1035333,0.705815204 L29.3141601,2.92216927 Z M3.69157371,24.1525082 L2.49576683,27.5288838 L5.86341755,26.3040566 L3.69157371,24.1525082 Z M21.9712594,5.13204276 L4.62882775,22.4157161 L7.59572158,25.3578937 L24.8993703,8.07422038 L21.9712594,5.13204276 Z M27.9826129,4.98947028 C28.1651441,4.78058348 28.1538119,4.4652999 27.9567576,4.2701273 L25.7461309,2.05377323 C25.538927,1.8718446 25.2293868,1.8718446 25.0221829,2.05377323 L23.2834151,3.79704587 L26.2179898,6.73922349 L27.9826129,4.98947028 Z" id="Shape"></path>
        </g>
    </g>
</svg>