<?xml version="1.0" encoding="UTF-8" standalone="no"?>
<svg width="30px" height="30px" viewBox="0 0 30 30" version="1.1" xmlns="http://www.w3.org/2000/svg" xmlns:xlink="http://www.w3.org/1999/xlink">
    <!-- Generator: Sketch 48.2 (47327) - http://www.bohemiancoding.com/sketch -->
    <title>Icon/Navigation/Settings</title>
    <desc>Created with Sketch.</desc>
    <defs></defs>
    <g id="Symbols" stroke="none" stroke-width="1" fill="none" fill-rule="evenodd">
        <g id="Icon/Navigation/Settings" fill="#000000" fill-rule="nonzero">
            <path d="M17.7755016,30 L12.0201784,30 C11.0741601,30 10.2522593,29.2483951 10.1886869,28.3239506 L9.98081514,25.3007407 C9.39201334,25.0222222 8.82036599,24.6888889 8.27495489,24.305679 L5.51106774,25.5851852 C5.26838251,25.697284 5.00753372,25.7540741 4.73508044,25.7540741 C4.06403811,25.7540741 3.44345009,25.4083951 3.11549707,24.8518519 L0.238087718,19.974321 C-0.235173718,19.1708642 0.0191160088,18.0982716 0.805698715,17.582716 L3.42730471,15.862716 C3.4061139,15.5876543 3.39551849,15.322963 3.39551849,15.0617284 C3.39551849,14.722963 3.41519567,14.374321 3.45606366,13.9891358 L0.889957414,12.2488889 C0.103374708,11.7160494 -0.138301441,10.6632099 0.340509969,9.85185185 L3.21741477,4.97382716 C3.54234054,4.42271605 4.1563695,4.08 4.81984369,4.08 C5.09633331,4.08 5.37181385,4.14222222 5.6170218,4.25975309 L8.51713559,5.65333333 C9.03479681,5.3091358 9.57112614,5.00938272 10.1185554,4.75851852 L10.3794042,1.66419753 C10.4576084,0.730864198 11.2684092,0 12.2255274,0 L17.9803461,0 C18.9273735,0 19.7492743,0.752098765 19.8123422,1.67654321 L20.0277821,4.82716049 C20.5721841,5.0854321 21.1039725,5.39209877 21.6165883,5.74320988 L24.4894568,4.41432099 C24.7316375,4.3017284 24.9929908,4.24493827 25.2659486,4.24493827 C25.9369909,4.24493827 26.557579,4.59061728 26.885532,5.14666667 L29.7619323,10.0251852 C30.2351937,10.8281481 29.980904,11.9012346 29.1938167,12.4162963 L26.5611108,14.1446914 C26.5903743,14.468642 26.6045015,14.771358 26.6045015,15.0617284 C26.6045015,15.3649383 26.5893652,15.6760494 26.5565699,16.0187654 L29.1100626,17.7501235 C29.8966453,18.282963 30.1383214,19.3358025 29.6605191,20.1471605 L26.7831097,25.0246914 C26.4576794,25.5762963 25.8436505,25.9195062 25.1796717,25.9195062 C24.9031821,25.9195062 24.6282061,25.857284 24.3835027,25.7402469 L21.5898475,24.3980247 C21.0353546,24.7753086 20.4601755,25.1007407 19.8713737,25.3698765 L19.6216249,28.3358025 C19.5434207,29.2691358 18.7326199,30 17.7755016,30 Z M8.45911313,22.5822222 L8.82642051,22.8612346 C9.51058097,23.3817284 10.2436821,23.8088889 11.0055422,24.1308642 L11.4293584,24.3101235 L11.6987844,28.2241975 C11.7093798,28.3782716 11.8627609,28.5185185 12.0201784,28.5185185 L17.7755016,28.5185185 C17.9359463,28.5185185 18.1004274,28.3708642 18.113041,28.2148148 L18.4374622,24.3585185 L18.8638011,24.1851852 C19.6221294,23.8775309 20.3607805,23.4597531 21.0600773,22.9446914 L21.431421,22.6706173 L25.0510133,24.4093827 C25.1877444,24.4755556 25.3971298,24.411358 25.4728113,24.2834568 L28.3497161,19.4059259 C28.4294339,19.2701235 28.3809978,19.0567901 28.2488075,18.9674074 L24.9496001,16.7303704 L25.0050998,16.2864198 C25.0636268,15.8192593 25.0908722,15.4296296 25.0908722,15.0617284 C25.0908722,14.6992593 25.0641314,14.308642 25.0096407,13.8676543 L24.954141,13.4162963 L28.3512297,11.185679 C28.4829155,11.0997531 28.529838,10.8992593 28.4506247,10.7654321 L25.5742245,5.88740741 C25.4965248,5.75555556 25.2780576,5.68740741 25.136281,5.75358025 L21.4420164,7.46222222 L21.0762226,7.19111111 C20.4167848,6.7017284 19.7190017,6.30024691 19.0020459,5.99703704 L18.5782297,5.81777778 L18.3012355,1.77580247 C18.2906401,1.6217284 18.1377636,1.48197531 17.9798416,1.48197531 L12.2250229,1.48197531 C12.0645782,1.48197531 11.9006017,1.62962963 11.8874835,1.78617284 L11.5519624,5.76839506 L11.1266325,5.94222222 C10.4066495,6.23604938 9.70281189,6.62864198 9.03530136,7.1091358 L8.66547126,7.37580247 L4.94951127,5.59012346 C4.81126645,5.52345679 4.60339469,5.58716049 4.52821777,5.7145679 L1.65080842,10.5930864 C1.57058607,10.7288889 1.61952675,10.9422222 1.7512125,11.0311111 L5.07362887,13.2839506 L5.01157007,13.7338272 C4.94143858,14.2409877 4.90914782,14.662716 4.90914782,15.0617284 C4.90914782,15.4079012 4.93033863,15.7644444 4.97423388,16.1511111 L5.02519273,16.5975309 L1.64828571,18.8133333 C1.5171045,18.8992593 1.46967745,19.0992593 1.54889071,19.2340741 L4.42630006,24.1116049 C4.5039997,24.2439506 4.72095324,24.3116049 4.86424348,24.2454321 L8.45911313,22.5822222 Z M15.00001,20.3293827 C12.0322874,20.3293827 9.61804865,17.9664198 9.61804865,15.0617284 C9.61804865,12.157037 12.0322874,9.79407407 15.00001,9.79407407 C17.9677326,9.79407407 20.3819713,12.157037 20.3819713,15.0617284 C20.3819713,17.9664198 17.9677326,20.3293827 15.00001,20.3293827 Z M15.00001,11.2755556 C12.8668017,11.2755556 11.131678,12.9738272 11.131678,15.0617284 C11.131678,17.1496296 12.8668017,18.8479012 15.00001,18.8479012 C17.1332182,18.8479012 18.868342,17.1496296 18.868342,15.0617284 C18.868342,12.9738272 17.1332182,11.2755556 15.00001,11.2755556 Z" id="Shape"></path>
        </g>
    </g>
</svg>