<?xml version="1.0" encoding="UTF-8" standalone="no"?>
<svg width="32px" height="32px" viewBox="0 0 32 32" version="1.1" xmlns="http://www.w3.org/2000/svg" xmlns:xlink="http://www.w3.org/1999/xlink">
    <!-- Generator: Sketch 48.2 (47327) - http://www.bohemiancoding.com/sketch -->
    <title>Tab Bar Icon/Competitions/Black</title>
    <desc>Created with Sketch.</desc>
    <defs></defs>
    <g id="Symbols" stroke="none" stroke-width="1" fill="none" fill-rule="evenodd">
        <g id="Tab-Bar-Icon/Competitions/Black" fill="#262626">
            <path d="M3,1 L29,1 C30.1045695,1 31,1.8954305 31,3 L31,29 C31,30.1045695 30.1045695,31 29,31 L3,31 C1.8954305,31 1,30.1045695 1,29 L1,3 C1,1.8954305 1.8954305,1 3,1 Z M7.09375,8.74193548 C7.87040043,8.74193548 8.5,8.09202625 8.5,7.29032258 C8.5,6.48861891 7.87040043,5.83870968 7.09375,5.83870968 C6.31709957,5.83870968 5.6875,6.48861891 5.6875,7.29032258 C5.6875,8.09202625 6.31709957,8.74193548 7.09375,8.74193548 Z M7.09375,17.4516129 C7.87040043,17.4516129 8.5,16.8017037 8.5,16 C8.5,15.1982963 7.87040043,14.5483871 7.09375,14.5483871 C6.31709957,14.5483871 5.6875,15.1982963 5.6875,16 C5.6875,16.8017037 6.31709957,17.4516129 7.09375,17.4516129 Z M7.09375,26.1612903 C7.87040043,26.1612903 8.5,25.5113811 8.5,24.7096774 C8.5,23.9079738 7.87040043,23.2580645 7.09375,23.2580645 C6.31709957,23.2580645 5.6875,23.9079738 5.6875,24.7096774 C5.6875,25.5113811 6.31709957,26.1612903 7.09375,26.1612903 Z M11.6696429,8.74193548 L25.9553571,8.74193548 L26.3125,8.74193548 L26.3125,5.83870968 L25.9553571,5.83870968 L11.6696429,5.83870968 L11.3125,5.83870968 L11.3125,8.74193548 L11.6696429,8.74193548 Z M11.6696429,17.4516129 L25.9553571,17.4516129 L26.3125,17.4516129 L26.3125,14.5483871 L25.9553571,14.5483871 L11.6696429,14.5483871 L11.3125,14.5483871 L11.3125,17.4516129 L11.6696429,17.4516129 Z M11.6696429,26.1612903 L25.9553571,26.1612903 L26.3125,26.1612903 L26.3125,23.2580645 L25.9553571,23.2580645 L11.6696429,23.2580645 L11.3125,23.2580645 L11.3125,26.1612903 L11.6696429,26.1612903 Z" id="Combined-Shape"></path>
        </g>
    </g>
</svg>